<?xml version="1.0" encoding="UTF-8"?>
<!DOCTYPE svg PUBLIC "-//W3C//DTD SVG 1.1//EN" "http://www.w3.org/Graphics/SVG/1.1/DTD/svg11.dtd">
<!-- Creator: CorelDRAW SE -->
<svg xmlns="http://www.w3.org/2000/svg" xml:space="preserve" width="297mm" height="210mm" version="1.1" style="shape-rendering:geometricPrecision; text-rendering:geometricPrecision; image-rendering:optimizeQuality; fill-rule:evenodd; clip-rule:evenodd"
viewBox="0 0 29700 21000"
 xmlns:xlink="http://www.w3.org/1999/xlink">
 <defs>
  <style type="text/css">
   <![CDATA[
    .str0 {stroke:#4F90C9;stroke-width:20;stroke-miterlimit:22.9256;stroke-opacity:0.200000}
    .fil9 {fill:#2B2A29;fill-rule:nonzero}
    .fil1 {fill:#2482C0;fill-opacity:0.200000}
    .fil8 {fill:#4F90C9;fill-opacity:0.200000}
    .fil2 {fill:#724794;fill-opacity:0.200000}
    .fil0 {fill:#B2B3B3;fill-opacity:0.200000}
    .fil7 {fill:#CB1982;fill-opacity:0.200000}
    .fil4 {fill:#D2D829;fill-opacity:0.200000}
    .fil3 {fill:#D41981;fill-opacity:0.200000}
    .fil6 {fill:#E02A3E;fill-opacity:0.200000}
    .fil5 {fill:#F19215;fill-opacity:0.200000}
   ]]>
  </style>
    <clipPath id="id0">
     <path d="M7790.53 8868.98l14382.15 0 0 1287.16 -14382.15 0 0 -1287.16z"/>
    </clipPath>
 </defs>
 <g id="Warstwa_x0020_1">
  <metadata id="CorelCorpID_0Corel-Layer"/>
  <g id="_776835440">
   <g>
    <polygon class="fil0" points="14981.6,9754.1 13952.11,9754.1 13952.11,8151.74 14975.87,8151.74 "/>
    <polygon class="fil1" points="13952.11,9754.1 12349.74,9754.1 12349.74,8151.74 13952.11,8151.74 "/>
    <polygon class="fil2" points="12349.74,9754.1 10747.38,9754.1 10747.38,8151.74 12349.74,8151.74 "/>
    <polygon class="fil3" points="10747.38,9754.1 9145.02,9754.1 9145.02,8151.74 10747.38,8151.74 "/>
    <polygon class="fil0" points="9145.02,9754.1 7542.66,9754.1 7542.66,8151.74 9145.02,8151.74 "/>
    <polygon class="fil4" points="7542.66,9754.1 5940.3,9754.1 5940.3,8151.74 7542.66,8151.74 "/>
    <polygon class="fil5" points="5940.3,9754.1 4337.93,9754.1 4337.93,8151.74 5940.3,8151.74 "/>
    <polygon class="fil6" points="4337.93,9754.1 2735.57,9754.1 2735.57,8151.74 4337.93,8151.74 "/>
    <polygon class="fil7" points="2735.57,9754.1 1133.21,9754.1 1133.21,8151.74 2735.57,8151.74 "/>
    <polygon class="fil1" points="6964.1,9754.1 7966.28,9754.1 7966.28,10756.29 6964.1,10756.29 "/>
    <polygon class="fil2" points="7966.28,9754.1 8968.47,9754.1 8968.47,10756.29 7966.28,10756.29 "/>
    <polygon class="fil3" points="8968.47,9754.1 9970.67,9754.1 9970.67,10756.29 8968.47,10756.29 "/>
    <polygon class="fil0" points="9970.67,9754.1 10972.85,9754.1 10972.85,10756.29 9970.67,10756.29 "/>
    <polygon class="fil4" points="10972.85,9754.1 11975.04,9754.1 11975.04,10756.29 10972.85,10756.29 "/>
    <polygon class="fil5" points="11975.04,9754.1 12977.23,9754.1 12977.23,10756.29 11975.04,10756.29 "/>
    <polygon class="fil6" points="12977.23,9754.1 13979.41,9754.1 13979.41,10756.29 12977.23,10756.29 "/>
    <polygon class="fil7" points="13979.41,9754.1 14981.6,9754.1 14981.6,10756.29 13979.41,10756.29 "/>
    <polygon class="fil8 str0" points="1133.21,9754.1 1953.16,9754.1 1953.16,10756.29 1126.85,10756.29 "/>
    <polygon class="fil0" points="1953.16,9754.1 2955.35,9754.1 2955.35,10756.29 1953.16,10756.29 "/>
    <polygon class="fil4" points="2955.35,9754.1 3957.54,9754.1 3957.54,10756.29 2955.35,10756.29 "/>
    <polygon class="fil5" points="3957.54,9754.1 4959.72,9754.1 4959.72,10756.29 3957.54,10756.29 "/>
    <polygon class="fil6" points="4959.72,9754.1 5961.91,9754.1 5961.91,10756.29 4959.72,10756.29 "/>
    <polygon class="fil7" points="5961.91,9754.1 6964.1,9754.1 6964.1,10756.29 5961.91,10756.29 "/>
   </g>
   <g>
    <polygon class="fil0" points="28829.99,9754.1 27800.5,9754.1 27800.5,8151.74 28824.26,8151.74 "/>
    <polygon class="fil1" points="27800.5,9754.1 26198.13,9754.1 26198.13,8151.74 27800.5,8151.74 "/>
    <polygon class="fil2" points="26198.13,9754.1 24595.77,9754.1 24595.77,8151.74 26198.13,8151.74 "/>
    <polygon class="fil3" points="24595.77,9754.1 22993.41,9754.1 22993.41,8151.74 24595.77,8151.74 "/>
    <polygon class="fil0" points="22993.41,9754.1 21391.05,9754.1 21391.05,8151.74 22993.41,8151.74 "/>
    <polygon class="fil4" points="21391.05,9754.1 19788.69,9754.1 19788.69,8151.74 21391.05,8151.74 "/>
    <polygon class="fil5" points="19788.69,9754.1 18186.32,9754.1 18186.32,8151.74 19788.69,8151.74 "/>
    <polygon class="fil6" points="18186.32,9754.1 16583.96,9754.1 16583.96,8151.74 18186.32,8151.74 "/>
    <polygon class="fil7" points="16583.96,9754.1 14981.6,9754.1 14981.6,8151.74 16583.96,8151.74 "/>
    <polygon class="fil1" points="20812.49,9754.1 21814.67,9754.1 21814.67,10756.29 20812.49,10756.29 "/>
    <polygon class="fil2" points="21814.67,9754.1 22816.86,9754.1 22816.86,10756.29 21814.67,10756.29 "/>
    <polygon class="fil3" points="22816.86,9754.1 23819.06,9754.1 23819.06,10756.29 22816.86,10756.29 "/>
    <polygon class="fil0" points="23819.06,9754.1 24821.24,9754.1 24821.24,10756.29 23819.06,10756.29 "/>
    <polygon class="fil4" points="24821.24,9754.1 25823.43,9754.1 25823.43,10756.29 24821.24,10756.29 "/>
    <polygon class="fil5" points="25823.43,9754.1 26825.62,9754.1 26825.62,10756.29 25823.43,10756.29 "/>
    <polygon class="fil6" points="26825.62,9754.1 27827.8,9754.1 27827.8,10756.29 26825.62,10756.29 "/>
    <polygon class="fil7" points="27827.8,9754.1 28829.99,9754.1 28829.99,10756.29 27827.8,10756.29 "/>
    <polygon class="fil8 str0" points="14981.6,9754.1 15801.55,9754.1 15801.55,10756.29 14975.24,10756.29 "/>
    <polygon class="fil0" points="15801.55,9754.1 16803.74,9754.1 16803.74,10756.29 15801.55,10756.29 "/>
    <polygon class="fil4" points="16803.74,9754.1 17805.93,9754.1 17805.93,10756.29 16803.74,10756.29 "/>
    <polygon class="fil5" points="17805.93,9754.1 18808.11,9754.1 18808.11,10756.29 17805.93,10756.29 "/>
    <polygon class="fil6" points="18808.11,9754.1 19810.3,9754.1 19810.3,10756.29 18808.11,10756.29 "/>
    <polygon class="fil7" points="19810.3,9754.1 20812.49,9754.1 20812.49,10756.29 19810.3,10756.29 "/>
   </g>
  </g>
  <g id="_776835752">
   <g style="clip-path:url(#id0)">
    <image x="7790.53" y="8868.98" width="14382.15" height="1287.16" xlink:href="AUTORZY APLIKACJI_Images\AUTORZY APLIKACJI_ImgID1.png"/>
   </g>
  </g>
  <path class="fil9" d="M8279.29 8996.92l201.13 0 403.71 1048.98 -207.7 0 -81.81 -216.22 -430.01 0 -83.77 216.22 -207.7 0 406.15 -1048.98zm100.81 278.81l-142.2 361.1 283.67 0 -141.47 -361.1z"/>
  <path id="1" class="fil9" d="M9031.93 8996.92l200.16 0 0 678.62c0,58.44 5.11,99.84 15.34,123.94 10.22,24.35 27.03,43.59 50.64,58.2 23.62,14.36 52.11,21.67 85.23,21.67 35.3,0 65.5,-8.04 91.07,-24.35 25.56,-16.07 43.09,-36.52 52.83,-61.6 9.74,-24.84 14.61,-72.57 14.61,-142.94l0 -653.54 200.16 0 0 625.3c0,105.68 -5.85,178.72 -17.78,219.63 -11.93,40.91 -34.58,80.35 -68.18,118.34 -33.36,37.98 -72.07,66.23 -115.9,84.49 -43.59,18.26 -94.48,27.52 -152.43,27.52 -75.97,0 -142.2,-17.53 -198.45,-52.35 -56.49,-35.07 -96.67,-78.65 -121.01,-131.25 -24.11,-52.59 -36.29,-141.22 -36.29,-266.38l0 -625.3z"/>
  <polygon id="2" class="fil9" points="9872.23,8996.92 10452.24,8996.92 10452.24,9194.15 10260.85,9194.15 10260.85,10045.9 10057.77,10045.9 10057.77,9194.15 9872.23,9194.15 "/>
  <path id="3" class="fil9" d="M11082.65 8970.63c148.29,0 275.88,53.81 382.53,161.19 106.89,107.38 160.22,238.38 160.22,392.76 0,153.16 -52.6,282.69 -158.03,388.62 -105.19,105.92 -233.02,159 -383.26,159 -157.54,0 -288.3,-54.55 -392.27,-163.39 -104.22,-108.84 -156.33,-238.14 -156.33,-387.89 0,-100.07 24.35,-192.36 72.81,-276.61 48.46,-84 115.17,-150.72 199.91,-199.9 84.98,-49.19 176.53,-73.78 274.42,-73.78zm-2.92 195.77c-96.67,0 -178,33.84 -243.74,101.29 -65.99,67.45 -98.86,153.16 -98.86,257.37 0,115.91 41.39,207.71 124.42,275.15 64.53,52.84 138.31,79.14 221.83,79.14 94.23,0 174.58,-34.33 240.81,-102.76 66.48,-68.42 99.59,-152.67 99.59,-252.99 0,-99.83 -33.35,-184.32 -100.32,-253.48 -66.71,-69.15 -148.04,-103.72 -243.73,-103.72z"/>
  <path id="4" class="fil9" d="M11828.23 8996.92l212.08 0c115.91,0 198.69,10.23 247.88,30.93 49.43,20.69 88.88,55.27 118.83,103.24 29.95,47.97 45.04,104.7 45.04,170.45 0,68.9 -16.56,126.61 -49.43,172.88 -33.11,46.5 -82.79,81.57 -149.26,105.19l247.63 466.29 -218.17 0 -235.7 -444.13 -20.21 0 0 444.13 -198.69 0 0 -1048.98zm198.69 410.54l63.31 0c64.28,0 108.35,-8.28 132.7,-25.08 24.11,-16.81 36.28,-44.56 36.28,-83.52 0,-22.89 -6.08,-42.86 -18.01,-59.9 -11.94,-17.05 -28.01,-29.22 -48.22,-36.53 -19.96,-7.55 -56.97,-11.2 -110.79,-11.2l-55.27 0 0 216.23z"/>
  <polygon id="5" class="fil9" points="12606.92,8996.92 13242.44,8996.92 12867.95,9853.05 13217.61,9853.05 13217.61,10045.9 12576.24,10045.9 12948.79,9194.15 12606.92,9194.15 "/>
  <polygon id="6" class="fil9" points="13317.68,8996.92 13531.22,8996.92 13726.02,9373.61 13920.82,8996.92 14134.36,8996.92 13826.83,9591.54 13826.83,10045.9 13625.21,10045.9 13625.21,9591.54 "/>
  <path id="7" class="fil9" d="M15028.47 8996.92l201.13 0 403.71 1048.98 -207.7 0 -81.81 -216.22 -430.01 0 -83.77 216.22 -207.7 0 406.15 -1048.98zm100.81 278.81l-142.2 361.1 283.67 0 -141.47 -361.1z"/>
  <path id="8" class="fil9" d="M15786.96 8996.92l212.08 0c114.69,0 197.23,10.47 247.88,31.66 50.65,21.18 90.82,55.51 120.04,102.75 29.22,47.24 43.83,103.98 43.83,170.21 0,73.29 -19.23,134.16 -57.71,182.62 -38.22,48.45 -90.33,82.3 -156.32,101.29 -38.72,10.96 -109.09,16.32 -211.11,16.32l0 444.13 -198.69 0 0 -1048.98zm198.69 410.54l64.04 0c50.4,0 85.22,-3.66 104.95,-10.72 19.72,-7.3 35.06,-18.99 46.5,-35.55 11.2,-16.56 16.8,-36.52 16.8,-60.14 0,-40.66 -15.82,-70.37 -47.48,-88.88 -22.89,-13.88 -65.74,-20.94 -128.08,-20.94l-56.73 0 0 216.23z"/>
  <polygon id="9" class="fil9" points="16605.1,8996.92 16803.79,8996.92 16803.79,9855.97 17097.45,9855.97 17097.45,10045.9 16605.1,10045.9 "/>
  <polygon id="10" class="fil9" points="17234.78,8996.92 17433.47,8996.92 17433.47,10045.9 17234.78,10045.9 "/>
  <polygon id="11" class="fil9" points="17659.68,8996.92 17861.29,8996.92 17861.29,9359.73 18145.21,8996.92 18386.03,8996.92 18019.57,9465.16 18421.58,10045.9 18184.66,10045.9 17861.29,9578.63 17861.29,10045.9 17659.68,10045.9 "/>
  <path id="12" class="fil9" d="M18884.94 8996.92l201.13 0 403.71 1048.98 -207.7 0 -81.81 -216.22 -430.01 0 -83.77 216.22 -207.7 0 406.15 -1048.98zm100.81 278.81l-142.2 361.1 283.67 0 -141.47 -361.1z"/>
  <path id="13" class="fil9" d="M20609.13 9181.01l-140.01 132.94c-95.21,-100.32 -202.1,-150.48 -321.17,-150.48 -100.32,0 -185.06,34.34 -253.72,102.76 -68.91,68.42 -103.24,152.67 -103.24,252.99 0,69.88 15.34,131.97 45.77,186.03 30.44,54.3 73.54,96.91 129.06,127.84 55.76,30.92 117.6,46.26 185.78,46.26 57.95,0 111.04,-10.71 159,-32.39 48.22,-21.67 101.06,-61.11 158.52,-118.09l135.63 141.71c-77.43,75.73 -150.73,128.33 -219.64,157.54 -68.9,29.47 -147.8,44.08 -236.19,44.08 -163.14,0 -296.82,-51.62 -400.79,-155.11 -103.97,-103.24 -155.84,-235.95 -155.84,-397.38 0,-104.71 23.62,-197.48 71.11,-278.8 47.23,-81.33 114.92,-146.59 203.31,-196.02 88.15,-49.43 183.11,-74.26 285.14,-74.26 86.44,0 169.71,18.26 250.07,54.78 80.11,36.53 149.26,88.39 207.21,155.6z"/>
  <path id="14" class="fil9" d="M21044.25 8996.92l200.16 0 0 695.91c0,110.79 -8.77,188.47 -26.3,233.27 -17.53,44.56 -46.51,80.11 -86.69,106.41 -40.42,26.54 -88.63,39.69 -145.12,39.69 -114.93,0 -213.06,-50.65 -294.14,-151.94l143.42 -135.14c31.65,36.28 58.68,60.38 80.84,72.8 22.4,12.42 43.83,18.51 64.77,18.51 21.18,0 37.01,-9.01 47.48,-27.03 10.47,-18.02 15.58,-57.71 15.58,-119.07l0 -733.41z"/>
  <polygon id="15" class="fil9" points="21470.86,8996.92 21669.55,8996.92 21669.55,10045.9 21470.86,10045.9 "/>
  <path id="16" class="fil9" d="M21978.31 9251.13c30.92,0 57.22,10.96 79.13,32.87 21.67,21.92 32.63,48.22 32.63,79.14 0,30.68 -10.96,56.73 -32.63,78.65 -21.91,21.91 -48.21,32.87 -79.13,32.87 -30.93,0 -57.23,-10.71 -79.14,-32.38 -21.67,-21.68 -32.63,-47.97 -32.63,-79.14 0,-30.92 10.96,-57.22 32.63,-79.14 21.91,-21.91 48.21,-32.87 79.14,-32.87zm0 590.23c30.92,0 57.22,10.72 79.13,32.39 21.67,21.67 32.63,47.97 32.63,78.89 0,31.17 -10.96,57.47 -32.63,79.38 -21.91,21.92 -48.21,32.87 -79.13,32.87 -30.93,0 -57.23,-10.95 -79.14,-32.87 -21.67,-21.91 -32.63,-48.21 -32.63,-79.38 0,-30.92 10.96,-57.22 32.63,-78.89 21.91,-21.67 48.21,-32.39 79.14,-32.39z"/>
 </g>
</svg>
