<?xml version="1.0" encoding="UTF-8"?>
<!DOCTYPE svg PUBLIC "-//W3C//DTD SVG 1.1//EN" "http://www.w3.org/Graphics/SVG/1.1/DTD/svg11.dtd">
<!-- Creator: CorelDRAW SE -->
<svg xmlns="http://www.w3.org/2000/svg" xml:space="preserve" width="210mm" height="297mm" version="1.1" style="shape-rendering:geometricPrecision; text-rendering:geometricPrecision; image-rendering:optimizeQuality; fill-rule:evenodd; clip-rule:evenodd"
viewBox="0 0 21000 29700"
 xmlns:xlink="http://www.w3.org/1999/xlink">
 <defs>
  <style type="text/css">
   <![CDATA[
    .str0 {stroke:#4F90C9;stroke-width:20;stroke-miterlimit:22.9256;stroke-opacity:0.870588}
    .fil0 {fill:#B2B3B3;fill-opacity:0.870588}
    .fil5 {fill:#F19215;fill-opacity:0.870588}
    .fil4 {fill:#D2D829;fill-opacity:0.870588}
    .fil2 {fill:#724794;fill-opacity:0.870588}
    .fil8 {fill:#4F90C9;fill-opacity:0.870588}
    .fil1 {fill:#2482C0;fill-opacity:0.870588}
    .fil7 {fill:#CB1982;fill-opacity:0.870588}
    .fil3 {fill:#D41981;fill-opacity:0.870588}
    .fil6 {fill:#E02A3E;fill-opacity:0.870588}
   ]]>
  </style>
 </defs>
 <g id="Warstwa_x0020_1">
  <metadata id="CorelCorpID_0Corel-Layer"/>
  <polygon class="fil0" points="17401.1,7638.23 16317.02,7638.23 16317.02,5950.9 17395.07,5950.9 "/>
  <polygon class="fil1" points="16317.02,7638.23 14629.68,7638.23 14629.68,5950.9 16317.02,5950.9 "/>
  <polygon class="fil2" points="14629.68,7638.23 12942.35,7638.23 12942.35,5950.9 14629.68,5950.9 "/>
  <polygon class="fil3" points="12942.35,7638.23 11255.02,7638.23 11255.02,5950.9 12942.35,5950.9 "/>
  <polygon class="fil0" points="11255.02,7638.23 9567.69,7638.23 9567.69,5950.9 11255.02,5950.9 "/>
  <polygon class="fil4" points="9567.69,7638.23 7880.36,7638.23 7880.36,5950.9 9567.69,5950.9 "/>
  <polygon class="fil5" points="7880.36,7638.23 6193.03,7638.23 6193.03,5950.9 7880.36,5950.9 "/>
  <polygon class="fil6" points="6193.03,7638.23 4505.7,7638.23 4505.7,5950.9 6193.03,5950.9 "/>
  <polygon class="fil7" points="4505.7,7638.23 2818.37,7638.23 2818.37,5950.9 4505.7,5950.9 "/>
  <polygon class="fil1" points="8958.45,7638.23 10013.78,7638.23 10013.78,8693.56 8958.45,8693.56 "/>
  <polygon class="fil2" points="10013.78,7638.23 11069.11,7638.23 11069.11,8693.56 10013.78,8693.56 "/>
  <polygon class="fil3" points="11069.11,7638.23 12124.45,7638.23 12124.45,8693.56 11069.11,8693.56 "/>
  <polygon class="fil0" points="12124.45,7638.23 13179.78,7638.23 13179.78,8693.56 12124.45,8693.56 "/>
  <polygon class="fil4" points="13179.78,7638.23 14235.11,7638.23 14235.11,8693.56 13179.78,8693.56 "/>
  <polygon class="fil5" points="14235.11,7638.23 15290.44,7638.23 15290.44,8693.56 14235.11,8693.56 "/>
  <polygon class="fil6" points="15290.44,7638.23 16345.77,7638.23 16345.77,8693.56 15290.44,8693.56 "/>
  <polygon class="fil7" points="16345.77,7638.23 17401.1,7638.23 17401.1,8693.56 16345.77,8693.56 "/>
  <polygon class="fil8 str0" points="2818.37,7638.23 3681.8,7638.23 3681.8,8693.56 2811.67,8693.56 "/>
  <polygon class="fil0" points="3681.8,7638.23 4737.13,7638.23 4737.13,8693.56 3681.8,8693.56 "/>
  <polygon class="fil4" points="4737.13,7638.23 5792.46,7638.23 5792.46,8693.56 4737.13,8693.56 "/>
  <polygon class="fil5" points="5792.46,7638.23 6847.79,7638.23 6847.79,8693.56 5792.46,8693.56 "/>
  <polygon class="fil6" points="6847.79,7638.23 7903.12,7638.23 7903.12,8693.56 6847.79,8693.56 "/>
  <polygon class="fil7" points="7903.12,7638.23 8958.45,7638.23 8958.45,8693.56 7903.12,8693.56 "/>
 </g>
</svg>
