<?xml version="1.0" encoding="UTF-8"?>
<!DOCTYPE svg PUBLIC "-//W3C//DTD SVG 1.1//EN" "http://www.w3.org/Graphics/SVG/1.1/DTD/svg11.dtd">
<!-- Creator: CorelDRAW SE -->
<svg xmlns="http://www.w3.org/2000/svg" xml:space="preserve" width="210mm" height="297mm" version="1.1" style="shape-rendering:geometricPrecision; text-rendering:geometricPrecision; image-rendering:optimizeQuality; fill-rule:evenodd; clip-rule:evenodd"
viewBox="0 0 21000 29700"
 xmlns:xlink="http://www.w3.org/1999/xlink">
 <defs>
  <style type="text/css">
   <![CDATA[
    .fil3 {fill:#2B2A29;fill-rule:nonzero}
    .fil1 {fill:#2B2A29;fill-rule:nonzero}
    .fil2 {fill:#009846;fill-rule:nonzero}
    .fil0 {fill:#221E1F;fill-rule:nonzero}
   ]]>
  </style>
 </defs>
 <g id="Warstwa_x0020_1">
  <metadata id="CorelCorpID_0Corel-Layer"/>
  <path class="fil0" d="M14481.89 13313.32c-140.44,0 -254.25,-113.81 -254.25,-254.22 0,-140.41 113.81,-254.22 254.25,-254.22 409.19,0 742.09,-332.92 742.09,-742.16l0 -4657.36c0,-409.22 -332.9,-742.16 -742.09,-742.16l-3972.71 0c-140.44,0 -254.27,-113.83 -254.27,-254.22 0,-140.41 113.83,-254.24 254.27,-254.24l3972.71 0c689.57,0 1250.62,561.02 1250.62,1250.62l0 4657.36c0,689.62 -561.05,1250.6 -1250.62,1250.6z"/>
  <path class="fil0" d="M10482.07 13294.04l-3972.66 0c-689.65,0 -1250.69,-560.98 -1250.69,-1250.57l0 -4657.38c0,-689.6 561.04,-1250.6 1250.69,-1250.6 140.45,0 254.26,113.81 254.26,254.22 0,140.41 -113.81,254.22 -254.26,254.22 -409.27,0 -742.16,332.94 -742.16,742.16l0 4657.38c0,409.21 332.89,742.15 742.16,742.15l3972.66 0c140.43,0 254.24,113.79 254.24,254.2 0,140.41 -113.81,254.22 -254.24,254.22z"/>
  <path class="fil1" d="M10482.07 13294.04c-1968.31,0 -3569.67,-1601.29 -3569.67,-3569.63 0,-1968.33 1601.36,-3569.67 3569.67,-3569.67 1968.36,0 3569.72,1601.34 3569.72,3569.67 0,1968.34 -1601.36,3569.63 -3569.72,3569.63zm0 -6630.84l0 0c-1687.93,0 -3061.14,1373.26 -3061.14,3061.21 0,1687.96 1373.21,3061.21 3061.14,3061.21 1687.98,0 3061.21,-1373.25 3061.21,-3061.21 0,-1687.95 -1373.23,-3061.21 -3061.21,-3061.21z"/>
  <path class="fil2" d="M10482.07 12136.97c-1330.33,0 -2412.62,-1082.27 -2412.62,-2412.56 0,-1330.28 1082.29,-2412.58 2412.62,-2412.58 1330.31,0 2412.6,1082.3 2412.6,2412.58 0,1330.29 -1082.29,2412.56 -2412.6,2412.56zm0 -4316.67l0 0c-1049.95,0 -1904.09,854.21 -1904.09,1904.11 0,1049.91 854.14,1904.12 1904.09,1904.12 1049.93,0 1904.07,-854.21 1904.07,-1904.12 0,-1049.9 -854.14,-1904.11 -1904.07,-1904.11z"/>
  <path class="fil3" d="M5516.72 15192.03l467.84 -1183.29 181.46 0 467.83 1183.29 -193.12 0 -112.15 -296.77 -541.24 0 -114.04 296.77 -156.58 0zm325.12 -432.86l432.55 0 -217.06 -565.19 -215.49 565.19z"/>
  <path id="1" class="fil3" d="M6854.07 15192.03l0 -1183.29 385.92 0c137.67,0 235.97,12.29 294.56,36.86 119.72,51.67 179.58,151.22 179.58,298.66 0,123.81 -48.21,221.16 -144.92,292.04 -96.72,70.57 -230.3,105.85 -400.1,105.85l-133.58 0 0 449.88 -181.46 0zm181.46 -585.97l113.73 0c246.68,0 370.17,-86.01 370.17,-258.34 0,-72.46 -23.31,-124.44 -69.94,-155.94 -46.62,-31.19 -124.12,-46.94 -232.5,-46.94l-181.46 0 0 461.22z"/>
  <polygon id="2" class="fil3" points="7940.01,15192.03 7940.01,14008.74 8121.47,14008.74 8121.47,14588.73 8617.66,14008.74 8801.96,14008.74 8322.78,14566.68 8892.69,15192.03 8675.31,15192.03 8121.47,14588.73 8121.47,15192.03 "/>
  <path id="3" class="fil3" d="M8978.7 14598.81c0,-188.71 46.31,-339.61 139.24,-451.77 92.63,-112.47 217.38,-168.54 373.96,-168.54 156.57,0 281.33,56.07 373.95,168.54 92.94,112.16 139.25,263.06 139.25,451.77 0,189.65 -46.31,340.87 -139.25,453.03 -92.62,112.47 -217.38,168.54 -373.95,168.54 -156.58,0 -281.33,-56.07 -373.96,-168.54 -92.93,-112.16 -139.24,-263.38 -139.24,-453.03zm194.69 0c0,155.31 27.41,275.03 82.54,359.15 54.82,84.11 133.58,126.33 235.65,126.33 101.76,0 180.52,-42.22 235.97,-126.33 55.13,-84.12 82.85,-203.84 82.85,-359.15 0,-154.68 -27.72,-274.09 -82.85,-358.2 -55.45,-84.12 -134.21,-126.02 -235.97,-126.02 -102.07,0 -180.83,41.9 -235.65,126.02 -55.13,84.11 -82.54,203.52 -82.54,358.2z"/>
  <polygon id="4" class="fil3" points="10252.4,15192.03 10075.98,14008.74 10231.3,14008.74 10375.27,14991.66 10377.48,14991.66 10549.17,14258.25 10724.65,14258.25 10892.57,14980.64 10895.4,14980.64 11046.94,14008.74 11185.55,14008.74 10990.54,15192.03 10793.01,15192.03 10629.51,14497.37 10627.62,14497.37 10463.17,15192.03 "/>
  <polygon id="5" class="fil3" points="11358.51,15192.03 11358.51,15055.93 11676.07,15055.93 11676.07,14144.84 11358.51,14144.84 11358.51,14008.74 12175.09,14008.74 12175.09,14144.84 11857.53,14144.84 11857.53,15055.93 12175.09,15055.93 12175.09,15192.03 "/>
  <path id="6" class="fil3" d="M13404.7 15154.54c-121.93,43.79 -236.6,65.84 -344.03,65.84 -188.39,0 -339.93,-56.39 -454.92,-169.49 -114.99,-112.78 -172.64,-261.48 -172.64,-445.46 0,-186.51 57.34,-337.73 171.7,-453.35 114.36,-115.62 264,-173.58 448.62,-173.58 104.59,0 216.74,17.64 336.14,53.24l0 166.97c-121.6,-56.08 -235.33,-84.12 -341.18,-84.12 -122.24,0 -223.05,45.05 -302.13,134.84 -79.07,89.79 -118.45,204.15 -118.45,343.39 0,140.2 44.42,255.19 133.57,344.34 89.16,89.16 203.83,133.89 343.71,133.89 84.75,0 184.62,-22.05 299.61,-66.47l0 149.96z"/>
  <polygon id="7" class="fil3" points="13568.2,15192.03 13568.2,15055.93 14311.38,14144.84 13613.57,14144.84 13613.57,14008.74 14517.1,14008.74 14517.1,14144.84 13774.87,15055.93 14524.66,15055.93 14524.66,15192.03 "/>
  <polygon id="8" class="fil3" points="14814.82,15192.03 14814.82,14008.74 15616.28,14008.74 15616.28,14144.84 14996.28,14144.84 14996.28,14503.98 15521.76,14503.98 15521.76,14640.08 14996.28,14640.08 14996.28,15055.93 15657.86,15055.93 15657.86,15192.03 "/>
 </g>
</svg>
