<?xml version="1.0" encoding="UTF-8"?>
<!DOCTYPE svg PUBLIC "-//W3C//DTD SVG 1.1//EN" "http://www.w3.org/Graphics/SVG/1.1/DTD/svg11.dtd">
<!-- Creator: CorelDRAW SE -->
<svg xmlns="http://www.w3.org/2000/svg" xml:space="preserve" width="210mm" height="297mm" version="1.1" style="shape-rendering:geometricPrecision; text-rendering:geometricPrecision; image-rendering:optimizeQuality; fill-rule:evenodd; clip-rule:evenodd"
viewBox="0 0 21000 29700"
 xmlns:xlink="http://www.w3.org/1999/xlink">
 <defs>
  <style type="text/css">
   <![CDATA[
    .str4 {stroke:#2B2A29;stroke-width:50;stroke-miterlimit:22.9256}
    .str0 {stroke:black;stroke-width:50;stroke-miterlimit:22.9256}
    .str1 {stroke:black;stroke-width:25;stroke-miterlimit:22.9256}
    .str3 {stroke:#2B2A29;stroke-width:20;stroke-miterlimit:22.9256}
    .str5 {stroke:#2B2A29;stroke-width:20;stroke-miterlimit:22.9256}
    .str2 {stroke:#E12E41;stroke-width:20;stroke-miterlimit:22.9256}
    .fil2 {fill:none}
    .fil11 {fill:#2B2A29}
    .fil13 {fill:#2B2A29}
    .fil6 {fill:#2B2A29}
    .fil16 {fill:#F19215}
    .fil10 {fill:#D2D829}
    .fil5 {fill:#D2D829}
    .fil14 {fill:#00A0E3}
    .fil7 {fill:#009846}
    .fil0 {fill:#009846}
    .fil4 {fill:#25201F}
    .fil15 {fill:#D41981}
    .fil12 {fill:#FEFEFE}
    .fil3 {fill:white}
    .fil8 {fill:#2B2A29;fill-rule:nonzero}
    .fil9 {fill:#E12E41;fill-rule:nonzero}
    .fil1 {fill:url(#id0)}
   ]]>
  </style>
  <linearGradient id="id0" gradientUnits="userSpaceOnUse" x1="3994.57" y1="12809.57" x2="20083.83" y2="12809.57">
   <stop offset="0" style="stop-opacity:1; stop-color:#E31E24"/>
   <stop offset="0.129412" style="stop-opacity:1; stop-color:#EC6B1E"/>
   <stop offset="0.258824" style="stop-opacity:1; stop-color:#F8E80B"/>
   <stop offset="0.380392" style="stop-opacity:1; stop-color:#95C240"/>
   <stop offset="0.478431" style="stop-opacity:1; stop-color:#108AC6"/>
   <stop offset="0.580392" style="stop-opacity:1; stop-color:#595DA5"/>
   <stop offset="0.709804" style="stop-opacity:1; stop-color:#852D84"/>
   <stop offset="0.858824" style="stop-opacity:1; stop-color:#DC1481"/>
   <stop offset="1" style="stop-opacity:1; stop-color:#E13324"/>
  </linearGradient>
 </defs>
 <g id="Warstwa_x0020_1">
  <metadata id="CorelCorpID_0Corel-Layer"/>
  <path class="fil0" d="M10383.71 12892.62c18.42,-290.26 -36.83,-587.1 -55.25,-883.96 -9.21,-336.42 9.21,3265.32 9.21,2922.3 9.21,-329.83 -230.22,-5640.09 285.46,-5574.13 1814.13,244.07 1622.86,783.32 1641.28,2162.01 9.21,963.1 200.48,3682.58 -1042.7,3946.45 -561.74,112.14 -966.93,164.92 -884.04,-534.33 73.67,-606.88 18.42,-1385.29 46.04,-2038.34z"/>
  <g id="_762892144">
   <path class="fil1" d="M3994.57 12127.41c455.39,-109.26 935.14,-797.73 2505.12,-1024.47 1095.18,-158.17 2764.5,-5.43 3678.43,676.54 1100.77,821.41 1028.52,1166.89 2621.95,1514.66 1568.71,342.4 3060.25,489.04 4466.71,-408.6 576.91,-368.22 1903.34,-1650.06 2551.66,-1634.32l265.39 65.98c-1168.01,683.53 -1381.02,1340.46 -2383.57,2151.31 -1507.12,1218.91 -3265.33,1231.99 -5102.95,964.55 -1867.37,-271.77 -1893.36,-667.21 -3206.09,-1530.19 -835.64,-549.34 -2759.05,-391.86 -3607.82,55.51 -760.57,400.88 -525.22,492.2 -1542.08,842.04l-246.75 -1673.01z"/>
  </g>
  <path class="fil2" d="M4117.95 12963.91c762.8,-112.55 1245.26,-1472.31 4414.41,-1080.08 2313.01,286.28 1239.68,2154.02 6539.76,2154.02 2658.67,0 3712.01,-2720.65 5011.71,-2720.65"/>
  <path class="fil3" d="M1291.89 10633.65c-13.57,71.34 127.15,233.5 40.47,313.57 -57.52,54.58 -71.23,65.23 -161.95,55.1 -38.17,-2.87 -26.21,-9.33 -54.17,-14.48 -109.13,-32.58 -224.72,-166.19 -282.25,-255.83 -55.91,-82.41 -74.73,-142.73 -88.72,-253.47 -12.63,-80.68 -8.34,-229.65 35.74,-296.41 9.54,-17.31 15.59,-26.25 25.13,-43.56 45.83,-70.95 167.72,-185.44 247.96,-222.32 158.85,-80.98 229.41,-89.13 393.25,-87.73 43.28,1.73 88.17,10.69 122.17,6.9 53.49,-0.55 60.88,20.58 98.78,46.28 37.1,22.08 51.48,26.47 86.7,64.15 39.38,44.35 101.07,140.65 119.76,212.39 14.65,53.66 16.14,216.52 4.58,260.85 -9.81,40.14 -24.59,70.01 -47.84,97.96 -11.29,21.5 -19.89,31.01 -32.79,45.27 -59.27,58.77 -200.12,124.35 -293.53,126.21 -34.81,0.18 -81.31,-16.01 -110.07,-24.78 -23.66,-9.9 -76.75,-43.6 -103.22,-30.1zm1849.31 -602.35l-114.11 -42.86c-152,-68.56 -393.8,-155.04 -548.76,-188.78 -119.35,-30.3 -339.77,-57.04 -463.55,-71.17l-192.46 -21.58c-33.06,-4.01 -67.07,-0.22 -100.94,-7.84 -134.8,-15.47 -262.08,-21.23 -408.44,7.62 -129.29,21.26 -313.41,85.11 -414.35,149.37 -56.44,35.37 -103.61,76.26 -140.57,114.86 -84.27,90.91 -133.05,196.68 -137.07,322.82 -3.36,141.17 48.26,300.45 108.75,427.38 28.09,65.84 47.85,118.36 99.06,167.66 20.97,21.89 42.07,32.36 65.59,53.68 85.88,60.54 207.12,147.35 319.21,145.12 34.8,-0.18 60.21,5.54 95.02,5.37 146.09,-6.03 284.92,-44.59 413.14,-118.74 29.03,-14.07 58.06,-28.14 87.09,-42.2 32.52,-22.44 47.97,-37.27 78.75,-55.53 133.46,-86.7 170.41,-125.31 303.06,-215.62 105.23,-69.03 200.39,-147.18 305.62,-216.2 56.44,-35.37 102.68,-68.45 155.76,-106.86 131.84,-93.94 358.03,-269.65 489.2,-306.5z"/>
  <path class="fil4 str0" d="M3141.2 10031.3c-131.17,36.85 -357.36,212.56 -489.2,306.5 -53.08,38.41 -99.32,71.49 -155.76,106.86 -105.23,69.02 -200.39,147.17 -305.62,216.2 -132.65,90.31 -169.6,128.92 -303.06,215.62 -30.78,18.26 -46.23,33.09 -78.75,55.53 -29.03,14.06 -58.06,28.13 -87.09,42.2 -128.22,74.15 -267.05,112.71 -413.14,118.74 -34.81,0.17 -60.22,-5.55 -95.02,-5.37 -112.09,2.23 -233.33,-84.58 -319.21,-145.12 -23.52,-21.32 -44.62,-31.79 -65.59,-53.68 -51.21,-49.3 -70.97,-101.82 -99.06,-167.66 -60.49,-126.93 -112.11,-286.21 -108.75,-427.38 4.02,-126.14 52.8,-231.91 137.07,-322.82 36.96,-38.6 84.13,-79.49 140.57,-114.86 100.94,-64.26 285.06,-128.11 414.35,-149.37 146.36,-28.85 273.64,-23.09 408.44,-7.62 33.87,7.62 67.88,3.83 100.94,7.84l192.46 21.58c123.78,14.13 344.2,40.87 463.55,71.17 154.96,33.74 396.76,120.22 548.76,188.78l114.11 42.86zm-2000.02 -373.58c-40.05,12.73 -80.91,21.85 -117.6,37.63 -98.92,37.25 -194.61,88.96 -271.89,163.13 -44.61,40.31 -101.33,98.51 -126.46,142.07 -17.33,30.43 -24.32,47.17 -40.05,84.84 -97.29,260.81 9.98,525.32 125.17,765.29 57.13,123.88 134.81,159.69 221.5,223.84 9.28,5.52 15.19,8 21.91,14.09 36.29,18.47 60.62,43.41 124.86,67.03 14.38,4.38 33.87,7.62 48.25,12 16.94,3.82 32.12,11.81 46.5,16.2 31.32,8.19 180.77,5.21 223.24,3.32 66.26,-3.39 172.84,-42.35 236.81,-68.01 215.84,-89.9 194.74,-100.37 370.94,-211.79 48.78,-33.66 87.49,-76.45 157.64,-122.47 100.93,-64.26 233.71,-166 338.14,-238.63 55.64,-38.98 112.89,-70.73 167.73,-113.33 28.22,-17.68 58.19,-39.55 80.5,-59.71 29.97,-21.86 52.28,-42.02 83.05,-60.27 141.93,-84.8 196.22,-153.84 377.66,-205.71 52.82,-15.58 60.61,-28.7 45.96,-82.36 -15.46,-57.28 -105.37,-63.78 -165.32,-92.16l-268.67 -110.85c-329.69,-120 -444.2,-128.61 -782.35,-178.41l-417.18 -43.56c-158.59,-13.96 -320.95,3.29 -480.34,57.82z"/>
  <g>
   <path class="fil3" d="M982.22 10471.22c0,0 0,0 0,0l0 0zm17.73 -281.01c57.25,-31.75 98.11,31.24 112.76,84.9 10.62,35.59 -1.47,53.47 -11.95,78.58 -19.22,46.03 -76.21,54.95 -105.77,42.57 -37.23,-10.67 -64.92,-38.65 -72.05,-82.6 -13.31,-95.71 9.54,-89.42 77.01,-123.45zm402.52 -226.43c29.97,-21.87 63.03,-17.86 96.09,-13.85 34.81,-0.18 48.12,23.42 63.04,54.25 52.15,113.61 -31.31,208.14 -113.29,177.09 -117.47,-45.91 -107.4,-180.99 -45.84,-217.49zm-235.87 60.21c22.17,-8.74 31.58,-14.64 55.23,-4.73 79.44,31.61 127.83,176.43 24.61,218.43 -117.73,49.04 -221.5,-151.73 -79.84,-213.7zm653.32 176.84c-3.63,-52.32 -71.24,-151.1 -103.09,-185.74l-117.07 -80.15c-55.64,-33.13 -33.6,-30.45 -63.3,-31.42 -8.47,-1.9 -16.13,-0.2 -24.6,-2.1 -149.45,2.98 -247.83,-5.43 -403.33,78.6 -105.09,57.6 -188.42,140.71 -252.39,238.48 -70.02,106.7 -55.22,365.28 29.32,467.87 20.97,21.89 39.25,55.76 61.03,81.26 57.79,66.81 146.77,153.23 241.92,147.18 39.92,-1.31 76.74,-28.51 84.67,-53.05 13.98,-33.48 -3.36,-75.15 -22.45,-112.64 -28.22,-54.43 -61.56,-179.83 -8.61,-206.82 59.81,-32.32 156.71,29.56 197.3,43.27 66.8,23.05 153.76,-7.73 219.48,-37.58 72.57,-35.16 106.17,-76.82 139.09,-133.5 29.43,-48.32 27.14,-142.69 22.03,-213.66z"/>
  </g>
  <path class="fil4 str1" d="M1819.92 10200.83c5.11,70.97 7.4,165.34 -22.03,213.66 -32.92,56.68 -66.52,98.34 -139.09,133.5 -65.72,29.85 -152.68,60.63 -219.48,37.58 -40.59,-13.71 -137.49,-75.59 -197.3,-43.27 -52.95,26.99 -19.61,152.39 8.61,206.82 19.09,37.49 36.43,79.16 22.45,112.64 -7.93,24.54 -44.75,51.74 -84.67,53.05 -95.15,6.05 -184.13,-80.37 -241.92,-147.18 -21.78,-25.5 -40.06,-59.37 -61.03,-81.26 -84.54,-102.59 -99.34,-361.17 -29.32,-467.87 63.97,-97.77 147.3,-180.88 252.39,-238.48 155.5,-84.03 253.88,-75.62 403.33,-78.6 8.47,1.9 16.13,0.2 24.6,2.1 29.7,0.97 7.66,-1.71 63.3,31.42l117.07 80.15c31.85,34.64 99.46,133.42 103.09,185.74zm-528.03 432.82c26.47,-13.5 79.56,20.2 103.22,30.1 28.76,8.77 75.26,24.96 110.07,24.78 93.41,-1.86 234.26,-67.44 293.53,-126.21 12.9,-14.26 21.5,-23.77 32.79,-45.27 23.25,-27.95 38.03,-57.82 47.84,-97.96 11.56,-44.33 10.07,-207.19 -4.58,-260.85 -18.69,-71.74 -80.38,-168.04 -119.76,-212.39 -35.22,-37.68 -49.6,-42.07 -86.7,-64.15 -37.9,-25.7 -45.29,-46.83 -98.78,-46.28 -34,3.79 -78.89,-5.17 -122.17,-6.9 -163.84,-1.4 -234.4,6.75 -393.25,87.73 -80.24,36.88 -202.13,151.37 -247.96,222.32 -9.54,17.31 -15.59,26.25 -25.13,43.56 -44.08,66.76 -48.37,215.73 -35.74,296.41 13.99,110.74 32.81,171.06 88.72,253.47 57.53,89.64 173.12,223.25 282.25,255.83 27.96,5.15 16,11.61 54.17,14.48 90.72,10.13 104.43,-0.52 161.95,-55.1 86.68,-80.07 -54.04,-242.23 -40.47,-313.57z"/>
  <path class="fil4" d="M1426.53 10083.65c-3.63,-52.32 58.33,-50.96 75.26,-47.15 5.78,13.89 7.39,21.12 5.51,36.72 -40.18,24.15 -44.48,28.9 -80.77,10.43zm-24.06 -119.87c-61.56,36.5 -71.63,171.58 45.84,217.49 81.98,31.05 165.44,-63.48 113.29,-177.09 -14.92,-30.83 -28.23,-54.43 -63.04,-54.25 -33.06,-4.01 -66.12,-8.02 -96.09,13.85z"/>
  <path class="fil4" d="M1167.95 10126.16c21.36,-12.36 39.37,-27.76 61.15,-2.25 -5.51,35.38 -47.18,40.88 -61.15,2.25zm-1.35 -102.17c-141.66,61.97 -37.89,262.74 79.84,213.7 103.22,-42 54.83,-186.82 -24.61,-218.43 -23.65,-9.91 -33.06,-4.01 -55.23,4.73z"/>
  <path class="fil4" d="M995.65 10267.07c16.13,0.2 19.49,3.25 30.51,4.58 17.74,7.43 10.21,-2.28 20.16,18.28 -18.95,23.2 -38.44,19.96 -56.18,12.53 -0.67,-15.03 0.27,-22.83 5.51,-35.39zm4.3 -76.86c-67.47,34.03 -90.32,27.74 -77.01,123.45 7.13,43.95 34.82,71.93 72.05,82.6 29.56,12.38 86.55,3.46 105.77,-42.57 10.48,-25.11 22.57,-42.99 11.95,-78.58 -14.65,-53.66 -55.51,-116.65 -112.76,-84.9z"/>
  <path class="fil5" d="M1993.64 9962.27c26.71,13.6 29.88,10.1 59.45,-7.67 1.39,-11.48 0.2,-16.81 -4.05,-27.03 -12.47,-2.81 -58.07,-3.81 -55.4,34.7z"/>
  <path class="fil3" d="M1803.32 9993.56c10.29,28.43 40.95,24.39 45.01,-1.66 -16.03,-18.77 -29.28,-7.43 -45.01,1.66z"/>
  <path class="fil3" d="M990.14 10302.46c17.74,7.43 37.23,10.67 56.18,-12.53 -9.95,-20.56 -2.42,-10.85 -20.16,-18.28 -11.02,-1.33 -14.38,-4.38 -30.51,-4.58 -5.24,12.56 -6.18,20.36 -5.51,35.39z"/>
  <path class="fil3" d="M1049.96 10558.58c-8.2,-24.74 -13.44,-12.18 -42.33,-9.53 -4.17,-6.66 -13.44,-12.18 -18.42,-22.46 5.52,36.72 27.42,50.81 60.75,31.99z"/>
  <path class="fil0" d="M9857.6 12892.63c-18.42,-290.25 36.83,-587.09 55.25,-883.95 9.21,-336.42 -9.21,3265.32 -9.21,2922.3 -9.21,-329.83 230.22,-5640.1 -285.46,-5574.14 -1814.13,244.08 -1622.86,783.33 -1641.28,2162.02 -9.21,963.1 -200.48,3682.58 1042.7,3946.45 561.74,112.13 966.93,164.91 884.04,-534.33 -73.67,-606.88 -18.42,-1385.29 -46.04,-2038.35z"/>
  <path class="fil6" d="M6025.45 9397.07c-248.64,145.13 -138.13,5475.19 -147.34,6187.63 0,1128.02 -119.71,2427.55 -64.46,3535.78 73.67,1312.73 -497.27,1728.31 939.29,1471.04 1141.88,-211.09 718.28,-1840.45 764.32,-2737.59 82.88,-2143.9 -36.83,-4380.15 55.26,-6550.44 18.41,-494.74 147.34,-1022.47 -165.76,-1457.85 -211.8,-296.84 -1187.93,-567.31 -1381.31,-448.57z"/>
  <path class="fil7" d="M5453.03 12926.5c-18.42,-290.25 36.84,-587.09 55.26,-883.95 9.21,-336.42 -9.21,3265.32 -9.21,2922.3 -9.21,-329.83 230.22,-5640.1 -285.47,-5574.14 -1814.12,244.08 -1622.86,783.33 -1641.28,2162.02 -9.21,963.1 -200.47,3682.58 1042.71,3946.45 561.73,112.13 966.92,164.91 884.04,-534.33 -73.68,-606.88 -18.42,-1385.29 -46.05,-2038.35z"/>
  <path class="fil0" d="M6025.45 9397.07c-248.63,145.13 -138.13,5475.19 -147.34,6187.63 0,1128.02 -119.71,2427.55 -64.46,3535.78 73.67,1312.72 -497.27,1728.32 939.29,1471.05 1141.89,-211.09 718.28,-1840.46 764.33,-2737.6 82.87,-2143.89 -36.84,-4380.15 55.25,-6550.43 18.41,-494.75 147.34,-1022.48 -165.77,-1457.85 -211.79,-296.86 -1187.92,-567.32 -1381.3,-448.58z"/>
  <path class="fil6" d="M14367.35 5668.33l-9.2 -665.37 -55.26 448.93 18.42 8.01c-128.92,-224.46 -1160.3,-240.49 -1408.93,-224.46 -580.15,32.07 -368.35,384.79 -349.93,1266.6 18.41,673.39 36.83,1354.79 0,2028.17 -46.05,777.6 36.83,1378.83 18.41,2108.33 -36.83,1250.57 -101.29,2853.87 -46.04,4080.39 18.42,304.62 -138.13,937.92 340.72,865.78 359.14,-56.12 1169.51,104.21 1418.15,24.04l-64.47 0 36.84 -10084.71 64.46 0 36.83 144.29z"/>
  <path class="fil0" d="M16374.86 9566.9l-128.93 7.12 55.26 -35.59 -239.43 -420 -92.09 49.83 36.84 -99.66c-847.2,519.66 -1547.07,1039.32 -1307.64,2235.25 0,7.12 9.21,1623.06 9.21,1708.48 -46.05,541.02 -174.97,1146.1 9.21,1644.41 193.38,519.66 294.68,804.41 847.2,932.54 819.58,185.09 847.2,185.09 755.11,-640.68 -82.87,-889.83 322.31,-2263.73 -764.32,-2562.71 0,-7.12 570.94,-391.53 616.98,-448.48 174.97,-199.32 211.81,-583.73 248.64,-847.12 46.04,-334.57 -18.42,-583.73 9.21,-939.66 18.42,-291.86 55.25,-697.63 64.46,-982.37l-119.71 640.68 0 -242.04z"/>
  <path class="fil0" d="M14304.7 5437.27c6.57,7.3 12.14,14.84 16.61,22.63l-18.41 -8.01 1.8 -14.62zm-1723.84 5201.27c-36.83,1250.57 -101.3,2853.87 -46.04,4080.39 18.42,304.62 -138.13,937.92 340.72,865.77 359.14,-56.12 1169.51,104.22 1418.15,24.05l-64.47 0 36.84 -10084.71 64.46 0 36.84 144.3 -9.21 -665.38 -53.45 434.31c-182.97,-202.9 -1152.31,-217.31 -1392.32,-201.83 -580.16,32.07 -368.35,384.79 -349.93,1266.6 18.41,673.38 36.83,1354.78 0,2028.17 -46.05,777.6 36.83,1378.83 18.41,2108.33z"/>
  <path class="fil8" d="M8729.61 16082.88l-68.59 57.49c-49.5,-42.94 -103.71,-75.51 -162.65,-97.7 -58.94,-22.2 -116.44,-33.3 -172.5,-33.3 -69.62,0 -135.95,15.1 -198.8,45.3 -63.04,30.21 -111.91,71.14 -146.42,122.99 -34.71,51.67 -51.96,106.26 -51.96,163.93 0,58.95 17.87,114.98 53.61,168.29 35.72,53.13 85.22,94.79 148.27,125.17 63.25,30.39 132.25,45.67 207.41,45.67 91.18,0 168.4,-22.74 231.44,-68.05 63.05,-45.3 100.43,-104.25 112.13,-176.47l-282.17 0 0 -76.42 381.98 0c-0.82,120.99 -41.49,217.24 -121.99,288.37 -80.7,71.14 -188.31,106.8 -323.44,106.8 -163.88,0 -293.67,-49.31 -389.37,-148.1 -73.51,-76.05 -110.28,-163.92 -110.28,-263.81 0,-74.04 21.15,-143.18 63.26,-207.22 42.3,-63.86 100.21,-113.89 173.74,-149.92 73.71,-36.02 156.89,-54.03 249.71,-54.03 75.16,0 146.02,12.01 212.34,35.84 66.34,24.01 131.23,62.22 194.28,115.17zm904.44 652.42l122.61 -783.78 18.27 0 360 642.96 357.75 -642.96 13.34 0 127.32 783.78 -85.63 0 -88.72 -561.09 -313.38 561.09 -23.2 0 -316.47 -565.46 -84.81 565.46 -87.08 0zm1881.56 -783.78l88.72 0 0 783.78 -88.72 0 0 -783.78zm1015.35 783.78l0 -783.78 19.1 0 588.37 599.48 0 -599.48 88.72 0 0 783.78 -20.13 0 -584.88 -594.21 0 594.21 -91.18 0zm1634.71 0l0 -783.78 19.1 0 588.37 599.48 0 -599.48 88.72 0 0 783.78 -20.13 0 -584.88 -594.21 0 594.21 -91.18 0zm1564.48 -783.78l101.24 0 228.78 327.3 224.87 -327.3 100.63 0 -280.94 408.99 0 374.79 -88.71 0 0 -374.79 -285.87 -408.99zm-7433.85 1280.83c133.89,0 246.02,39.66 336.17,118.8 90.16,79.14 135.34,176.66 135.34,292.37 0,114.81 -44.98,212.14 -134.93,292.01 -90.15,79.87 -199.81,119.9 -329.39,119.9 -131.03,0 -241.72,-39.84 -331.87,-119.35 -90.15,-79.51 -135.34,-175.75 -135.34,-288.73 0,-75.33 20.53,-145.01 61.61,-209.41 41.07,-64.23 97.14,-114.62 168.2,-151.01 70.85,-36.39 147.65,-54.58 230.21,-54.58zm3.9 76.41c-65.31,0 -127.33,15.1 -186.06,45.3 -58.53,30.2 -104.32,70.78 -137.38,121.9 -32.86,51.31 -49.3,108.25 -49.3,171.2 0,92.97 36.35,171.57 109.26,235.61 72.9,64.22 160.8,96.25 263.48,96.25 68.79,0 132.25,-14.74 190.57,-44.21 58.53,-29.48 104.12,-69.87 136.77,-120.99 32.66,-51.13 49.09,-107.89 49.09,-170.48 0,-62.22 -16.43,-118.44 -49.09,-168.65 -32.65,-50.22 -78.85,-90.43 -138.2,-120.63 -59.35,-30.2 -122.4,-45.3 -189.14,-45.3zm1028.21 580.38l75.16 -40.03c52.99,86.6 114.19,129.91 183.59,129.91 29.78,0 57.72,-6.19 83.79,-18.38 26.09,-12.19 46.01,-28.75 59.56,-49.3 13.75,-20.56 20.54,-42.4 20.54,-65.5 0,-26.2 -10.07,-51.85 -30.2,-77.14 -27.72,-34.75 -78.24,-76.78 -151.96,-125.72 -73.93,-49.49 -119.93,-85.15 -138,-107.16 -31.43,-36.94 -47.04,-76.96 -47.04,-119.9 0,-34.02 9.25,-65.13 27.74,-93.15 18.47,-28.02 44.56,-50.03 78.23,-66.22 33.68,-16.2 70.03,-24.2 109.47,-24.2 41.89,0 81.11,9.09 117.46,27.47 36.35,18.19 74.96,51.85 115.61,100.79l-72.28 48.58c-33.47,-39.12 -62.02,-64.95 -85.64,-77.32 -23.61,-12.56 -49.28,-18.74 -77,-18.74 -35.94,0 -65.31,9.64 -88.1,28.74 -22.8,19.29 -34.31,42.76 -34.31,70.96 0,16.92 4.11,33.48 12.13,49.49 8,16.01 22.79,33.29 44.14,52.21 11.5,9.83 49.92,36.02 114.81,78.23 76.8,50.22 129.58,94.79 158.13,133.73 28.54,39.11 42.91,78.41 42.91,117.89 0,56.77 -24.44,106.25 -73.11,148.1 -48.87,42.03 -108.22,62.95 -178.05,62.95 -53.8,0 -102.67,-12.74 -146.42,-38.21 -43.74,-25.47 -84.2,-68.22 -121.16,-128.08zm316.87 -863.11l129.18 0 -177.02 163.74 -82.97 0 130.81 -163.74zm867.01 225.97l176.61 0c98.37,0 165.11,3.64 200.03,10.73 52.78,10.55 95.49,33.3 128.35,68.41 33.06,34.93 49.49,78.05 49.49,129.17 0,42.58 -11.3,80.06 -34.1,112.26 -22.58,32.38 -55.02,56.76 -97.33,73.32 -42.1,16.56 -100.43,24.93 -174.77,25.29l318.52 364.6 -108.63 0 -318.53 -364.6 -50.93 0 0 364.6 -88.71 0 0 -783.78zm88.71 76.41l0 266.36 152.79 1.09c59.35,0 103.1,-4.92 131.43,-14.92 28.35,-10.01 50.53,-25.84 66.54,-47.67 15.82,-21.83 23.83,-46.21 23.83,-73.32 0,-26.2 -8.01,-50.21 -24.23,-71.68 -16.02,-21.47 -37.17,-36.75 -63.46,-46.03 -26.09,-9.28 -69.62,-13.83 -130.41,-13.83l-156.49 0zm1550.25 -96.06c133.89,0 246.02,39.66 336.18,118.8 90.15,79.14 135.33,176.66 135.33,292.37 0,114.81 -44.98,212.14 -134.93,292.01 -90.15,79.87 -199.81,119.9 -329.39,119.9 -131.03,0 -241.71,-39.84 -331.87,-119.35 -90.15,-79.51 -135.33,-175.75 -135.33,-288.73 0,-75.33 20.53,-145.01 61.6,-209.41 41.08,-64.23 97.14,-114.62 168.2,-151.01 70.85,-36.39 147.65,-54.58 230.21,-54.58zm3.9 76.41c-65.31,0 -127.33,15.1 -186.06,45.3 -58.53,30.2 -104.32,70.78 -137.38,121.9 -32.86,51.31 -49.29,108.25 -49.29,171.2 0,92.97 36.34,171.57 109.25,235.61 72.9,64.22 160.8,96.25 263.48,96.25 68.79,0 132.25,-14.74 190.57,-44.21 58.53,-29.48 104.12,-69.87 136.77,-120.99 32.66,-51.13 49.09,-107.89 49.09,-170.48 0,-62.22 -16.43,-118.44 -49.09,-168.65 -32.65,-50.22 -78.85,-90.43 -138.2,-120.63 -59.35,-30.2 -122.39,-45.3 -189.14,-45.3zm1119.39 727.02l0 -783.78 183.59 0c132.26,0 228.37,9.46 288.13,28.2 85.84,26.74 152.99,72.77 201.26,138.63 48.25,65.68 72.49,143.91 72.49,234.88 0,78.6 -19.1,147.55 -57.5,207.23 -38.2,59.67 -88.1,103.88 -149.1,132.27 -61.19,28.38 -147.03,42.57 -257.31,42.57l-281.56 0zm85.02 -74.23l102.07 0c121.99,0 206.39,-6.73 253.62,-20.2 66.33,-19.28 118.7,-53.67 156.69,-103.52 37.99,-50.03 56.89,-110.98 56.89,-183.03 0,-75.5 -20.54,-140.27 -61.81,-193.76 -41.08,-53.67 -98.58,-90.42 -172.09,-110.25 -55.26,-14.92 -146.22,-22.38 -272.94,-22.38l-62.43 0 0 633.14zm1307.3 -709.55l506.43 0 0 76.41 -417.71 0 0 245.61 414.01 0 0 76.42 -414.01 0 0 308.93 414.01 0 0 76.41 -502.73 0 0 -783.78zm1133.57 0l89.95 0 0 294.01 354.66 -294.01 119.11 0 -426.33 351.5 459.6 432.28 -118.08 0 -388.96 -366.06 0 366.06 -89.95 0 0 -783.78zm-7925.95 1300.48l89.95 0 0 294.01 354.66 -294.01 119.11 0 -426.33 351.5 459.6 432.28 -118.08 0 -388.96 -366.06 0 366.06 -89.95 0 0 -783.78zm1355.25 0l88.71 0 0 473.4c0,56.03 1.23,91.15 3.7,104.97 4.32,30.93 14.58,56.77 30.6,77.51 16.02,20.74 40.66,38.21 73.93,52.21 33.27,14.01 66.74,21.11 100.63,21.11 29.16,0 57.29,-5.46 84.2,-16.56 26.7,-10.91 49.28,-26.2 67.35,-45.85 18.07,-19.46 31.22,-43.11 39.65,-70.77 5.94,-20.01 9.03,-60.77 9.03,-122.62l0 -473.4 88.72 0 0 473.03c0,70.05 -7.82,126.63 -23.21,169.75 -15.41,43.12 -46.42,80.78 -92.63,112.62 -46.4,32.02 -102.47,48.03 -168.39,48.03 -71.47,0 -132.66,-15.1 -183.59,-45.3 -51.14,-30.2 -85.23,-70.05 -102.48,-119.9 -10.88,-30.56 -16.22,-85.51 -16.22,-165.2l0 -473.03zm1426.71 0l88.72 0 0 707.37 341.31 0 0 76.41 -430.03 0 0 -783.78zm1105.12 76.41l0 -76.41 484.23 0 0 76.41 -197.15 0 0 707.37 -89.93 0 0 -707.37 -197.15 0zm1239.42 -76.41l88.71 0 0 473.4c0,56.03 1.23,91.15 3.7,104.97 4.31,30.93 14.57,56.77 30.6,77.51 16.02,20.74 40.66,38.21 73.92,52.21 33.28,14.01 66.74,21.11 100.63,21.11 29.17,0 57.3,-5.46 84.2,-16.56 26.7,-10.91 49.29,-26.2 67.36,-45.85 18.07,-19.46 31.22,-43.11 39.64,-70.77 5.95,-20.01 9.03,-60.77 9.03,-122.62l0 -473.4 88.72 0 0 473.03c0,70.05 -7.81,126.63 -23.21,169.75 -15.4,43.12 -46.41,80.78 -92.62,112.62 -46.41,32.02 -102.47,48.03 -168.39,48.03 -71.47,0 -132.66,-15.1 -183.59,-45.3 -51.15,-30.2 -85.24,-70.05 -102.48,-119.9 -10.88,-30.56 -16.22,-85.51 -16.22,-165.2l0 -473.03zm1431.63 0l176.61 0c98.37,0 165.11,3.64 200.03,10.73 52.78,10.55 95.49,33.3 128.35,68.41 33.06,34.93 49.49,78.05 49.49,129.17 0,42.58 -11.3,80.06 -34.1,112.26 -22.58,32.38 -55.02,56.76 -97.33,73.32 -42.1,16.56 -100.43,24.93 -174.77,25.29l318.52 364.6 -108.63 0 -318.53 -364.6 -50.93 0 0 364.6 -88.71 0 0 -783.78zm88.71 76.41l0 266.36 152.79 1.09c59.35,0 103.1,-4.92 131.43,-14.92 28.35,-10.01 50.53,-25.84 66.54,-47.67 15.82,-21.83 23.83,-46.21 23.83,-73.32 0,-26.2 -8.01,-50.21 -24.23,-71.68 -16.02,-21.47 -37.17,-36.75 -63.46,-46.03 -26.09,-9.28 -69.62,-13.83 -130.41,-13.83l-156.49 0zm1208.82 -76.41l101.24 0 228.78 327.3 224.87 -327.3 100.63 0 -280.94 408.99 0 374.79 -88.71 0 0 -374.79 -285.87 -408.99z"/>
  <path class="fil9 str2" d="M7770.63 19837.43l58.77 0 119.56 424.08 168.5 -424.08 10.12 0 164.32 424.08 120.23 -424.08 58.91 0 -167.02 588.95 -9.43 0 -172.54 -445.41 -176.99 445.41 -8.36 0 -166.07 -588.95zm1644.54 478.76l49.34 -30.08c34.78,65.08 74.95,97.62 120.51,97.62 19.54,0 37.88,-4.65 55,-13.81 17.12,-9.16 30.19,-21.6 39.08,-37.05 9.04,-15.45 13.49,-31.85 13.49,-49.22 0,-19.68 -6.6,-38.96 -19.82,-57.96 -18.2,-26.11 -51.36,-57.7 -99.75,-94.47 -48.52,-37.19 -78.72,-63.98 -90.58,-80.52 -20.62,-27.76 -30.87,-57.83 -30.87,-90.1 0,-25.56 6.07,-48.94 18.2,-69.99 12.13,-21.06 29.25,-37.6 51.36,-49.77 22.1,-12.16 45.96,-18.18 71.85,-18.18 27.5,0 53.24,6.84 77.1,20.64 23.85,13.68 49.2,38.97 75.88,75.74l-47.44 36.51c-21.97,-29.4 -40.71,-48.81 -56.21,-58.11 -15.5,-9.43 -32.36,-14.08 -50.55,-14.08 -23.59,0 -42.87,7.25 -57.83,21.6 -14.96,14.49 -22.51,32.13 -22.51,53.32 0,12.71 2.7,25.15 7.95,37.18 5.26,12.04 14.97,25.02 28.98,39.24 7.55,7.38 32.76,27.07 75.36,58.79 50.41,37.73 85.05,71.22 103.79,100.48 18.74,29.39 28.18,58.92 28.18,88.59 0,42.65 -16.05,79.84 -47.99,111.28 -32.09,31.58 -71.04,47.3 -116.87,47.3 -35.32,0 -67.41,-9.56 -96.12,-28.7 -28.71,-19.14 -55.26,-51.27 -79.53,-96.25zm208 -648.56l84.78 0 -116.19 123.04 -54.46 0 85.87 -123.04zm670.08 169.8l58.77 0 119.56 424.08 168.5 -424.08 10.12 0 164.32 424.08 120.23 -424.08 58.91 0 -167.02 588.95 -9.43 0 -172.54 -445.41 -176.99 445.41 -8.36 0 -166.07 -588.95zm1248.5 0l58.23 0 0 588.95 -58.23 0 0 -588.95zm638.67 588.95l0 -588.95 120.51 0c86.82,0 149.91,7.11 189.13,21.19 56.35,20.09 100.42,54.68 132.1,104.17 31.67,49.35 47.59,108.14 47.59,176.5 0,59.05 -12.54,110.87 -37.75,155.71 -25.07,44.84 -57.82,78.06 -97.87,99.39 -40.17,21.33 -96.51,31.99 -168.89,31.99l-184.82 0zm55.81 -55.78l67 0c80.06,0 135.47,-5.06 166.48,-15.17 43.53,-14.49 77.91,-40.33 102.85,-77.79 24.93,-37.6 37.34,-83.4 37.34,-137.53 0,-56.74 -13.48,-105.41 -40.58,-145.6 -26.96,-40.33 -64.7,-67.95 -112.96,-82.85 -36.26,-11.21 -95.98,-16.81 -179.15,-16.81l-40.98 0 0 475.75zm994.68 55.78l0 -588.95 12.54 0 386.2 450.46 0 -450.46 58.24 0 0 588.95 -13.22 0 -383.91 -446.5 0 446.5 -59.85 0zm1037.15 -588.95l58.23 0 0 588.95 -58.23 0 0 -588.95zm1179.75 108.68l-45.83 35.68c-25.2,-33.35 -55.53,-58.65 -90.99,-75.87 -35.32,-17.23 -74.13,-25.84 -116.59,-25.84 -46.24,0 -89.11,11.35 -128.61,33.9 -39.49,22.56 -69.95,52.91 -91.65,90.92 -21.71,38 -32.62,80.93 -32.62,128.37 0,71.91 24.25,131.93 72.79,179.91 48.53,48.13 109.72,72.19 183.73,72.19 81.27,0 149.22,-32.27 203.94,-96.8l45.83 35.28c-28.98,37.32 -65.1,66.3 -108.37,86.67 -43.28,20.37 -91.67,30.62 -145.04,30.62 -101.64,0 -181.85,-34.31 -240.49,-102.94 -49.2,-57.83 -73.87,-127.82 -73.87,-209.71 0,-86.13 29.8,-158.73 89.37,-217.51 59.72,-58.93 134.4,-88.32 224.18,-88.32 54.18,0 103.12,10.8 146.79,32.4 43.68,21.74 79.53,52.09 107.43,91.05zm518.98 -108.68l66.46 0 150.16 245.94 147.6 -245.94 66.06 0 -184.41 307.32 0 281.63 -58.23 0 0 -281.63 -187.64 -307.32z"/>
  <path class="fil5" d="M2478.32 9799.66c-119.34,-30.3 -339.76,-57.04 -463.54,-71.16l-192.46 -21.59c-33.06,-4.01 -67.07,-0.21 -100.93,-7.85 -134.81,-15.46 -262.09,-21.23 -408.45,7.64 -129.29,21.25 -313.41,85.1 -414.35,149.37 -56.44,35.36 -103.62,76.24 -140.57,114.85 -84.27,90.91 -133.05,196.68 -137.07,322.82 -3.36,141.18 48.26,300.45 108.74,427.38 28.1,65.85 47.86,118.36 99.07,167.67 20.97,21.88 42.07,32.36 65.59,53.68 85.89,60.53 207.11,147.34 319.21,145.11 34.8,-0.18 60.2,5.54 95.02,5.36 146.09,-6.02 284.92,-44.58 413.14,-118.73 29.03,-14.07 58.06,-28.13 87.08,-42.21 32.52,-22.43 47.98,-37.26 78.76,-55.52 133.46,-86.7 170.41,-125.31 303.06,-215.63 105.24,-69.01 200.38,-147.18 305.62,-216.19 56.44,-35.37 102.68,-68.45 155.76,-106.87 131.84,-93.92 358.03,-269.64 489.2,-306.49l-114.1 -42.86c-152.01,-68.56 -393.81,-155.04 -548.78,-188.78zm-629.99 192.24c-4.06,26.04 -34.73,30.1 -45.01,1.66 15.73,-9.09 28.99,-20.43 45.01,-1.66zm204.77 -37.31c-29.58,17.78 -32.74,21.28 -59.45,7.69 -2.68,-38.52 42.92,-37.52 55.39,-34.71 4.25,10.23 5.44,15.55 4.06,27.02zm-178.34 203.65c14.66,53.66 16.14,216.53 4.57,260.85 -9.8,40.15 -24.58,70.01 -47.83,97.97 -11.29,21.49 -19.89,31 -32.79,45.27 -59.27,58.76 -200.12,124.34 -293.52,126.21 -34.82,0.16 -81.32,-16.03 -110.08,-24.78 -23.66,-9.91 -76.74,-43.61 -103.22,-30.11 -13.57,71.34 127.15,233.51 40.47,313.57 -57.52,54.57 -71.23,65.23 -161.95,55.11 -38.17,-2.88 -26.21,-9.34 -54.17,-14.49 -109.13,-32.58 -224.72,-166.2 -282.25,-255.84 -55.91,-82.4 -74.73,-142.73 -88.71,-253.46 -12.65,-80.68 -8.34,-229.65 35.73,-296.41 9.54,-17.32 15.59,-26.26 25.14,-43.56 45.82,-70.95 167.71,-185.44 247.94,-222.32 158.86,-80.98 229.43,-89.13 393.25,-87.73 43.28,1.73 88.17,10.69 122.18,6.9 53.49,-0.54 60.88,20.57 98.79,46.28 37.09,22.08 51.47,26.46 86.68,64.16 39.39,44.34 101.09,140.64 119.77,212.38z"/>
  <path class="fil10" d="M1819.93 10200.84c-3.64,-52.33 -71.25,-151.11 -103.09,-185.74l-117.08 -80.16c-55.63,-33.13 -33.6,-30.45 -63.3,-31.41 -8.47,-1.92 -16.12,-0.21 -24.6,-2.1 -149.45,2.97 -247.83,-5.44 -403.32,78.59 -105.1,57.6 -188.43,140.71 -252.4,238.47 -70.01,106.71 -55.22,365.29 29.33,467.88 20.96,21.89 39.24,55.76 61.02,81.26 57.79,66.81 146.77,153.23 241.93,147.18 39.9,-1.32 76.73,-28.51 84.67,-53.05 13.97,-33.47 -3.37,-75.15 -22.46,-112.65 -28.23,-54.42 -61.57,-179.81 -8.61,-206.81 59.81,-32.32 156.72,29.56 197.31,43.26 66.8,23.07 153.75,-7.72 219.47,-37.57 72.57,-35.17 106.17,-76.81 139.09,-133.5 29.44,-48.31 27.15,-142.69 22.04,-213.65zm-598.09 -181.59c79.43,31.62 127.82,176.44 24.6,218.44 -117.73,49.03 -221.5,-151.73 -79.84,-213.7 22.18,-8.75 31.58,-14.63 55.24,-4.74zm226.47 162.02c-117.48,-45.91 -107.4,-180.99 -45.85,-217.49 29.98,-21.87 63.04,-17.86 96.1,-13.85 34.81,-0.18 48.11,23.43 63.04,54.25 52.15,113.62 -31.31,208.14 -113.29,177.09zm-347.55 172.41c-19.22,46.04 -76.2,54.97 -105.78,42.58 -37.22,-10.67 -64.91,-38.65 -72.04,-82.61 -13.3,-95.7 9.54,-89.41 77,-123.44 57.26,-31.75 98.12,31.25 112.78,84.9 10.61,35.59 -1.47,53.47 -11.96,78.57zm-93.13 195.37c28.89,-2.66 34.14,-15.2 42.33,9.53 -33.33,18.82 -55.23,4.74 -60.74,-32 4.97,10.28 14.24,15.81 18.41,22.47z"/>
  <path class="fil11 str3" d="M3141.2 10031.3c-131.17,36.85 -357.36,212.57 -489.2,306.49 -53.08,38.42 -99.32,71.5 -155.76,106.87 -105.24,69.01 -200.38,147.18 -305.62,216.19 -132.65,90.32 -169.6,128.93 -303.06,215.63 -30.78,18.26 -46.24,33.09 -78.76,55.52 -29.02,14.08 -58.05,28.14 -87.08,42.21 -128.22,74.15 -267.05,112.71 -413.14,118.73 -34.82,0.18 -60.22,-5.54 -95.02,-5.36 -112.1,2.23 -233.32,-84.58 -319.21,-145.11 -23.52,-21.32 -44.62,-31.8 -65.59,-53.68 -51.21,-49.31 -70.97,-101.82 -99.07,-167.67 -60.48,-126.93 -112.1,-286.2 -108.74,-427.38 4.02,-126.14 52.8,-231.91 137.07,-322.82 36.95,-38.61 84.13,-79.49 140.57,-114.85 100.94,-64.27 285.06,-128.12 414.35,-149.37 146.36,-28.87 273.64,-23.1 408.45,-7.64 33.86,7.64 67.87,3.84 100.93,7.85l192.46 21.59c123.78,14.12 344.2,40.86 463.54,71.16 154.97,33.74 396.77,120.22 548.78,188.78l114.1 42.86zm-2000.02 -373.58c-40.05,12.74 -80.91,21.85 -117.61,37.62 -98.91,37.26 -194.6,88.97 -271.88,163.14 -44.62,40.32 -101.33,98.51 -126.46,142.06 -17.34,30.45 -24.32,47.18 -40.04,84.85 -97.3,260.81 9.96,525.32 125.15,765.29 57.13,123.88 134.81,159.69 221.51,223.85 9.28,5.51 15.18,8 21.91,14.08 36.29,18.47 60.62,43.4 124.86,67.02 14.38,4.4 33.86,7.64 48.26,12.01 16.92,3.81 32.11,11.81 46.5,16.19 31.3,8.2 180.77,5.22 223.23,3.33 66.27,-3.39 172.84,-42.36 236.82,-68 215.83,-89.91 194.73,-100.39 370.93,-211.8 48.78,-33.66 87.49,-76.45 157.64,-122.47 100.93,-64.27 233.71,-165.99 338.14,-238.63 55.63,-38.99 112.9,-70.74 167.72,-113.33 28.22,-17.68 58.2,-39.55 80.51,-59.71 29.97,-21.86 52.29,-42.02 83.05,-60.27 141.92,-84.8 196.23,-153.84 377.66,-205.7 52.81,-15.59 60.61,-28.72 45.96,-82.37 -15.46,-57.28 -105.37,-63.78 -165.32,-92.16l-268.67 -110.85c-329.69,-120 -444.19,-128.61 -782.36,-178.41l-417.17 -43.57c-158.59,-13.95 -320.94,3.29 -480.34,57.83z"/>
  <path class="fil12" d="M3904.91 8261.4c18.63,-31.71 42.95,-41.98 62.85,-58.72 78.65,-55.26 89.88,-48.67 155.91,-70 24.33,-10.27 149.63,-7.14 182.82,-4.46 30.97,-0.55 70.31,-5.24 92.12,0.45 32.4,4.8 70.5,31.04 107.32,42.32 89.45,26.01 110.81,60.51 181.16,101.14l-35.68 -179.85c-30.74,-110.41 -34.26,-174.49 -43.67,-296.28 -9.22,-85.52 -7.86,-171.93 1.08,-260.34 10.52,-92.66 9.52,-172.71 39.79,-272.51 9.61,-35.05 38.79,-113.53 60.26,-134.52 14.53,-11.5 46.29,-14.18 69.38,6.48 7.43,7.59 13.77,36.5 25.63,50.57 8.07,15.07 31.15,35.72 47.6,46.66 43.31,30.59 8.7,22.56 47.74,37.07 38.25,16.63 59.76,41.53 122.19,57.5 75.22,18.31 186.3,13.73 252.97,-0.11 18.96,-5.02 37.13,-7.93 62.1,-10.72 102.86,-10.04 98.88,-45.32 172.08,6.04 -13.71,55.26 -36.8,34.6 -78.5,45.66 -60.67,16.07 -232.41,36.72 -290.56,36.83 -130.68,2.12 -319.72,-77.82 -399.74,-175.17 -15.14,49.9 -36.88,135.97 -42.22,187.1 -3.27,63.97 147.22,146.47 230.66,170.26 74.44,20.43 162.77,21.88 231.66,11.28 191.49,-27.8 181.96,-94.11 250.24,-66.31 14.23,7.7 30.67,18.64 22.79,39.86l-85.45 55.14c-66.82,23.44 -51.5,9.83 -99.37,28.24 -39.49,14.29 -54.51,8.71 -101.43,15.41 -75.68,10.49 -155.49,-4.69 -240.52,-24.23 -91.03,-21.78 -147.63,-71.79 -214.82,-120.91 -17.59,157.63 -1.99,317.94 19.13,463.41 3.34,27.79 13.47,55.7 20.6,82.5l36.62 168.12c5.55,31.04 13.47,55.71 16.02,85.63 10.83,127.16 29.73,30.37 -24.57,121.24 -7.73,11.61 -20.04,26.34 -31.57,38.96 -13.1,16.86 -43.74,44.09 -62.06,56.6 -24.48,19.87 -51.81,29.02 -74.71,44.65l-77.56 33.94c-42.5,13.17 -130.83,11.72 -181.39,9.82 -74.74,-1.23 -118.51,-3.02 -198.96,-25.69 -85.66,-27.01 -128.01,-23.44 -192.68,-88.53 -45.38,-43.43 -70.53,-76.92 -72.32,-154.84 -3.19,-37.4 18.44,-67.99 37.06,-99.69zm150.1 874.23c12.95,-7.25 27.48,-18.75 40.43,-26.01 10.74,-10.49 5.37,-5.24 18.32,-12.5l180.21 -126.14c21.47,-20.99 51.32,-46.11 75.8,-65.98l307.47 -247.83c28.27,-20.87 46.75,-42.98 72.01,-64.97 23.69,-17.75 49.11,-49.34 74.38,-71.33 23.05,-25.23 44.67,-55.82 69.94,-77.81 23.05,-25.23 45.95,-40.86 72.8,-67.1 52.11,-48.22 96.64,-94.44 146.53,-145.9 23.84,-27.35 37.88,-55.93 65.52,-84.29 110.53,-113.42 123.11,-193.24 181.98,-287.24 37.25,-63.41 73.52,-160.98 107.13,-232.98 64.21,-145.13 100.12,-315.26 91.8,-458.38 -7.83,-126.04 -12.11,-142.12 -47.58,-239.8 -4.27,-16.08 -14.56,-34.39 -20.41,-46.22 -58.22,-91.66 -73.26,-143.12 -180.62,-231.32 -67.82,-56.6 -117.15,-89.42 -208.97,-109.07 -47.41,-10.39 -166.71,-11.28 -210.63,-3.47 -69.67,12.72 -121.33,32.15 -180.72,63.18 -33.49,16.52 -34.13,9.04 -86.72,40.19 -218.61,119.11 -171.57,56.93 -391.2,289.13 -16.89,17.86 -92.66,129.72 -133.4,174.93 -70.73,79.93 -188.44,313.81 -227.23,427.35 -11.98,41.41 -20.96,83.95 -35.15,122.13 -14.99,40.3 -32.97,79.48 -41.95,122.02 -14.8,76.58 -22.8,153.27 -33.02,226.73 -11.65,68.1 -3.85,148.26 -4.12,213.34 -2.45,107.73 49.1,382.81 84.41,490.09 26.61,84.74 17.11,64.31 49.24,134.19 7.28,17.19 7.13,26.8 16.62,47.23 35.47,97.68 51.61,127.82 117.55,207.87 11.86,14.06 16.93,28.02 29.58,39.96z"/>
  <path class="fil12" d="M2301.9 7231.52c37.63,14.12 47.23,18.79 45.08,59.76 40.2,2.76 295.23,252.95 341.06,317.28 18.12,29.82 32.35,49.35 51.38,71.22 73.54,98.82 122.19,193.92 164.23,302.61l26.31 80.03c15.23,66.23 12.84,65.06 36.17,126.83 9.43,17.2 7.78,20.59 10.76,38.85 15.07,78.75 10.3,198.26 -10.03,276.58 -28.92,120.35 -161.64,240.58 -247.31,270.28 -244.13,87 -568.37,-100.27 -767.88,-226.81l-238.14 -187.36c-11.09,-13.79 -79.74,-55.62 -79.74,-55.62 5.12,-22.71 10.08,-32.9 23.15,-47.55 35.14,-41.7 58.8,-4.98 177.22,-77.55 56.72,-31.2 146.94,-100.7 199.03,-146.76 42.34,-38.2 80.04,-91.26 117.74,-144.32 95.83,-129.79 134.84,-283.04 123.89,-431.2 -5.22,-31.95 -31.95,-141.59 -28.49,-160.9 3.64,-31.84 36.05,-49.67 55.57,-65.37zm1020.46 2273.83c-2.98,-18.25 -0.42,-29.61 -1.74,-51.26l-26.04 -348.76c-4.24,-107.09 -31.91,-330.61 -31.85,-397.79 2.15,-40.97 2.47,-66.01 -5.14,-99.13 -16.73,-75.35 -27.42,-181.38 -45.96,-240.82 -19.28,-64 -24.26,-175.65 -43.55,-239.65l-50.65 -188.5c-21.52,-77.7 -47.58,-115.59 -75.71,-179.7 -42.2,-96.16 -140.57,-265.88 -213.7,-335.09 -50.05,-49.57 -96.04,-101.37 -154.94,-151.05 -118.7,-91.4 -295.29,-185.78 -437.72,-246.72 -59.22,-24.63 -151.77,-23.48 -213.71,-24.23 -46.65,-1.7 -55.5,-1.81 -97.51,11.35 -104.12,24.92 -171.93,42.32 -260.07,138.04 -35.89,37.14 -119.24,135.19 -145.53,177.01 -70.6,108.45 -127.21,316.15 -134.55,447.01 -1.56,58.05 9.56,193.69 27.35,248.57 3.72,22.82 2.07,26.21 7.45,45.64 12.41,35.45 27.39,59.54 32.61,91.49 22.1,94.78 97.46,177.68 135.02,258.98 14.07,32.06 39.55,52.86 61.72,80.46 190.1,231.18 475.05,407.72 723.28,562.18 64.6,44.06 164.6,88.54 236.56,123.58 170.31,82.91 299.67,158.5 483.95,218.81 79.32,26.01 156.08,63.38 230.43,99.58z"/>
  <path class="fil13 str4" d="M4055.01 9135.63c-12.65,-11.94 -17.72,-25.9 -29.58,-39.96 -65.94,-80.05 -82.08,-110.19 -117.55,-207.87 -9.49,-20.43 -9.34,-30.04 -16.62,-47.23 -32.13,-69.88 -22.63,-49.45 -49.24,-134.19 -35.31,-107.28 -86.86,-382.36 -84.41,-490.09 0.27,-65.08 -7.53,-145.24 4.12,-213.34 10.22,-73.46 18.22,-150.15 33.02,-226.73 8.98,-42.54 26.96,-81.72 41.95,-122.02 14.19,-38.18 23.17,-80.72 35.15,-122.13 38.79,-113.54 156.5,-347.42 227.23,-427.35 40.74,-45.21 116.51,-157.07 133.4,-174.93 219.63,-232.2 172.59,-170.02 391.2,-289.13 52.59,-31.15 53.23,-23.67 86.72,-40.19 59.39,-31.03 111.05,-50.46 180.72,-63.18 43.92,-7.81 163.22,-6.92 210.63,3.47 91.82,19.65 141.15,52.47 208.97,109.07 107.36,88.2 122.4,139.66 180.62,231.32 5.85,11.83 16.14,30.14 20.41,46.22 35.47,97.68 39.75,113.76 47.58,239.8 8.32,143.12 -27.59,313.25 -91.8,458.38 -33.61,72 -69.88,169.57 -107.13,232.98 -58.87,94 -71.45,173.82 -181.98,287.24 -27.64,28.36 -41.68,56.94 -65.52,84.29 -49.89,51.46 -94.42,97.68 -146.53,145.9 -26.85,26.24 -49.75,41.87 -72.8,67.1 -25.27,21.99 -46.89,52.58 -69.94,77.81 -25.27,21.99 -50.69,53.58 -74.38,71.33 -25.26,21.99 -43.74,44.1 -72.01,64.97l-307.47 247.83c-24.48,19.87 -54.33,44.99 -75.8,65.98l-180.21 126.14c-12.95,7.26 -7.58,2.01 -18.32,12.5 -12.95,7.26 -27.48,18.76 -40.43,26.01zm-20.17 81.83c35.7,-13.28 96.82,-58.16 129.67,-82.16 74.86,-54.25 141.2,-94.77 209.42,-158.74l163.61 -127.49c35.06,-20.76 51.32,-46.1 83.38,-67.98 100.92,-78.37 151.45,-122.35 239.71,-212.67l227.86 -226.73c26.84,-26.23 49.26,-58.94 77.53,-79.82 30.63,-27.23 43.25,-61.17 71.67,-91.65 25.42,-31.59 47.68,-54.7 73.1,-86.29 21.62,-30.59 49.41,-68.55 64.24,-99.25 45.28,-94.22 70.85,-135.41 115.5,-237.11 76.67,-169.47 88.5,-201.28 135.93,-384.03 20.96,-83.95 16.01,-153.39 14.22,-231.32 -0.82,-43.76 -10.32,-64.19 -15.72,-104.82 -5.4,-40.64 -11.74,-69.55 -27.88,-99.7 -6.49,-19.31 -4.12,-25.67 -16.62,-47.22 -52.21,-89.42 -68.2,-129.17 -146.95,-211.56 -12.65,-11.94 -71.46,-65.19 -84.9,-75.02 -88.21,-56.94 -113.51,-80.83 -236.94,-107.4 -104.62,-22 -225.65,-9.05 -324.23,17.07 -18.17,2.9 -30.33,8.04 -49.29,13.06l-139.96 63.86c-140.25,83.05 -216.08,103.14 -342.72,232.31l-57.48 53.47c-39.01,31.37 -120.29,158.07 -156.6,209.76 -100.25,131.73 -59.51,86.52 -130.85,204.85 -38.03,65.53 -86.62,177.84 -113.43,249.96 -15.77,42.42 -21.75,86.07 -36.73,126.37 -76.8,224.95 -30.09,136.09 -56.08,251.96 -46.79,190.23 -15.93,484.18 28.91,657.77 5.7,21.44 6.34,28.92 8.25,51.36 11.75,69.55 51.49,183.31 76.18,245.6 13.77,36.51 26.27,58.06 37.04,93.44l46.84 94.67c38.28,62.52 24.36,35.62 61.37,83.18 15.5,22.66 48.08,63.74 71.95,82.27z"/>
  <path class="fil6 str0" d="M3322.36 9505.35c-74.35,-36.2 -151.11,-73.57 -230.43,-99.58 -184.28,-60.31 -313.64,-135.9 -483.95,-218.81 -71.96,-35.04 -171.96,-79.52 -236.56,-123.58 -248.23,-154.46 -533.18,-331 -723.28,-562.18 -22.17,-27.6 -47.65,-48.4 -61.72,-80.46 -37.56,-81.3 -112.92,-164.2 -135.02,-258.98 -5.22,-31.95 -20.2,-56.04 -32.61,-91.49 -5.38,-19.43 -3.73,-22.82 -7.45,-45.64 -17.79,-54.88 -28.91,-190.52 -27.35,-248.57 7.34,-130.86 63.95,-338.56 134.55,-447.01 26.29,-41.82 109.64,-139.87 145.53,-177.01 88.14,-95.72 155.95,-113.12 260.07,-138.04 42.01,-13.16 50.86,-13.05 97.51,-11.35 61.94,0.75 154.49,-0.4 213.71,24.23 142.43,60.94 319.02,155.32 437.72,246.72 58.9,49.68 104.89,101.48 154.94,151.05 73.13,69.21 171.5,238.93 213.7,335.09 28.13,64.11 54.19,102 75.71,179.7l50.65 188.5c19.29,64 24.27,175.65 43.55,239.65 18.54,59.44 29.23,165.47 45.96,240.82 7.61,33.12 7.29,58.16 5.14,99.13 -0.06,67.18 27.61,290.7 31.85,397.79l26.04 348.76c1.32,21.65 -1.24,33.01 1.74,51.26zm14 99.24c3.99,64.95 54.1,47.34 72.13,22.51 27.03,-37.25 10.73,-82.99 6.26,-110.38 -5.96,-36.51 -7.13,-70.68 -9.04,-109.42l-24.53 -217.79c-7.29,-58.16 -2.58,-110.49 -12.43,-157.29l-21.32 -279.24c-9.52,-71.85 2.7,-145.72 -17.33,-214.29l-21.94 -107.3c-5.63,-61.56 -18.95,-89.05 -31.79,-154.11 -3.72,-22.82 -8.52,-25.15 -8.94,-54.77 -4.24,-107.08 -64.98,-262.68 -81.37,-363.09 -4.64,-14.86 -15.72,-28.66 -23.5,-49.25 -12.42,-35.45 -20.94,-60.6 -42.2,-96.16 -113.93,-210.9 -81.26,-186.59 -236.61,-367.26 -22.17,-27.59 -51.54,-58.69 -80.16,-85.23 -144.76,-129.29 -279.09,-194.69 -458.99,-282.28 -103.14,-50.21 -249.36,-66.79 -353.32,-54.39 -20.1,-1.38 -39.45,1.8 -56.4,6.15 -21.01,6.58 -27.46,7.64 -50.86,13.05 -87.17,20.57 -117.93,35 -193.43,86.47 -87.66,58.15 -100.14,89.88 -167.11,166.5 -84.09,93.49 -89.8,99.11 -146.92,222.54 -57.12,123.42 -91.4,346.19 -83.43,476.1 9.03,109.42 6.64,108.26 35.03,214.5 10.59,51.37 4.3,39.91 31.69,99.45l18.7 46.91c29.46,85.76 39.22,77.91 76.2,142.13 134.61,229.37 196.23,255.17 392.69,430.64 121.68,109.65 200.09,143.62 314.9,224.72 36.73,22.09 84.7,45.44 123.83,68.69 77.34,54.46 169.39,90.87 252.44,139.71 43.17,21.02 91.15,44.37 131.92,64.23 180.07,75.06 158.15,89.6 397.76,164.24l268.07 113.71z"/>
  <path class="fil12" d="M2490.71 7995.6c-10.83,28.33 -41.76,55.29 -69.05,50.4 -36.14,-4.99 -31.6,-44.79 -27.97,-76.63 11.32,-65.91 61.17,-125.66 105.91,-162.69 75.66,-63.99 141.91,-23.33 89.66,35.25 -24.48,25.89 -48.63,26.74 -70.7,53.8 -43.41,58.68 -15.37,68.13 -27.85,99.87zm-153.32 467.28c70.28,-83.41 215.66,-126.06 260.63,-242.8 14.14,-35.13 4.87,-64.84 18.09,-92.01 12.49,-31.73 47.3,-48.39 76.08,-34.38 35.98,17.52 -2.3,53.49 51.89,155.49 11.83,18.37 9.85,46.81 11.02,80.99 3.56,35.34 8.2,50.2 -14.04,89.78 -79.95,145.92 -246.76,165.53 -393.4,119.35 -37.64,-14.13 -30.7,-52.76 -10.27,-76.42zm-308.66 -24.24c-14.16,-86.72 99.2,-203.77 166.6,-250.77 23.56,-17.94 59.12,-30.03 79.64,0.96 36.4,47.13 -83.34,98.06 -111.13,130.74 -33.48,38.31 -29.01,65.7 -50.34,97.32 -19.68,28.23 -50.44,42.66 -84.77,21.75zm338.96 -1007.05c-0.86,251.64 -13.66,308.42 -181.59,537.53 -99.13,136.58 -171.32,181.26 -292.3,265.19 -39.78,26.85 -66.49,39.05 -107.76,56.77 7.04,16.02 234.1,189.58 267.68,205.93 192.47,110.51 416.72,253.3 650.01,194.64 52.52,-16.45 72.94,-40.11 120.24,-88.5 101.04,-97.84 81.17,-178.93 77.1,-298.54 -2.5,-55.83 -31.54,-111.98 -45.28,-169.08 -11.34,-55.93 1.82,-15.92 -20.03,-68.56 -4.63,-14.86 -8.52,-25.16 -10.76,-38.85 -7.03,-16.03 -7.03,-16.03 -15.72,-28.66 -20.35,-43.52 -35.74,-97.22 -79.92,-164.94l-132.86 -178.11 -228.81 -224.82z"/>
  <path class="fil13 str5" d="M4034.66 8510.02c-144.94,-51.47 -130.69,-236.9 89.38,-304.77 38.7,-12.17 52.29,-11.95 101.43,-15.41 40.77,0.68 73.95,3.36 114.72,4.03 58.15,-0.11 47.72,-8.82 112.2,19.98 68.29,27.8 162.17,60.29 224.63,122.14 37.16,37.96 24.05,54.81 -8.31,95.9 -40.1,52.69 -111.65,88.86 -170.89,110.29 -107.11,39.85 -327.24,15.96 -463.16,-32.16zm656.64 -984.74c67.19,49.12 123.79,99.13 214.82,120.91 85.03,19.54 164.84,34.72 240.52,24.23 46.92,-6.7 61.94,-1.12 101.43,-15.41 47.87,-18.41 32.55,-4.8 99.37,-28.24l85.45 -55.14c7.88,-21.22 -8.56,-32.16 -22.79,-39.86 -68.28,-27.8 -58.75,38.51 -250.24,66.31 -68.89,10.6 -157.22,9.15 -231.66,-11.28 -83.44,-23.79 -233.93,-106.29 -230.66,-170.26 5.34,-51.13 27.08,-137.2 42.22,-187.1 80.02,97.35 269.06,177.29 399.74,175.17 58.15,-0.11 229.89,-20.76 290.56,-36.83 41.7,-11.06 64.79,9.6 78.5,-45.66 -73.2,-51.36 -69.22,-16.08 -172.08,-6.04 -24.97,2.79 -43.14,5.7 -62.1,10.72 -66.67,13.84 -177.75,18.42 -252.97,0.11 -62.43,-15.97 -83.94,-40.87 -122.19,-57.5 -39.04,-14.51 -4.43,-6.48 -47.74,-37.07 -16.45,-10.94 -39.53,-31.59 -47.6,-46.66 -11.86,-14.07 -18.2,-42.98 -25.63,-50.57 -23.09,-20.66 -54.85,-17.98 -69.38,-6.48 -21.47,20.99 -50.65,99.47 -60.26,134.52 -30.27,99.8 -29.27,179.85 -39.79,272.51 -8.94,88.41 -10.3,174.82 -1.08,260.34 9.41,121.79 12.93,185.87 43.67,296.28l35.68 179.85c-70.35,-40.63 -91.71,-75.13 -181.16,-101.14 -36.82,-11.28 -74.92,-37.52 -107.32,-42.32 -21.81,-5.69 -61.15,-1 -92.12,-0.45 -33.19,-2.68 -158.49,-5.81 -182.82,4.46 -66.03,21.33 -77.26,14.74 -155.91,70 -19.9,16.74 -44.22,27.01 -62.85,58.72 -18.62,31.7 -40.25,62.29 -37.06,99.69 1.79,77.92 26.94,111.41 72.32,154.84 64.67,65.09 107.02,61.52 192.68,88.53 80.45,22.67 124.22,24.46 198.96,25.69 50.56,1.9 138.89,3.35 181.39,-9.82l77.56 -33.94c22.9,-15.63 50.23,-24.78 74.71,-44.65 18.32,-12.51 48.96,-39.74 62.06,-56.6 11.53,-12.62 23.84,-27.35 31.57,-38.96 54.3,-90.87 35.4,5.92 24.57,-121.24 -2.55,-29.92 -10.47,-54.59 -16.02,-85.63l-36.62 -168.12c-7.13,-26.8 -17.26,-54.71 -20.6,-82.5 -21.12,-145.47 -36.72,-305.78 -19.13,-463.41z"/>
  <path class="fil6 str1" d="M2596.5 7656.41l132.86 178.11c44.18,67.72 59.57,121.42 79.92,164.94 8.69,12.63 8.69,12.63 15.72,28.66 2.24,13.69 6.13,23.99 10.76,38.85 21.85,52.64 8.69,12.63 20.03,68.56 13.74,57.1 42.78,113.25 45.28,169.08 4.07,119.61 23.94,200.7 -77.1,298.54 -47.3,48.39 -67.72,72.05 -120.24,88.5 -233.29,58.66 -457.54,-84.13 -650.01,-194.64 -33.58,-16.35 -260.64,-189.91 -267.68,-205.93 41.27,-17.72 67.98,-29.92 107.76,-56.77 120.98,-83.93 193.17,-128.61 292.3,-265.19 167.93,-229.11 180.73,-285.89 181.59,-537.53l228.81 224.82zm-294.6 -424.89c-19.52,15.7 -51.93,33.53 -55.57,65.37 -3.46,19.31 23.27,128.95 28.49,160.9 10.95,148.16 -28.06,301.41 -123.89,431.2 -37.7,53.06 -75.4,106.12 -117.74,144.32 -52.09,46.06 -142.31,115.56 -199.03,146.76 -118.42,72.57 -142.08,35.85 -177.22,77.55 -13.07,14.65 -18.03,24.84 -23.15,47.55 0,0 68.65,41.83 79.74,55.62l238.14 187.36c199.51,126.54 523.75,313.81 767.88,226.81 85.67,-29.7 218.39,-149.93 247.31,-270.28 20.33,-78.32 25.1,-197.83 10.03,-276.58 -2.98,-18.26 -1.33,-21.65 -10.76,-38.85 -23.33,-61.77 -20.94,-60.6 -36.17,-126.83l-26.31 -80.03c-42.04,-108.69 -90.69,-203.79 -164.23,-302.61 -19.03,-21.87 -33.26,-41.4 -51.38,-71.22 -45.83,-64.33 -300.86,-314.52 -341.06,-317.28 2.15,-40.97 -7.45,-45.64 -45.08,-59.76z"/>
  <path class="fil12" d="M4034.66 8510.02c135.92,48.12 356.05,72.01 463.16,32.16 59.24,-21.43 130.79,-57.6 170.89,-110.29 32.36,-41.09 45.47,-57.94 8.31,-95.9 -62.46,-61.85 -156.34,-94.34 -224.63,-122.14 -64.48,-28.8 -54.05,-20.09 -112.2,-19.98 -40.77,-0.67 -73.95,-3.35 -114.72,-4.03 -49.14,3.46 -62.73,3.24 -101.43,15.41 -220.07,67.87 -234.32,253.3 -89.38,304.77z"/>
  <path class="fil13 str5" d="M2648.49 8299.27c59.08,158.99 -105.49,192.29 -200.11,167.23 24.15,-0.84 131.48,-87.22 155.21,-117.68 16.37,-21.43 26.13,-29.29 44.9,-49.55zm-311.1 163.61c-20.43,23.66 -27.37,62.29 10.27,76.42 146.64,46.18 313.45,26.57 393.4,-119.35 22.24,-39.58 17.6,-54.44 14.04,-89.78 -1.17,-34.18 0.81,-62.62 -11.02,-80.99 -54.19,-102 -15.91,-137.97 -51.89,-155.49 -28.78,-14.01 -63.59,2.65 -76.08,34.38 -13.22,27.17 -3.95,56.88 -18.09,92.01 -44.97,116.74 -190.35,159.39 -260.63,242.8z"/>
  <path class="fil13 str5" d="M2028.73 8438.64c34.33,20.91 65.09,6.48 84.77,-21.75 21.33,-31.62 16.86,-59.01 50.34,-97.32 27.79,-32.68 147.53,-83.61 111.13,-130.74 -20.52,-30.99 -56.08,-18.9 -79.64,-0.96 -67.4,47 -180.76,164.05 -166.6,250.77z"/>
  <path class="fil13 str5" d="M2490.71 7995.6c12.48,-31.74 -15.56,-41.19 27.85,-99.87 22.07,-27.06 46.22,-27.91 70.7,-53.8 52.25,-58.58 -14,-99.24 -89.66,-35.25 -44.74,37.03 -94.59,96.78 -105.91,162.69 -3.63,31.84 -8.17,71.64 27.97,76.63 27.29,4.89 58.22,-22.07 69.05,-50.4z"/>
  <path class="fil12" d="M2648.49 8299.27c-18.77,20.26 -28.53,28.12 -44.9,49.55 -23.73,30.46 -131.06,116.84 -155.21,117.68 94.62,25.06 259.19,-8.24 200.11,-167.23z"/>
  <path class="fil14" d="M1648.14 8501.2c190.1,231.18 475.06,407.73 723.28,562.19 64.6,44.05 164.6,88.53 236.56,123.57 170.31,82.91 299.67,158.5 483.95,218.81 79.32,26.01 156.07,63.39 230.43,99.58 -2.98,-18.25 -0.41,-29.61 -1.74,-51.26l-26.04 -348.76c-4.25,-107.08 -31.91,-330.61 -31.84,-397.79 2.13,-40.96 2.46,-66.01 -5.16,-99.13 -16.71,-75.35 -27.41,-181.38 -45.94,-240.82 -19.29,-64 -24.27,-175.65 -43.56,-239.65l-50.65 -188.5c-21.52,-77.7 -47.58,-115.59 -75.72,-179.7 -42.19,-96.16 -140.57,-265.88 -213.69,-335.09 -50.04,-49.57 -96.04,-101.37 -154.93,-151.05 -118.7,-91.4 -295.29,-185.78 -437.73,-246.72 -59.21,-24.63 -151.76,-23.47 -213.71,-24.23 -46.65,-1.7 -55.5,-1.81 -97.51,11.34 -104.12,24.93 -171.93,42.33 -260.07,138.04 -35.88,37.15 -119.24,135.2 -145.53,177.02 -70.6,108.46 -127.21,316.15 -134.55,447.01 -1.55,58.06 9.55,193.69 27.35,248.56 3.73,22.82 2.07,26.22 7.45,45.64 12.42,35.45 27.39,59.55 32.61,91.5 22.1,94.78 97.46,177.68 135.02,258.99 14.07,32.04 39.55,52.85 61.72,80.45zm1318.72 3.48c-28.92,120.35 -161.64,240.58 -247.32,270.28 -244.12,86.99 -568.36,-100.27 -767.86,-226.81l-238.15 -187.36c-11.09,-13.79 -79.74,-55.63 -79.74,-55.63 5.12,-22.7 10.08,-32.89 23.15,-47.53 35.14,-41.71 58.8,-4.99 177.21,-77.57 56.73,-31.18 146.95,-100.69 199.05,-146.75 42.33,-38.2 80.03,-91.26 117.73,-144.32 95.83,-129.78 134.84,-283.04 123.89,-431.2 -5.22,-31.95 -31.96,-141.59 -28.48,-160.91 3.63,-31.83 36.04,-49.66 55.56,-65.36 37.63,14.12 47.23,18.79 45.08,59.76 40.19,2.76 295.23,252.95 341.06,317.28 18.12,29.82 32.35,49.36 51.37,71.22 73.55,98.82 122.2,193.92 164.24,302.61l26.31 80.02c15.23,66.24 12.83,65.07 36.17,126.84 9.43,17.2 7.78,20.59 10.76,38.85 15.07,78.75 10.3,198.25 -10.03,276.58z"/>
  <path class="fil14" d="M2186.1 7969.13c-99.14,136.57 -171.33,181.25 -292.3,265.18 -39.77,26.84 -66.49,39.05 -107.75,56.76 7.03,16.03 234.09,189.59 267.67,205.94 192.47,110.51 416.72,253.3 650.01,194.64 52.51,-16.45 72.94,-40.11 120.23,-88.5 101.05,-97.84 81.18,-178.93 77.11,-298.54 -2.5,-55.82 -31.54,-111.98 -45.28,-169.08 -11.34,-55.93 1.82,-15.92 -20.03,-68.56 -4.63,-14.86 -8.52,-25.16 -10.76,-38.85 -7.03,-16.03 -7.03,-16.03 -15.71,-28.66 -20.36,-43.52 -35.75,-97.22 -79.93,-164.94l-132.86 -178.11 -228.81 -224.82c-0.86,251.64 -13.66,308.42 -181.59,537.54zm-22.26 350.44c-33.48,38.31 -29.01,65.69 -50.35,97.32 -19.67,28.23 -50.43,42.66 -84.76,21.74 -14.16,-86.71 99.2,-203.76 166.6,-250.77 23.56,-17.92 59.13,-30.02 79.64,0.97 36.4,47.13 -83.35,98.06 -111.13,130.74zm173.55 143.31c70.28,-83.41 215.66,-126.06 260.63,-242.8 14.13,-35.13 4.87,-64.85 18.1,-92.01 12.48,-31.73 47.29,-48.39 76.07,-34.38 35.98,17.52 -2.3,53.49 51.89,155.49 11.83,18.37 9.85,46.81 11.02,80.99 3.57,35.34 8.2,50.2 -14.04,89.78 -79.94,145.92 -246.76,165.54 -393.4,119.35 -37.64,-14.13 -30.7,-52.76 -10.27,-76.42zm153.32 -467.28c-10.83,28.33 -41.76,55.29 -69.05,50.4 -36.14,-5 -31.6,-44.79 -27.97,-76.64 11.31,-65.9 61.17,-125.65 105.91,-162.68 75.66,-63.99 141.91,-23.33 89.65,35.25 -24.47,25.89 -48.61,26.74 -70.7,53.8 -43.4,58.68 -15.36,68.13 -27.84,99.87z"/>
  <path class="fil15" d="M2603.59 8348.82c-23.73,30.46 -131.06,116.84 -155.21,117.68 94.61,25.07 259.19,-8.23 200.11,-167.23 -18.77,20.26 -28.53,28.12 -44.9,49.55z"/>
  <path class="fil15" d="M1648.14 8501.2c190.1,231.18 475.06,407.73 723.28,562.19 64.6,44.05 164.6,88.53 236.56,123.57 170.31,82.91 299.67,158.5 483.95,218.81 79.32,26.01 156.07,63.39 230.43,99.58 -2.98,-18.25 -0.41,-29.61 -1.74,-51.26l-26.04 -348.76c-4.25,-107.08 -31.91,-330.61 -31.84,-397.79 2.13,-40.96 2.46,-66.01 -5.16,-99.13 -16.71,-75.35 -27.41,-181.38 -45.94,-240.82 -19.29,-64 -24.27,-175.65 -43.56,-239.65l-50.65 -188.5c-21.52,-77.7 -47.58,-115.59 -75.72,-179.7 -42.19,-96.16 -140.57,-265.88 -213.69,-335.09 -50.04,-49.57 -96.04,-101.37 -154.93,-151.05 -118.7,-91.4 -295.29,-185.78 -437.73,-246.72 -59.21,-24.63 -151.76,-23.47 -213.71,-24.23 -46.65,-1.7 -55.5,-1.81 -97.51,11.34 -104.12,24.93 -171.93,42.33 -260.07,138.04 -35.88,37.15 -119.24,135.2 -145.53,177.02 -70.6,108.46 -127.21,316.15 -134.55,447.01 -1.55,58.06 9.55,193.69 27.35,248.56 3.73,22.82 2.07,26.22 7.45,45.64 12.42,35.45 27.39,59.55 32.61,91.5 22.1,94.78 97.46,177.68 135.02,258.99 14.07,32.04 39.55,52.85 61.72,80.45zm1318.72 3.48c-28.92,120.35 -161.64,240.58 -247.32,270.28 -244.12,86.99 -568.36,-100.27 -767.86,-226.81l-238.15 -187.36c-11.09,-13.79 -79.74,-55.63 -79.74,-55.63 5.12,-22.7 10.08,-32.89 23.15,-47.53 35.14,-41.71 58.8,-4.99 177.21,-77.57 56.73,-31.18 146.95,-100.69 199.05,-146.75 42.33,-38.2 80.03,-91.26 117.73,-144.32 95.83,-129.78 134.84,-283.04 123.89,-431.2 -5.22,-31.95 -31.96,-141.59 -28.48,-160.91 3.63,-31.83 36.04,-49.66 55.56,-65.36 37.63,14.12 47.23,18.79 45.08,59.76 40.19,2.76 295.23,252.95 341.06,317.28 18.12,29.82 32.35,49.36 51.37,71.22 73.55,98.82 122.2,193.92 164.24,302.61l26.31 80.02c15.23,66.24 12.83,65.07 36.17,126.84 9.43,17.2 7.78,20.59 10.76,38.85 15.07,78.75 10.3,198.25 -10.03,276.58z"/>
  <path class="fil15" d="M2186.1 7969.13c-99.14,136.57 -171.33,181.25 -292.3,265.18 -39.77,26.84 -66.49,39.05 -107.75,56.76 7.03,16.03 234.09,189.59 267.67,205.94 192.47,110.51 416.72,253.3 650.01,194.64 52.51,-16.45 72.94,-40.11 120.23,-88.5 101.05,-97.84 81.18,-178.93 77.11,-298.54 -2.5,-55.82 -31.54,-111.98 -45.28,-169.08 -11.34,-55.93 1.82,-15.92 -20.03,-68.56 -4.63,-14.86 -8.52,-25.16 -10.76,-38.85 -7.03,-16.03 -7.03,-16.03 -15.71,-28.66 -20.36,-43.52 -35.75,-97.22 -79.93,-164.94l-132.86 -178.11 -228.81 -224.82c-0.86,251.64 -13.66,308.42 -181.59,537.54zm-22.26 350.44c-33.48,38.31 -29.01,65.69 -50.35,97.32 -19.67,28.23 -50.43,42.66 -84.76,21.74 -14.16,-86.71 99.2,-203.76 166.6,-250.77 23.56,-17.92 59.13,-30.02 79.64,0.97 36.4,47.13 -83.35,98.06 -111.13,130.74zm434.18 -99.49c14.13,-35.13 4.87,-64.85 18.1,-92.01 12.48,-31.73 47.29,-48.39 76.07,-34.38 35.98,17.52 -2.3,53.49 51.89,155.49 11.83,18.37 9.85,46.81 11.02,80.99 3.57,35.34 8.2,50.2 -14.04,89.78 -79.94,145.92 -246.76,165.54 -393.4,119.35 -37.64,-14.13 -30.7,-52.76 -10.27,-76.42 70.28,-83.41 215.66,-126.06 260.63,-242.8zm-107.31 -224.48c-10.83,28.33 -41.76,55.29 -69.05,50.4 -36.14,-5 -31.6,-44.79 -27.97,-76.64 11.31,-65.9 61.17,-125.65 105.91,-162.68 75.66,-63.99 141.91,-23.33 89.65,35.25 -24.47,25.89 -48.61,26.74 -70.7,53.8 -43.4,58.68 -15.36,68.13 -27.84,99.87z"/>
  <path class="fil16" d="M3871.85 7532.07c-11.98,41.41 -20.96,83.95 -35.15,122.13 -14.99,40.3 -32.97,79.48 -41.95,122.02 -14.8,76.58 -22.8,153.28 -33.02,226.73 -11.65,68.1 -3.85,148.26 -4.12,213.34 -2.45,107.73 49.1,382.81 84.41,490.09 26.61,84.74 17.11,64.31 49.24,134.19 7.28,17.19 7.13,26.8 16.63,47.22 35.46,97.69 51.59,127.83 117.54,207.88 11.87,14.07 16.93,28.02 29.58,39.96 12.95,-7.25 27.48,-18.75 40.43,-26.01 10.74,-10.49 5.37,-5.24 18.33,-12.5l180.2 -126.15c21.47,-20.98 51.32,-46.1 75.8,-65.97l307.47 -247.83c28.27,-20.87 46.75,-42.98 72.01,-64.97 23.69,-17.75 49.11,-49.34 74.38,-71.34 23.05,-25.22 44.68,-55.81 69.94,-77.8 23.05,-25.23 45.96,-40.86 72.8,-67.09 52.11,-48.23 96.64,-94.45 146.53,-145.91 23.84,-27.36 37.88,-55.93 65.52,-84.29 110.52,-113.42 123.11,-193.24 181.98,-287.24 37.25,-63.41 73.52,-160.98 107.13,-232.98 64.21,-145.13 100.11,-315.27 91.8,-458.38 -7.84,-126.04 -12.11,-142.12 -47.58,-239.8 -4.27,-16.08 -14.55,-34.39 -20.41,-46.22 -58.22,-91.66 -73.26,-143.12 -180.62,-231.32 -67.82,-56.6 -117.15,-89.43 -208.97,-109.07 -47.41,-10.39 -166.71,-11.29 -210.63,-3.47 -69.68,12.72 -121.33,32.15 -180.72,63.18 -33.49,16.52 -34.13,9.04 -86.72,40.19 -218.61,119.11 -171.57,56.93 -391.2,289.13 -16.89,17.86 -92.66,129.72 -133.4,174.93 -70.73,79.93 -188.44,313.81 -227.23,427.35zm33.06 729.33c18.63,-31.71 42.95,-41.98 62.85,-58.72 78.65,-55.26 89.88,-48.67 155.91,-70 24.33,-10.27 149.63,-7.14 182.82,-4.46 30.97,-0.56 70.31,-5.24 92.12,0.45 32.4,4.8 70.5,31.04 107.32,42.32 89.45,26.01 110.81,60.5 181.15,101.14l-35.68 -179.84c-30.73,-110.42 -34.25,-174.5 -43.66,-296.29 -9.22,-85.52 -7.86,-171.93 1.08,-260.34 10.52,-92.66 9.52,-172.71 39.79,-272.51 9.61,-35.05 38.79,-113.53 60.27,-134.52 14.53,-11.5 46.28,-14.18 69.37,6.48 7.43,7.59 13.77,36.5 25.63,50.57 8.07,15.07 31.15,35.72 47.6,46.66 43.31,30.59 8.7,22.56 47.74,37.07 38.25,16.63 59.76,41.53 122.19,57.49 75.22,18.31 186.3,13.74 252.98,-0.1 18.96,-5.02 37.12,-7.93 62.09,-10.71 102.86,-10.05 98.88,-45.33 172.08,6.03 -13.71,55.26 -36.79,34.6 -78.5,45.65 -60.67,16.08 -232.41,36.73 -290.57,36.84 -130.67,2.11 -319.71,-77.82 -399.73,-175.17 -15.13,49.9 -36.88,135.97 -42.22,187.1 -3.27,63.97 147.22,146.47 230.66,170.25 74.44,20.43 162.77,21.89 231.66,11.29 191.49,-27.79 181.96,-94.11 250.24,-66.31 14.23,7.7 30.67,18.64 22.79,39.86l-85.45 55.14c-66.82,23.44 -51.5,9.83 -99.37,28.24 -39.49,14.29 -54.51,8.71 -101.43,15.41 -75.69,10.49 -155.49,-4.7 -240.52,-24.23 -91.03,-21.77 -147.63,-71.79 -214.82,-120.91 -17.59,157.63 -1.99,317.94 19.13,463.41 3.34,27.8 13.47,55.7 20.6,82.5l36.62 168.12c5.55,31.04 13.47,55.71 16.02,85.63 10.83,127.16 29.73,30.37 -24.57,121.24 -7.73,11.61 -20.05,26.34 -31.57,38.96 -13.1,16.86 -43.74,44.1 -62.06,56.6 -24.48,19.87 -51.81,29.02 -74.71,44.65l-77.56 33.94c-42.49,13.17 -130.83,11.72 -181.39,9.82 -74.74,-1.23 -118.51,-3.02 -198.96,-25.69 -85.66,-27.01 -128.01,-23.44 -192.68,-88.53 -45.38,-43.42 -70.53,-76.92 -72.32,-154.84 -3.19,-37.4 18.44,-67.99 37.06,-99.69z"/>
  <path class="fil16" d="M4124.04 8205.25c-220.07,67.87 -234.31,253.3 -89.38,304.76 135.93,48.13 356.05,72.02 463.16,32.17 59.24,-21.43 130.79,-57.6 170.89,-110.3 32.37,-41.07 45.47,-57.93 8.31,-95.89 -62.46,-61.85 -156.34,-94.34 -224.62,-122.14 -64.49,-28.8 -54.06,-20.09 -112.21,-19.98 -40.76,-0.67 -73.95,-3.35 -114.72,-4.03 -49.14,3.46 -62.73,3.24 -101.43,15.41z"/>
  <path class="fil5" d="M1848.33 9991.9c-16.02,-18.76 -29.28,-7.43 -45.01,1.66 10.29,28.45 40.96,24.38 45.01,-1.66z"/>
  <path class="fil5" d="M1507.3 10073.23c1.88,-15.61 0.28,-22.84 -5.5,-36.72 -16.94,-3.83 -78.9,-5.17 -75.27,47.14 36.29,18.47 40.6,13.72 80.77,-10.42z"/>
  <path class="fil5" d="M1167.94 10126.16c13.99,38.63 55.64,33.14 61.16,-2.26 -21.78,-25.49 -39.79,-10.1 -61.16,2.26z"/>
  <path class="fil5" d="M1046.32 10289.93c-9.94,-20.56 -2.41,-10.85 -20.17,-18.28 -11.01,-1.33 -14.37,-4.37 -30.5,-4.58 -5.24,12.57 -6.18,20.36 -5.51,35.39 17.75,7.43 37.23,10.68 56.18,-12.53z"/>
  <path class="fil5" d="M1049.96 10558.59c-8.2,-24.75 -13.45,-12.2 -42.33,-9.54 -4.17,-6.66 -13.44,-12.19 -18.4,-22.46 5.5,36.73 27.4,50.82 60.73,32z"/>
 </g>
</svg>
