<?xml version="1.0" encoding="UTF-8"?>
<!DOCTYPE svg PUBLIC "-//W3C//DTD SVG 1.1//EN" "http://www.w3.org/Graphics/SVG/1.1/DTD/svg11.dtd">
<!-- Creator: CorelDRAW SE -->
<svg xmlns="http://www.w3.org/2000/svg" xml:space="preserve" width="210mm" height="297mm" version="1.1" style="shape-rendering:geometricPrecision; text-rendering:geometricPrecision; image-rendering:optimizeQuality; fill-rule:evenodd; clip-rule:evenodd"
viewBox="0 0 21000 29700"
 xmlns:xlink="http://www.w3.org/1999/xlink">
 <defs>
  <style type="text/css">
   <![CDATA[
    .fil7 {fill:#0C8C43}
    .fil4 {fill:#1A181A}
    .fil13 {fill:#257849}
    .fil10 {fill:#2A292A}
    .fil12 {fill:#3A3939}
    .fil6 {fill:#514F50}
    .fil9 {fill:#686667}
    .fil5 {fill:#787677}
    .fil8 {fill:#908E8F}
    .fil2 {fill:#AEACAC}
    .fil3 {fill:#C6C5C6}
    .fil0 {fill:#D3FEE3}
    .fil1 {fill:#DAD9D9}
    .fil11 {fill:#EEEDEE}
   ]]>
  </style>
 </defs>
 <g id="Warstwa_x0020_1">
  <metadata id="CorelCorpID_0Corel-Layer"/>
  <g id="_760472576">
   <g>
    <path class="fil0" d="M16613.57 18937.51l66.81 -121.69 -310.42 -136.89c41.3,127.38 131.72,233.55 243.61,258.58z"/>
    <path class="fil0" d="M8435.86 21580.45l150.63 51.37 18.13 -352c-102.07,103.17 -152.65,172.62 -168.76,300.63z"/>
   </g>
   <g>
    <path class="fil1" d="M15247.82 6183.02l102.31 93.54c-119.56,176.49 -120.82,98.79 -53.39,291.79l197.46 -232.4c117.31,101.31 66.1,13.42 77.43,154.58 142.1,-20.66 32.1,-10.86 173.45,-184l-77.03 -38.26c-130.22,-83.86 -42.64,15.75 -81.57,-70.36l61.63 -91.52 -173.02 -95.59 -113.24 111.5 28.83 -136.7c-140.88,45.41 -137.05,13.47 -142.86,197.42z"/>
    <path class="fil1" d="M15304.84 8897.7c61.83,99.58 95.87,194.06 256.92,136.89 127.42,-45.25 118.1,-116.91 98.04,-206.78l-56.94 140.76 -64.36 -177.87 -233.66 107z"/>
    <path class="fil1" d="M8230.82 7187.22c41.5,78.1 15.48,47.66 105.74,82.91 7.27,-59.93 -39.64,-139.02 100.68,-136.1l-122.51 -94.84c-12.44,18.21 -25.2,23.85 -29.22,48.25 -35.97,218.19 -3.04,-138.86 -54.69,99.78z"/>
   </g>
   <g>
    <path class="fil2" d="M7500.65 8468.12c-154.9,89.94 -67.76,57.21 -195.25,25.82 45.09,-128.05 108.89,-128.17 195.25,-25.82zm-319.86 346.55l42.72 -5.02 -65.9 -89.39c168.08,-47.38 309.79,-125.83 462.32,-181.55 247.6,-90.49 215.18,-93.42 398.11,-197.34l-232.28 -65.07 36.84 -120.42 -248.95 86.55 134.48 151.02 -156.12 51.81c-7.97,-6.24 -17.68,-27.56 -20.21,-21.17 -58.52,147.4 36.01,-66.61 -137.52,-134.13 149.64,-33.4 92.27,-21.63 66.13,-116.39 -167.29,-85.01 -230.5,-58.91 -385.01,31.46 12.05,93.27 30.09,84.78 114.03,167.42 -90.1,205.91 -43.98,248.55 -8.64,442.22z"/>
    <path class="fil2" d="M16929.01 17864.62c148.85,-68.9 78.1,-135.55 116.08,-323.69 22.9,-113.32 55.71,-189.13 73.76,-325.86l-216.57 38.65c-109.69,-87.85 -135.55,-66.69 -274.93,-33.92 62.15,-67.24 -25.7,-78.21 -26.77,-79.6l-68.66 333.92c86.98,-240.69 0.87,-107.95 109.01,-106.72l47.27 2.88c3.83,0.19 16.66,-2.02 20.37,-1.7 3.16,0.28 14.53,-1.38 17.65,-0.83l222.06 142.97c2.21,1.58 13.9,8.21 15.67,9.36 1.82,1.18 11.26,5.13 16.47,8.45 -75.42,55.67 -151.54,86.19 -216.93,180.76 -39.09,-93.66 -43.19,7.93 15.48,-109.33 -302.13,37.78 -223.04,-60.73 -318.75,163.66 195.24,113.59 204.52,69.05 375.96,88.32 65.7,7.39 20.34,31.35 92.83,12.68z"/>
    <path class="fil2" d="M6913.44 8123.3l15.16 59.9c165.72,-128.05 244.33,-112.25 419.76,-74.51 23.65,-227.86 -52.48,-75.45 168.12,-202.98l-176.3 -96.3c-8.96,-8.02 -24.36,-22.79 -32.37,-30.17 -9.01,-8.33 -23.97,-23.22 -36.88,-33.72 -111.03,368.39 -183.44,42.72 -280.42,225.41 -51.68,-191.93 -17.8,-92.66 -115.13,-176.57 -59.42,-154.18 12,-99.97 -200.7,-115.09 13.31,177.32 52.75,398.98 238.76,444.03z"/>
    <path class="fil2" d="M17637.98 9565.89c33.29,-30.37 22.71,-16.55 73.01,-70.28 27.64,-29.58 63.13,-72.81 85.76,-97.81l-17.1 -295.69 11.37 -279.19c-96.42,40.71 -72.96,-37.51 -86.19,288.55l-69.45 -189.96c-6.24,-13.03 -16.07,-29.85 -25.59,-43.83 -213.01,216.02 -163.07,144.43 20.45,209.62l-146.28 85.09 161.56 84.06c-314.01,259.69 28.91,64.48 -124.88,242.31 -145.62,168.48 -163.9,9.4 -213.14,232.76 3.63,0.71 91.53,205.32 217.24,-176.73l113.24 11.1z"/>
    <path class="fil2" d="M15669.39 10186.3l108.98 -64.99c-57.45,-101.48 -56.07,-126.04 -123.03,-126.35 150.23,-150.16 176.14,-107.08 278.91,-279.35l-366.65 222.53c-357.52,-469.19 -243.37,-229.72 -293.32,-188.77 83.51,138.9 -46.51,-79.4 23.77,82.92l97.25 85.68c6.55,4.69 74.46,62.22 100.68,87.18l-129.86 94.17c314.29,40.47 232.16,10.02 303.27,86.98z"/>
    <path class="fil2" d="M4683.35 8669.44l180.68 160.51 58.4 -162.8c7.02,-14.84 40.31,-61.87 58.31,-94.56 -21.63,-226.6 -7.26,-58 -19.19,-72.25l-47.53 -144.71c-178.23,9.99 -1.39,-37.32 -245.16,-33.76l14.49 347.57z"/>
    <path class="fil2" d="M17433.53 16980.49l-9.75 70.13 -38.1 78.53c0.87,0.39 107.71,32.93 108.9,33.17 2.01,-3.72 5.76,-14.85 6.04,-11.22l20.53 -41.85c185.53,99.62 91.05,61.44 247.01,28.55l-23.26 -102.94 18.01 -102.97c-239.79,60.8 -207.45,-39.49 -329.38,48.6z"/>
    <path class="fil2" d="M4097.45 12445.45c24.48,-350.58 28.39,20.61 99.38,-249.97l-154.3 29.06 18.87 80.62c1.03,-10.7 2.76,33.37 4.26,50.03 -228.84,39.52 -141.27,-18.6 -236.5,131.84 150.47,107.75 53.14,94.68 261.5,50.93 32.77,-88.8 2.64,-33.05 6.79,-92.51z"/>
    <path class="fil2" d="M16875 16991.67l67.91 -126.51c143.32,182.1 109.41,113.4 170.57,88.17 -66.57,-83.16 -122.92,-60.69 -241.52,-149.02l160.22 -22.34 -235.99 -0.48c-55.6,-77.9 -22.71,86.12 -26.38,-72.84 -0.12,-6.4 11.73,-134.57 13.03,-151.35 -123.11,167.3 -52.04,148.15 -130.57,296.01l14.25 13.39c88.88,63.57 3.44,141.31 160.15,6.08l48.33 118.89z"/>
    <path class="fil2" d="M17808.04 11670.97l-6.99 -141.78c-128.05,-73.29 -74.39,-23.3 -146.96,-136.93 -26.57,41.57 -76.32,136.33 -117.7,185.77 105.19,80.27 3.4,25.35 108.86,51.64 85.88,21.48 61.47,-0.43 162.79,41.3z"/>
   </g>
   <g>
    <path class="fil3" d="M8584.56 7335.56l-40.31 -10.86 -128.09 231.89c66.61,195.05 69.37,5.09 -5.53,233.67 -87.65,267.58 68.74,25.9 -4.34,172.66l56.18 264.66c100.29,-138.55 2.57,-119.32 98.99,-261.78 124.18,459.2 -59.11,126.82 150.79,356.62 -332.02,34.51 -317.85,-60.96 -545.63,-85.32l238.68 270.14c194.89,-37.5 300.67,-27.71 406.69,-179.49 49.79,-239.75 -31.43,-166.23 -125.29,-304.54 -84.97,-125.2 -31.03,-133.18 -44.97,-302.84 136.85,-91.01 85.37,21.32 106.57,-229.56l83.03 54.88c44.62,-338.37 85.6,-74.27 152.81,-805.94 -140.53,142.14 -117.59,135.51 -117.11,373.71 -62.27,30.25 -172.23,109.45 -133.54,34.91 -62.62,485.06 -46.71,370.79 -151.66,420.82l2.73 -233.63z"/>
    <path class="fil3" d="M18040.52 17221.42l-23.81 100.96c-193.63,84.14 -177.28,-31.74 -245.43,271.02 -39.68,176.45 -29.3,365.7 -163.27,463.42l68.31 41.38 151.7 12.16c85.24,-166.7 140.01,-102.73 244.29,-333.52 79.44,-175.82 170.8,-240.73 146.68,-392.03 -80.59,-375.61 122.79,-61.28 -37.2,-403.84l-141.27 240.45z"/>
    <path class="fil3" d="M7232.47 9361.01c105.7,-159.68 50.7,-70.09 104.04,-110.44 126.94,-96.03 220.16,-74.11 373.56,-137.84 40.79,-477.72 -271.73,-233.59 -500.85,-123.23l9.79 -194.5c-110.32,165.09 -75.14,184.12 -77.43,398.51 20.41,293.01 0.91,74.79 90.89,167.5z"/>
    <path class="fil3" d="M4420.39 17487.43l172.58 86.15 -41.57 -238.09c-29.46,32.1 98.86,-5.33 -37.32,4.78 -85.08,6.28 -19.19,-5.53 -81.57,7.26l-12.12 139.9z"/>
   </g>
   <g>
    <path class="fil4" d="M5870.55 10703.02c175.67,-130.85 179.38,-240.41 299.96,-353.42 -138.59,-121.33 -311.88,-228.65 -444.15,-334.03 -38.5,-30.68 -212.78,-197.78 -212.86,-197.85 -214.36,-113.13 -469.78,104.15 -362.58,356.1 61.99,145.74 83.82,78.89 241.48,174.8 138.2,84.06 357.45,248.82 478.15,354.4z"/>
    <path class="fil4" d="M17261.46 15966.7l164.93 1.94 -119.36 472.78c-129.71,82.72 4.82,22.94 -137.84,214.08 189.68,-18.48 71.27,-19.82 216.37,104.67l105.19 -105.03 43.47 -205.43c20.1,-228.61 170.57,-487.71 20.06,-670.99 -52.67,-64.16 -251.99,-240.46 -7.66,-253.84 0,-90.06 -23.02,-65.86 63.45,-77.43l3.59 -22.47 -12 -36.95 -145.07 -29.5 -93.26 609.08 -101.87 -0.91z"/>
    <polygon class="fil4" points="4056.66,16494.56 4141.32,16791.21 4356.54,16757.01 4271.38,16393.05 "/>
    <path class="fil4" d="M12142.73 7639.31l-109.37 16.27c-18.79,211.39 -60.17,183.48 78.85,262.01 76.52,-121.57 51.72,-111.7 30.52,-278.28z"/>
    <path class="fil4" d="M13982.6 8317.52c188.97,3.08 225.85,-81.85 127.3,-224.26 -118.14,76.56 -111.54,74.74 -127.3,224.26z"/>
    <path class="fil4" d="M14406.74 7664.82c148.14,-25.71 162.95,-98.48 159.51,-239.67 -129.39,37.35 -183.95,77.39 -159.51,239.67z"/>
    <path class="fil4" d="M16887.63 12659.61c133.81,63.88 139.02,37.39 268.93,-55.59l-156.72 -43.91c-63.17,3.95 101.52,-83.43 -54.84,9.4 -6.28,3.71 -17.21,15.48 -22.43,20.25 -171.36,157.43 102.03,-129.78 -34.94,69.85z"/>
    <path class="fil4" d="M7305.4 8493.94c127.49,31.39 40.35,64.12 195.25,-25.82 -86.36,-102.35 -150.16,-102.23 -195.25,25.82z"/>
   </g>
   <g>
    <path class="fil5" d="M2745.09 13296.45c-1.86,227.19 47.42,642.08 -174.25,739.17 11.1,5.85 30.64,-2.33 35.5,12.52 32.49,99.07 109.61,-52.2 129.11,90.14l42.92 154.86c189.48,-177.88 86.08,-94.76 145.02,-96.42 167.5,386.9 33.76,193.75 58.2,382.44l187.08 -141.39 35.14 244.21c0.24,3.59 -0.04,15.79 1.07,23.57 178.11,-693.89 -48.85,-728.68 145.1,-941.42 -58.48,-78.77 -66.22,-96.93 -129.15,-159.04l-70.36 -42.72c64.4,-115.06 68.62,-49.32 190.7,-122.44l75.62 -475.7c142.37,-47.74 -98.91,-113.28 39.99,14.8 79.05,72.93 22.71,38.3 9.48,45.73 -6.63,-227.71 -19.66,-31.98 74.9,-94.57 -44.85,-90.45 -3.83,-16.54 -145.42,-74.15l16.86 -197.77c3.24,37.11 46.59,111.14 -85.09,171.59l-17.41 -272.16c-185.69,-132.19 -158.96,18.68 -169.35,346.35 -9.04,-9.91 -20.05,-24.08 -25.34,-31.31l-101.16 -155.01c-119.44,-136.38 -134.92,-16.82 -158.61,-176.77 -6.71,254.87 6.87,126.07 -43.04,151.18 118.02,16.43 110.36,40.48 242.63,128.92l-18.56 382.44c-74.07,146.64 -29.45,-48.64 -107.71,176.14 160.35,-222.34 53.9,-137.96 134.92,-32.06 109.76,143.44 40.04,113.59 39.13,205.27 -212.62,-33.24 -109.18,39.29 -237.66,79.88 -116.83,-252.82 147.52,-178.35 -120.26,-336.28z"/>
    <path class="fil5" d="M12116.91 6082.97l66.92 218.43c68.11,140.4 102.35,126.11 154.03,190.78 80.51,100.73 48.49,234.54 131.72,211.4l-176.53 156.51 157.85 178.63c144.2,-78.77 57.37,-118.85 204.45,-78.69l107.4 -116.44 230.5 115.96 72.1 -152.13 120.03 61.64c-16.62,-135.16 20.02,-6.95 -39.96,-89.63 -168.55,-232.13 -102.65,194.14 -66.29,-164.81 12.64,-124.69 58.12,-23.17 -39.05,-120.98 -178.43,-179.53 -283.26,-128.59 -421.45,-391.56 -63.13,-120.11 32.77,48.01 -30.4,-147.63 -337.71,55.75 -191.34,95.71 -199.52,119.05l-28.07 -27.45c-95.51,71.67 -84.18,52.87 -105.34,55.83l-105.9 -14.84c-5.96,-0.87 -21.75,-5.96 -32.49,-4.07z"/>
    <path class="fil5" d="M17266.56 17322.11c181.39,93.53 214.47,-28.12 201.37,198.48 -232.53,34.91 -184.83,-71.98 -382.6,6.64l-30.92 193.07c144.87,61.79 157.11,32.3 304.03,50.9l27.95 133.33c54.29,179.3 -0.24,62.15 122.28,208.01l116.84 -410.36c99.65,-319.58 -97.29,-191.62 53.69,-247.05l7.9 -224.78c-78.97,-6.99 -80.27,-84.7 -151.82,140.44 -21.75,-109.88 -234.65,-67.99 -268.72,-48.68z"/>
    <path class="fil5" d="M15571.36 8548.19c238.16,21.24 355.43,66.1 317.84,-251.99 0.36,0.48 30.25,172.07 170.69,-5.52l25.86 -39.33c3.44,-3.71 14.45,-12.91 18.09,-16.35 129.34,-121.05 -69.22,112.18 71.58,-52.08l-52.75 -13.93c-57.37,30.08 -8.77,-14.77 -101.99,81.89l-19.27 -168.92c-1.93,-13.14 -5.37,-32.57 -8.64,-48.76l-151.27 183.6c-110.83,-189.09 5.49,-70.04 -129.58,-116.56 -186.64,-64.31 -100.57,-33.24 -170.85,10.94l93.14 147.2c-322.03,27.52 -39.88,-57.02 -335.49,-34 -97.01,228.22 184.94,272.16 272.64,323.81z"/>
    <path class="fil5" d="M18119.21 14757.23l-73.12 69.89c-139.34,-66.18 -191.02,-80.43 -312.24,-32.69l-31.51 239.9 297.32 59.82 -1.15 162.04 81.85 -135.43c-85.92,238.96 -8.8,105.03 57.77,171.64 1.89,-18.56 2.68,-62.66 3.19,-55.87l4.66 -99.66c23.34,-428.32 103.17,-234.42 160.27,-239.75 0.12,113.95 -18.28,162.95 -35.93,256.85 -24.52,130.29 -8.53,155.44 -1.58,293.8l155.45 -641.34c-171.05,-64.6 -43.16,-33.68 -133.93,12.24l-127.18 -189.52 -43.87 128.08z"/>
    <path class="fil5" d="M4914.02 8355.63l47.53 144.71c11.93,14.25 -2.44,-154.35 19.19,72.25l74.27 54.73c212.51,-41.66 -99.65,-72.46 100.96,-7.98 42.57,13.7 92.87,79.52 131.05,122.44 111.15,-114.35 34.83,-48.72 253.92,-79.24l77.63 -16.59 13.46 -86.43c-0.71,-4.78 -6.2,-20.21 -7.19,-24.99 -0.79,-4.03 -8.56,-15.8 -9.31,-19.63l17.41 -157.77c-238.84,59.7 -0.75,-122.64 -471.79,-4.86 -135.83,33.96 -15.09,26.18 -247.13,3.36z"/>
    <path class="fil5" d="M9020.82 6734.34l-61.24 70.32c111.54,270.78 44.3,142.54 188.53,300.98l-114.42 50.78 6.95 -2.76c234.1,113.08 -15.95,-123.75 69.49,41.85 1.22,2.37 34.67,121.85 35.46,131.56 52.55,-44.73 54.48,-25.55 85.12,-84.93l-42.13 -221.58c218.59,66.76 12.8,81.57 282.91,109.6l-7.07 -259.05 -297 -9.71c191.65,-208.71 39.05,-28.12 246.58,-114.9 -94.45,-70.64 -17.65,-3.12 -72.61,-69.81 -5.26,-6.36 -15.56,-20.1 -20.65,-26.61l-299.92 84.26z"/>
    <path class="fil5" d="M14857.8 6430.11c99.03,-21.71 57.14,-10.89 115.53,-6.94 136.89,9.27 -42.25,23.33 138.35,15.99l136.14 -256.14c5.81,-183.95 1.98,-152.01 142.86,-197.42 -141.87,-19.38 -138.95,-39.72 -227.79,67.92l5.53 -145.46c-40.15,57.05 -269.87,439.97 -310.62,522.05z"/>
    <path class="fil5" d="M14754.67 9287.13l-6.12 152.01c66.77,35.11 157.74,95.71 207.33,106.57 121.77,26.69 144.67,6.4 209.54,-42.17 -192.13,-242.35 36.96,74.35 -180.01,-122.56l-127.21 -193.35 -103.53 99.5z"/>
    <path class="fil5" d="M2028.37 14152.81l175.94 122.01c237.42,122.2 203.74,284.72 423.82,386.82l-351.01 -395.55 231.18 -138.19 -479.93 24.91z"/>
   </g>
   <g>
    <path class="fil6" d="M15538.5 8790.7l64.36 177.87 56.94 -140.76c20.06,89.87 29.38,161.53 -98.04,206.78 -161.05,57.17 -195.09,-37.31 -256.92,-136.89l233.66 -107zm2.57 -679.52c70.28,-44.18 -15.79,-75.25 170.85,-10.94 135.07,46.52 18.75,-72.53 129.58,116.56l151.27 -183.6c3.27,16.19 6.71,35.62 8.64,48.76l19.27 168.92c93.22,-96.66 44.62,-51.81 101.99,-81.89l52.75 13.93c-140.8,164.26 57.76,-68.97 -71.58,52.08 -3.64,3.44 -14.65,12.64 -18.09,16.35l-25.86 39.33c-140.44,177.59 -170.33,6 -170.69,5.52 37.59,318.09 -79.68,273.23 -317.84,251.99l171.28 159.16c-65.11,18.68 -44.62,-5.13 -78.97,-10.62 -141.43,-22.59 20.53,-8.33 -112.25,9.08 -246.34,32.3 -60.57,30.09 -282.55,-77.55l-86.94 149.02c-104.12,129.46 -80,-26.77 -78.58,127.53 51.21,137.92 141.51,262.84 289.3,286.85 300.24,48.76 301.97,-89.16 534.34,-206.54 -194.94,-235.6 -146.33,21.56 -204.1,-195.25 363.3,84.5 297.87,-221.15 341.94,-295.62l48.2 -77.15c3.16,-8.49 19.23,-58.75 19.79,-73.91 77.42,73.79 101.59,95.63 190.03,159.4 216.06,155.72 79.68,86.82 152.88,52.39 66.02,-177.08 -19.26,39.76 -36.87,-165.83 -0.52,-5.96 -0.44,-20.02 -0.28,-25.98l8.57 -51.8c11.45,-44.9 -33.09,-116.21 186.76,-112.97 -76.05,-169.42 37.9,-79.76 -110.16,-115.21l78.65 -2.02c1.7,-66.76 -5.96,-147.94 6.12,-207.05 20.29,-99.14 36.21,-8.61 55.59,-180.88 -160.18,-63.49 -53.78,80.87 -288.74,-125.67 -78.1,124.33 1.42,52.63 -184.63,98.15 126.11,198.25 -7.74,17.14 222.53,105.58 -104.83,75.46 16.23,56.66 -401.55,-17.33 -249.66,-44.22 -149.76,-130.85 -398.08,71.94 173.42,78.89 3.79,-46.59 178.07,37 -141.78,123.23 -241.99,197.85 -408.73,72.73 -5.57,10.93 -8.69,18.28 -10.47,35.37 -14.25,139.66 -56.73,128.05 -198.8,219.61 61.87,46.32 -12.67,24.48 82.72,26.1l96.86 -21.99c64,-19.9 122.55,-15.79 187.78,-83.55z"/>
    <path class="fil6" d="M4298.97 13564.15c158.34,-68.23 134.57,-79.64 215.55,55.12 -232.72,86.86 -183.09,-40.91 -215.55,-55.12zm-281.2 -45.25c171.68,-50.66 147.75,-65.03 197.03,54.17 -198.77,98.75 -172.67,-43.55 -197.03,-54.17zm314.69 -185.66c150.12,-60.01 142.22,-86.66 225.45,52.91 -13.94,28.67 74.55,123.04 -131.48,76.88 -118.85,-26.65 -80.94,-63.22 -93.97,-129.79zm-275.68 -70.75l223.36 17.45c-28.82,119.44 6.16,153.83 -128.52,132.27 -146.52,-23.45 -66.92,-37.82 -94.84,-149.72zm-262.57 -79.01l201.96 51.25c-48.68,153.28 -14.84,148.78 -188.57,128.09l-13.39 -179.34zm-335.1 21.56c76.29,-49.24 -75.96,-105.78 212.94,-34.94l5.45 142.06c-190.47,-20.73 -133.58,-9.32 -218.39,-107.12zm942.92 14.45c-49.59,-108.78 -58.2,-0.16 -14.1,-199.98 133.62,-10.03 144.39,-10.94 230.86,50.34l-44.77 167.8 -171.99 -18.16zm91.21 -550.72l187.43 58.44 -22.9 184.43c-135.63,36.48 -49.72,32.21 -233.47,-7.55l68.94 -235.32zm-16.79 -62.86c29.07,135.39 52.2,102.15 -88.52,81.06l-76.4 204.49c-160.3,-14.61 -109.41,33.24 -177.01,-66.02l-71.94 -18.83 -15.79 38.61 -141.55 -1.58 -185.81 191.74c-87.65,-226.84 68.58,-81.97 -107.83,-181l-70.44 75.81 55.71 146.73c-228.65,51.28 -64.08,-54.3 -190.19,125.71l36.32 209.58c-0.08,15.99 -1.85,34.51 -2.17,48.17 -0.35,14.73 -3.55,34.63 -2.01,51.85 58.39,-58.84 30.01,64.75 110.55,-143.53l119.88 35.46 -5.61 92.03 67.36 8.26 23.49 -93.3c169.35,41.42 142.34,-7.03 191.14,134.72 -12.36,127.61 -15.28,96.1 -139.77,103.21 95.16,-8.81 37.63,59.85 95.12,261.58 -365.19,-89.35 -151.42,-49.91 -239.12,16.98l220.76 15.91c36.09,-72.53 95.55,-132.55 121.29,-286.81 192.88,121.96 380.11,95.9 524.03,174.79 94.61,-140.64 104.83,-452.09 147.83,-638.73 35.89,-155.76 135.59,-394.36 185.26,-593.68l-118.22 -36.48 -100.72 87.85 -165.64 -44.58z"/>
    <path class="fil6" d="M4662.78 9603.2l105.38 -92.39c7.31,27.64 37.55,236.94 -105.38,92.39zm20.57 -933.76l-9.16 9.56c10.66,9.28 26.65,7.98 31.94,27.72l108.82 124.49c-9.71,1.18 -24.44,-9.44 -29.38,0.59 -49.03,99.66 47.39,-38.93 -209.81,16.78 93.69,119.96 55.87,280.46 36.56,415.53 283.85,85.76 71.86,12.95 266.44,0.87 -70.72,111.46 15.2,103.09 -188.34,129.67 -124.81,16.3 -155.77,-22.63 -213.77,101.27 -75.25,-139.85 -99.18,-227.78 -261.14,-288.55 -185.46,-115.61 -58.12,-54.13 -104.91,38.3l87.22 84.81c-1.03,239.59 42.36,178.47 237.06,306.87 -152.37,9.91 -216.14,63.37 -232.01,214.72l-110.71 -84.02c215.22,-49.56 172.66,-128.8 99.93,-314.3 -686.82,51.33 22.35,492.25 78.1,538.84l85.05 -235.32 160.46 31.62 211.52 -75.21 44.38 -147.52c291.59,9.05 49.04,43.55 145.46,-52.83l172.22 -321.67c-100.68,-67.79 -78.25,-22.51 -223.4,-124.3l296.45 -39.84c9.52,0.2 27.13,1.54 40.67,1.15 -6.16,-13.19 -16.55,-46.51 -20.81,-38.46l-175.98 -272.59c91.21,16.93 123.98,-145.03 189.68,196.78 5.69,-12.75 12.52,-48.13 16.39,-38.57 17.37,42.88 -20.42,-82.41 112.96,-74.82 -161.92,82.36 -9.2,118.72 -2.45,132.19l125.88 -95.04c52.91,87.02 20.21,98.67 104.43,131.76 103.96,40.82 193.28,10.34 307.07,-17.22 -8.21,-6 -23.61,-22.07 -27.44,-13.42 -3.75,8.53 -22.15,-10.58 -27.36,-12.64l-162.8 -64.51c84.26,-149.69 -3.71,-75.58 133.93,-71.35 -306.79,-81.1 -96.3,-41.3 -165.32,-120.55l89.67 -35.65 -82.28 11.37 -77.63 16.59c-219.09,30.52 -142.77,-35.11 -253.92,79.24 -38.18,-42.92 -88.48,-108.74 -131.05,-122.44 -200.61,-64.48 111.55,-33.68 -100.96,7.98l-74.27 -54.73c-18,32.69 -51.29,79.72 -58.31,94.56l-58.4 162.8 -180.68 -160.51z"/>
    <path class="fil6" d="M4420.39 17487.43l12.12 -139.9c62.38,-12.79 -3.51,-0.98 81.57,-7.26 136.18,-10.11 7.86,27.32 37.32,-4.78l41.57 238.09 -172.58 -86.15zm-337 -462.01l-64 158.37c-11.37,10.07 -60.88,48.85 -63.85,53.74l-189.12 13.7 17.68 109.69c58.32,166.35 -67.63,50.1 72.81,155.29 -25.78,-3.44 -33.6,-35.58 -108.18,1.14l-52.83 38.3c-7.86,5.14 -18.28,15.25 -26.3,20.42 -113.36,73.48 -108.38,38.89 -252.38,164.17l-9.44 -130.57c-94.01,114.03 -135.9,172.58 -49.11,253.64 20.69,19.31 152.09,73.52 202,106.18 244.36,-213.61 -257.48,87.77 89.58,-163.15 48.37,74.35 96.15,111.26 173.77,196.43 41.03,-112.29 -32.61,-97.56 -4.66,-147.99 42.57,-76.71 108.35,-35.37 196.44,-83.31l135.94 -106.68c72.85,-58.91 7.11,38.53 30.88,-30.05 20.53,-59.23 -74.79,33.68 11.64,-132.51 137.68,64.16 68.86,78.58 177.88,217.76 70.79,-92.99 -24.68,-128.88 48.25,-232.56 61.24,180.04 81.3,10.14 214,281 58.44,-69.29 33.36,59.07 60.65,-136.26 18.75,-134 -83.79,-4.89 18.04,-110.59l-72.1 -131.72c176.46,-53.1 44.31,-7.34 51.89,-36.05l-2.73 -85.28c4.46,3.27 13.35,6.08 15.16,6.75l64.4 42.21c90.06,-330.92 177.84,75.61 74.59,-314.45l116.99 25.15 -98.4 -282.79c-59.5,17.1 -52.59,21.6 -100.76,46.16 -46.16,23.46 -44.77,36.64 -145.02,76.6 92.47,48.41 134.6,43.27 179.53,57.33 -220,155.41 -335.73,45.88 -471.56,274.45l-107.47 -135.15c199.59,-62.46 255.97,-67.75 393.85,-170.57 -259.33,3.32 -292.93,59.9 -528.06,131.2z"/>
    <path class="fil6" d="M5651.34 9326.61c274.96,-17.53 788.22,319.43 655.31,575.09 -126.39,-6.83 -256.13,-158.13 -342.76,-256.25 -95.43,-108.03 -240.14,-222.45 -312.55,-318.84zm915.2 85.61c210.37,-114.98 -28.12,-213.93 300.15,-292.78 -20.88,135.35 -88.88,474.56 -153.98,570.31 -100.49,-126.19 -9.01,-111.03 -146.17,-277.53zm30.32 -380.43c42.96,83.35 -16.03,255.81 -30.32,380.43l-131.53 48.96 87.07 257.08c-119.17,-11.57 -52.52,21.55 -150.67,-113.72 -150.28,-207.21 -366.3,-354.48 -438.43,-545.39 -243.54,-49.67 -14.02,-36.36 -266.52,117.54l-20.65 -163.97c-60.96,175.78 12.04,96.26 -155.61,176.29 -85.44,-233.19 -111.26,-193.27 -191.49,-219.68 -31.47,143.6 42.56,116.08 48.84,212.02 -160.15,5.33 -27.17,82.76 -180.21,-70.4l18.92 90.26c0.63,10.66 3.99,26.81 3.39,37.4 -4.89,88.95 89.39,-22.39 -174.79,174.08 73.99,51.25 178.94,70.72 225.61,156.79 210.33,122.4 105.5,19.39 175.5,24.2l179.22 44.31c-90.1,-50.03 -149.13,-65 -109.13,-151.15 53.22,-114.58 107.63,-18.28 154.54,15.91 144.94,105.7 225.1,223.13 383.23,304.66 -0.28,8.65 -7.46,13.58 -8.02,24.72 -4.89,102.66 -75.49,41.14 32.3,129.58 121.3,99.5 115.73,46.24 227.03,152.02 27.68,-73.4 -141.94,-24.8 183.6,-233.47 95.12,-60.96 208.76,-161.96 291.51,-111.66 33.92,-141.39 56.9,-321.8 105.62,-448.93 63.89,-166.86 112.41,-182.3 173.22,-399.7l-361.75 93.02c-72.42,7.98 -14.37,-21.83 -70.48,18.8z"/>
    <path class="fil6" d="M3767.28 11395.97l77.63 15.51c121.53,85.68 -22.98,-199.9 119.87,136.66l-292.53 57.25 34.03 102.34 143.8 81.81c8.81,-7.85 13.98,-38.1 17.3,-30.87 54.29,117.66 29.65,-50.66 37.94,-59.98 105.66,-118.02 -107.47,-42.48 117.35,-92 12.39,-60.72 -40.51,-44.14 46.9,-48.96 9.91,-0.55 50.23,2.57 63.61,5.85 119.16,29.06 35.81,-8.02 124.61,56.26 -129.27,22.98 -209.1,-23.61 -324.55,69.65l263.31 7.86c-7.22,-173.34 65.11,-129 139.07,-167.61l238.64 -4.19c-14.69,-231.41 -95.08,-210.21 -113.48,-391.09 231.81,97.96 621.56,155.97 761.01,279.99 -51.17,-127.7 -172.15,-248.44 -302.64,-290.13l-388.21 -74.63c-124.73,-168.75 60.69,-114.18 -141.78,-169.74 -132.39,-29.1 -177.56,-14.21 -192.84,-162.67 -164.26,-7.03 -87.93,36.64 -245.59,100.13l88.28 271.37c4.15,5.25 11.97,17.61 15.32,23.3l32.77 129.66c-11.37,-14.29 -21.12,-31.35 -32.41,-44.22 -105.78,-121.02 -79.84,-111.07 -221.51,-156.12 -92.15,-29.3 15.32,37.63 -60.88,-67.08 -148.7,91.88 -29.1,53.46 -205.67,48.48 -61.44,-187.07 -40.32,-19.78 -71.31,-261.22 -6,13.07 -14.18,30.88 -17.02,39.64l88.37 268.29c195.96,206.11 19.66,-79.32 200.61,326.46z"/>
    <path class="fil6" d="M17534.22 16449.71c101.47,18.44 239.75,74.39 276.19,-8.05l96.85 90.93c110.91,-121.1 107.16,58.35 104.16,-175.19l32.22 75.77c17.14,179.96 -113.48,571.57 -108.98,616.46l33.09 76.12c5.06,12.09 20.65,26.58 31.08,39.8 19.11,-29.85 134.12,-94.13 71.54,-300.55 83.08,159.48 98.28,97.76 215.03,29.93l37.35 129.74 44.97 -301.34 -90.1 -175.42c-121.45,221.15 -16.34,151.26 -167.25,221.74 -42.45,-240.77 45.29,-239.71 215.15,-317.89 -161.89,-109.84 -198.88,-135.23 -70.05,-336.64 137.76,-215.3 105.15,-230.39 89.24,-493.78 -201.57,216.72 -199.56,468.43 -251.12,770.25l-109.06 -120.9c-164.17,-70.87 -51.13,-32.81 -170.45,-108.38 -67.67,-42.84 -83.27,-40.36 -164.69,-86.08l42.53 -226.64c72.49,23.89 144.11,56.78 228.57,10.27 197.38,-108.78 40.98,-144.31 23.02,-168.44l3.63 2.8c-139.38,-61.59 -262.29,-45.52 -262.09,-112.21l-138.43 -57.13c-244.33,13.38 -45.01,189.68 7.66,253.84 150.51,183.28 0.04,442.38 -20.06,670.99z"/>
    <path class="fil6" d="M6417.41 7791.01c146.13,8.37 91.44,-31.27 192.83,151.61 69.06,124.62 83.28,157.7 103.97,293.65l-84.14 -33.05c-198.73,-88.13 -182.22,-309.08 -212.66,-412.21zm-46.71 776.13c5.25,52.32 25.38,104.87 25.15,114.27 -0.08,4.14 -23.46,138.35 -25.55,185.97 134.36,-181.35 6.79,-123.98 256.37,-110.24 208.59,11.49 -83.67,56.18 68.31,-1.62l-68.74 -204.88c100.13,-170.26 137.08,-105.78 246.97,-247.96l40.23 -179.38c-186.01,-45.05 -225.45,-266.71 -238.76,-444.03 212.7,15.12 141.28,-39.09 200.7,115.09l11.65 -130.18 569.39 -126.54c-201.32,-15.72 -401.27,31.66 -585.66,97.64 -101.04,-128.08 -193.47,-269.16 -55.2,-384.1l-166.86 110.75 130.22 270.55c-207.01,-27.56 -140.92,52.43 -214.24,-104.67 -23.69,158.68 -6.63,119.55 -153.39,207.56 -100.53,-120.82 -83.2,-229.63 -162.17,-345.16 -133.37,174.08 43.83,25.27 64.96,345.28 -187.87,55.6 -312.16,26.26 -459.79,160.74l465.2 -104.63c230.38,358.47 117.5,314.01 102.22,355.79 -101.36,276.98 51.88,102.58 -51.01,419.75z"/>
    <path class="fil6" d="M3226.63 16069.2c150.04,180.09 166.43,890.37 360.81,1183.18l178.98 -1.15c-118.3,-798.64 -219.89,-285.74 -337.24,-1920.1 -40.23,331.78 -66.92,102.26 -137.01,307.38 -55.47,162.4 17.93,226.36 -65.54,430.69z"/>
    <path class="fil6" d="M16713.35 16341.84l1.54 -18.36c158.41,-20.41 281.24,17.14 306.63,11.92 17.69,-3.63 97.45,-77.07 250.49,-105.89l35.02 211.91 119.36 -472.78 -164.93 -1.94c-155.4,-23.61 -192.52,-53.81 -362.7,-86.07l-37.11 -212.54 -148.3 673.75z"/>
    <path class="fil6" d="M17998.51 15256.19c-156.4,-31.39 -221.07,-82.92 -351.13,-59.5l-33.72 228.29 -3.59 22.47 139.26 -60.45c9.79,12.56 19.27,13.94 21.95,24.32l278.76 111.03c141.9,164.85 29.1,7.19 38.1,156.2l29.45 41.06 69.69 66.14 81.46 -337.98c-6.95,-138.36 -22.94,-163.51 1.58,-293.8 17.65,-93.9 36.05,-142.9 35.93,-256.85 -57.1,5.33 -136.93,-188.57 -160.27,239.75l-4.66 99.66c-0.51,-6.79 -1.3,37.31 -3.19,55.87 -66.57,-66.61 -143.69,67.32 -57.77,-171.64l-81.85 135.43z"/>
    <path class="fil6" d="M13571.81 8252.34c142.14,-120.9 183.01,-228.3 290.6,-393.14 -11.13,-2.45 -28.78,-10.35 -34.15,1.73 -5.29,11.97 -26.26,2.69 -33.68,3.44 -65.19,6.87 -107.04,102.5 -255.15,-111.23 66.18,-23.81 53.54,-36.13 124.1,-25.23 168.09,25.94 56.74,31.86 54.29,56.54 -26.93,-56.38 -30.52,-126.03 -32.57,-131.28l-118.69 -138.16c13.15,-11.33 34.43,-43.27 41.1,-31.94 0.04,0 71.43,-22.74 106.45,-112.17l-121.33 -76.64c-53.31,165.71 -88.72,211.2 27.44,339.84 -216.53,29.41 -170.02,27.28 -205.63,207.76 -48.81,247.29 -16.9,78.61 -168.64,169.55 174.16,132.9 241.05,54.37 325.86,240.93z"/>
    <path class="fil6" d="M16137.83 11453.77l-97.76 -15.24c88.72,130.18 200.42,294.04 279.27,381.38 196,28.66 181.47,-8.34 349.51,-96.62l-152.37 -148.7c-301.97,-3.24 -4.97,70.52 -297.75,20.3 38.97,-50.23 96.66,-85.29 100.73,-89.32l94.36 -166.1c-85.76,4.18 -32.29,-38.82 -205.75,-46.08l-70.24 160.38z"/>
    <path class="fil6" d="M16408.1 10276.56c81.06,-21.48 122.87,-59.15 184.94,-106.21 181.11,-137.37 141.87,24.6 106.45,-194.5 -70.48,7.38 -124.26,23.18 -207.21,87.81 -160.54,125.05 -102.74,86.55 -84.18,212.9z"/>
    <path class="fil6" d="M16627.39 10656.67c132,-18.99 228.93,-70.64 250.84,-218.98 -139.93,-4.3 -3.08,-70 -144.35,50.46 -100.8,85.92 -79.64,85.49 -106.49,168.52z"/>
   </g>
   <g>
    <polygon class="fil7" points="4927.32,19798.85 5137.34,19994.34 5585.79,19549.12 5301.35,20131.82 5528.82,20358.81 6160.88,19954.97 5679.25,20486.94 5919.87,20721.2 6669.71,19917.38 6324.89,19582.01 5772.08,19911.42 6056.84,19319.44 5689.99,18992 "/>
    <path class="fil7" d="M11836.61 21849.57l-228.57 -618.12 -348.33 11.84 -137.56 627.56c-176.49,-305.64 -44.62,-787.55 -538.84,-529.4l360.73 1060.54 382.6 -35.77 106.49 -685.84 240.57 622.46c406.92,46.28 384.93,-37.86 427.77,-401.94 27.09,-230.31 120.5,-559.41 59.3,-754.34l-281.32 33.68 -42.84 669.33z"/>
    <path class="fil7" d="M14409.26 20142.01l280.26 479.06c-403.01,-95.04 -585.03,-373.28 -914.17,-55.04l578.56 921.23 270.03 -158.37 -311.49 -502.86c345.56,67.63 695.63,391.44 937.15,74.7l-571.81 -905.72 -268.53 147z"/>
    <path class="fil7" d="M6712.94 21266.59l244.96 161.05c168.99,-172.66 174.44,-349.98 335.14,-492.16 42.37,387.18 -20.85,706.6 352.16,842.66l531.65 -955.86 -251.67 -158.73 -303.08 496.79c-113,-670 6.43,-688.09 -380.11,-843.02l-529.05 949.27z"/>
    <path class="fil7" d="M13404.32 21614.13c-99.54,-110.24 -236.71,-402.11 -207.61,-526.76 395.04,-197.85 625.82,413.71 207.61,526.76zm-649.98 -611.17l401.74 997.04c1339.73,-364.35 792.17,-1277.03 276.55,-1258.15 -193,7.07 -558.3,142.22 -678.29,261.11z"/>
    <path class="fil7" d="M4817.36 19504.38l476.81 -314.49c-83.95,-183.12 -360.69,-631.46 -456.87,-328.11 -61.12,192.72 146.37,57.89 -35.34,250.88 -249.06,-90.85 -97.13,-414.89 124.93,-467.25 331.78,-78.22 327.08,226.56 466.42,379.05l208.32 -152.18c-156.52,-440.75 -610.34,-801.64 -1038.35,-450.94 -412.01,337.63 -139.93,940.55 254.08,1083.04z"/>
    <path class="fil7" d="M8435.86 21580.45c16.11,-128.01 66.69,-197.46 168.76,-300.63l-18.13 352 -150.63 -51.37zm-604.38 275.95l318.91 115.53 151.35 -174.83 251.31 86.39c133.77,263.16 -91.84,212.06 377.23,297.31l-26.26 -1142.78 -391.91 -132.2 -680.63 950.58z"/>
    <path class="fil7" d="M16613.57 18937.51c-111.89,-25.03 -202.31,-131.2 -243.61,-258.58l310.42 136.89 -66.81 121.69zm-627.75 -269.79l671.66 931.5 209.3 -233.82c-76.99,-319.31 -158.53,-108.9 50.5,-444.31 242.28,2.25 288.39,84.49 388.8,-245.75l-1074.12 -348.13 -246.14 340.51z"/>
    <path class="fil7" d="M10142.95 22096.78c-139.62,130.06 -228.34,25.39 -408.62,-7.86l-19.9 233.15c200.07,151.03 691.84,167.41 786.99,-111.3 131.05,-383.71 -264.26,-392.35 -399.3,-618.71 152.92,-109.02 189.17,-51.33 363.85,0.15l36.52 -276.42c-262.29,-45.05 -660.84,-116.56 -755.68,201.6 -117.31,393.73 258.46,356.66 396.14,579.39z"/>
    <path class="fil7" d="M16557.47 19698.29l-182.46 -197.66c-138.63,152.88 -285.07,470.85 -557.47,209.11 -268.85,-258.31 51.96,-423.35 172.66,-567.46l-201.25 -181.43c-1092.28,692.94 331.35,1839.2 768.52,737.44z"/>
    <path class="fil7" d="M12345.4 21103.01c-15.63,174.52 146.72,890.52 220.4,1070.29l308.76 -43.95c1.43,-203.26 -165.12,-933.63 -261.14,-1082.96l-268.02 56.62z"/>
    <polygon class="fil7" points="14811.21,19847.14 15500.09,20713.97 15770.83,20507.79 15085.39,19657.46 "/>
    <path class="fil7" d="M6185.24 20898.36c120.47,121.38 121.81,124.3 280.37,171.99l595.82 -888.82 -271.81 -203.02 -604.38 919.85z"/>
   </g>
   <g>
    <path class="fil8" d="M15105.17 10264.2c115.05,132.47 224.9,279.62 364.36,185.26 -9.12,96.73 -52.99,162.51 47.81,253.96l186.6 -68.78c47.07,46.27 56.98,67.16 104.12,117.27 36.48,38.73 55.16,23.76 13.82,13.26 66.37,227.78 49.28,62.27 -59.82,134.72l20.3 129.59c168.28,-79.6 62.66,-108.07 259.49,194.42 99.93,153.59 45.44,-120.98 95.98,229.87l70.24 -160.38c173.46,7.26 119.99,50.26 205.75,46.08l-94.36 166.1c-4.07,4.03 -61.76,39.09 -100.73,89.32 292.78,50.22 -4.22,-23.54 297.75,-20.3l152.37 148.7c10.86,167.84 38.38,222.85 202.12,277.37 -9.91,4.94 -84.26,31.55 -84.54,31.71 -100.01,55.35 -54.6,11.84 -117.7,83.63l154.15 35.57c60.29,62.78 99.14,-8.88 199.82,-97.96 79.45,-70.28 -84.93,-16.31 89.16,-73.76 -53.42,-92.74 -270.03,-249.93 107.24,-307.89 101.95,-15.64 31.78,119.32 160.89,-137.44l-2.72 87.14 190 12.39c-29.66,-93.53 -22.67,-77.3 -20.1,-141.94l28.43 -162.4 -58.83 -72.69c-93.66,80.94 -281.29,91.92 -378.85,97.61 -0.44,0.04 -132.27,-85.37 -315.6,161.29 -48.72,-132.19 44.34,-143.17 -28.94,-261.54l-207.41 168.32c110.32,-118.45 57.65,-20.1 191.42,-177.84 -125.79,-61.95 -221.42,-45.44 -125.08,-11.69l49.94 -236.07c45.13,-148.66 78.06,-113.16 137.25,-235.05 -159.83,-4.38 -43.67,-33.01 -202.63,26.69 -160.43,60.26 -59.78,31.55 -144.91,94.33 -107.91,79.56 -199.67,99.38 -200.34,191.5 -4.26,-163.66 111.66,-27.25 252.14,-290.17 -110.83,-59.19 -37.78,-32.02 -136.02,-35.81 -149.09,-5.73 -47.81,27.4 -299.56,76.2 26.1,-258.54 -115.57,-36.44 -6.2,-202.16 150.83,-228.57 184.31,-16.03 146.37,-289.25 -177.68,-11.1 -199.16,21.83 -303.52,133.57l-122.91 -114.78c-229.28,68.98 -167.69,182.65 -217.95,97.92 -5.61,-9.44 -21.28,11.77 -46.12,17.41l-53.26 -239.47c-153.36,28.08 -140.21,-16.66 -253.61,111.27 -120.34,-452.01 17.26,6.2 -231.06,-324.56 4.46,10.62 15.32,22.11 18.84,28.94 3.51,6.87 13.62,21.36 17.61,30.05l48.8 190.47z"/>
    <path class="fil8" d="M2745.09 13296.45c267.78,157.93 3.43,83.46 120.26,336.28 128.48,-40.59 25.04,-113.12 237.66,-79.88 0.91,-91.68 70.63,-61.83 -39.13,-205.27 -81.02,-105.9 25.43,-190.28 -134.92,32.06 78.26,-224.78 33.64,-29.5 107.71,-176.14l18.56 -382.44c-132.27,-88.44 -124.61,-112.49 -242.63,-128.92 49.91,-25.11 36.33,103.69 43.04,-151.18 23.69,159.95 39.17,40.39 158.61,176.77l101.16 155.01c5.29,7.23 16.3,21.4 25.34,31.31 10.39,-327.67 -16.34,-478.54 169.35,-346.35l17.41 272.16c131.68,-60.45 88.33,-134.48 85.09,-171.59 57.53,-181.04 73.24,-403.01 98.2,-591.83 28.15,-213.13 86.19,-432.86 -56.5,-593.64 -161.65,83.59 -119.68,179.3 -267.9,329.02 -114.11,115.26 -216.02,184.59 -323.06,317.37 -146.64,181.87 -104.4,901.7 -118.25,1177.26z"/>
    <path class="fil8" d="M5700.85 8634.58l-89.67 35.65c69.02,79.25 -141.47,39.45 165.32,120.55 -137.64,-4.23 -49.67,-78.34 -133.93,71.35l162.8 64.51c5.21,2.06 23.61,21.17 27.36,12.64 3.83,-8.65 19.23,7.42 27.44,13.42 -113.79,27.56 -203.11,58.04 -307.07,17.22 -84.22,-33.09 -51.52,-44.74 -104.43,-131.76l-125.88 95.04c-6.75,-13.47 -159.47,-49.83 2.45,-132.19 -133.38,-7.59 -95.59,117.7 -112.96,74.82 -3.87,-9.56 -10.7,25.82 -16.39,38.57 -65.7,-341.81 -98.47,-179.85 -189.68,-196.78l175.98 272.59c4.26,-8.05 14.65,25.27 20.81,38.46 -13.54,0.39 -31.15,-0.95 -40.67,-1.15l-296.45 39.84c145.15,101.79 122.72,56.51 223.4,124.3l-172.22 321.67c-96.42,96.38 146.13,61.88 -145.46,52.83l-44.38 147.52c164.8,162.87 29.69,94.28 249.42,87.85l17.21 -73.25c169.59,-22.58 160.15,-40.82 246.62,-158.8 -46.67,-86.07 -151.62,-105.54 -225.61,-156.79 264.18,-196.47 169.9,-85.13 174.79,-174.08 0.6,-10.59 -2.76,-26.74 -3.39,-37.4l-18.92 -90.26c153.04,153.16 20.06,75.73 180.21,70.4 -6.28,-95.94 -80.31,-68.42 -48.84,-212.02 80.23,26.41 106.05,-13.51 191.49,219.68 167.65,-80.03 94.65,-0.51 155.61,-176.29l20.65 163.97c252.5,-153.9 22.98,-167.21 266.52,-117.54 17.76,58.87 -26.69,13.9 58,43.12 208.51,71.9 -44.18,-39.21 82.36,17.33 -2.92,-217 -78.37,-36.05 58.2,-212.9 -362.5,-6.27 7.66,30.49 -261.74,106.89 -14.76,-70.84 -198.05,-339.57 183.33,-137.21l-130.42 -153.32c182.61,-17.57 157.7,-21.95 348.41,31.79 -83.99,172.19 -104.12,64.04 -54.29,301.22l43.9 131.88 336.13 -156.16c56.11,-40.63 -1.94,-10.82 70.48,-18.8l361.75 -93.02 44.62 -0.2 -93.11 -160.22c-0.23,-10.82 14.42,-43.24 16.07,-50.5 0.91,-3.99 6.44,-12.72 7.23,-23.77 0.75,-10.82 8.53,-15.91 5.88,-23.53l-314.8 93.77c-151.98,57.8 140.28,13.11 -68.31,1.62 -249.58,-13.74 -122.01,-71.11 -256.37,110.24 2.09,-47.62 25.47,-181.83 25.55,-185.97 0.23,-9.4 -19.9,-61.95 -25.15,-114.27l-229.13 -124.96c-106.69,95.23 -77.59,47.77 -99.22,219.88 -71.19,-62.46 -98.48,-40.55 -341.5,-27.48z"/>
    <path class="fil8" d="M3345.6 11280c204.01,60.14 82.32,65.19 196.67,-93.3 36.79,147.36 43.94,66.14 13.03,205.24 183.08,49.99 30.6,23.29 211.98,4.03 -180.95,-405.78 -4.65,-120.35 -200.61,-326.46l-88.37 -268.29c2.84,-8.76 11.02,-26.57 17.02,-39.64 30.99,241.44 9.87,74.15 71.31,261.22 176.57,4.98 56.97,43.4 205.67,-48.48 76.2,104.71 -31.27,37.78 60.88,67.08 141.67,45.05 115.73,35.1 221.51,156.12 11.29,12.87 21.04,29.93 32.41,44.22l-32.77 -129.66c-3.35,-5.69 -11.17,-18.05 -15.32,-23.3l-88.28 -271.37c157.66,-63.49 81.33,-107.16 245.59,-100.13l-52.64 -170.38c-223.91,172.04 -184.54,211.36 -271.05,335.18l-174.36 17.18c-69.93,-252.15 -83.67,4.7 -165.64,-292.18 152.37,-7.82 9.56,-28.9 230.11,83.98 91.57,46.83 71.86,126.86 121.73,60.17 8.77,-11.72 28.51,14.81 43.36,20.93 -68.27,-312.71 -169.11,-64.44 -217.92,-393.06 117.39,-144.04 189.37,-90.85 181.16,-285.23 -23.81,-173.3 -81.26,-167.69 -247.92,-156.16l-10.82 244.52c0.16,4.58 0.67,18.16 0.75,22.39l-1.19 38.61c-0.11,2.61 -1.1,13.86 -1.3,16.23l-1.89 28.35c-45.88,173.73 -141.36,27.72 -330.21,186.96l8.96 168.16c-105.26,-26.85 -360.52,38.14 -191.77,290.01 65.39,97.6 142.54,293.32 229.92,347.06z"/>
    <path class="fil8" d="M17708.9 10384.51l58.31 87.14c-175.5,35.14 -168.32,-43.24 -284,-65.03l-62.11 257.04c35.38,27.28 87.3,61.44 89.11,67.79l-98.98 340.35 -40.63 68.07c259.68,24.96 213.13,-61.91 405.18,-107.51 -17.92,-118.25 -6.79,-219.81 -6.91,-224.39l74.43 139.66 294.71 57.49 30.12 -126.98 46.91 -107.12 -93.18 -34.79c-50.07,-129.98 -33.76,-34.71 -57.81,-142.89 -14.57,-65.62 -10.5,-201.29 -12.51,-211.71 -28.59,-148.94 -101.32,-91.96 -197.3,-251.28 29.17,-108.54 -129.87,-23.49 71.42,-112.45l-88.76 -77.47c-128.12,-1.74 -143.92,32.97 -235.48,112.25l107.48 331.83z"/>
    <path class="fil8" d="M3407.78 17609.67l9.44 130.57c144,-125.28 139.02,-90.69 252.38,-164.17 8.02,-5.17 18.44,-15.28 26.3,-20.42l52.83 -38.3c74.58,-36.72 82.4,-4.58 108.18,-1.14 -140.44,-105.19 -14.49,11.06 -72.81,-155.29l-302.92 61.32c-275.04,-564.42 -238.72,-743.44 -254.55,-1353.04 -64.2,75.42 -22.98,-9.59 -57.68,103.37l-88.29 375.69c-127.69,610.62 -86.9,648.8 327.12,1061.41z"/>
    <path class="fil8" d="M17052.28 15415.98l212.38 61.48c59.94,144.83 -14.01,33.8 112.45,143.64l-213.09 58.16c211.47,86 165.12,-4.07 91.92,147.91l-227.35 -61.76c-51.05,-226.59 1.66,-96.49 23.69,-349.43zm0 0c-117.43,115.02 -26.81,135.31 -190.63,252.11l37.11 212.54c170.18,32.26 207.3,62.46 362.7,86.07l101.87 0.91 93.26 -609.08 145.07 29.5 -9.24 -104.44c-56.27,-109.92 14.88,-175.7 -24.76,-330.44 -138.47,-49.47 -25.19,-17.88 -171.24,23.06 -32.53,9.12 -41.18,-49 -160.86,52.2 -142.02,148.22 -0.87,130.22 -156.35,270.82 -112.81,101.98 -4.39,-18.4 -64.99,45.68l38.06 71.07z"/>
    <path class="fil8" d="M18117.59 15719.61l-133.06 551.08 109.06 120.9c51.56,-301.82 49.55,-553.53 251.12,-770.25 15.91,263.39 48.52,278.48 -89.24,493.78 -128.83,201.41 -91.84,226.8 70.05,336.64 -169.86,78.18 -257.6,77.12 -215.15,317.89 150.91,-70.48 45.8,-0.59 167.25,-221.74l90.1 175.42c62.07,-111.46 61.48,-127.61 78.02,-251.71 35.58,-266.79 10.39,-101.47 -27.32,-275.32 -44.38,-204.37 9,-418.72 14.65,-635.25l-164.33 -113.28 -81.46 337.98 -69.69 -66.14z"/>
    <path class="fil8" d="M4110.6 9245.67c46.79,-92.43 -80.55,-153.91 104.91,-38.3 106.72,-96.53 231.29,-209.66 258.65,-395.03l101.6 36.24c257.2,-55.71 160.78,82.88 209.81,-16.78 4.94,-10.03 19.67,0.59 29.38,-0.59l-108.82 -124.49c-5.29,-19.74 -21.28,-18.44 -31.94,-27.72 -131.01,20.1 -56.82,10.62 -156.59,33.6 -618.24,142.54 -97.73,30.68 -543.42,51.84l-155.72 214.4 292.14 266.83z"/>
    <path class="fil8" d="M17693.54 12293.12l-125.29 -185.85c-191.49,11.92 -78.73,112.21 -276.86,-4.11 44.46,-145.61 -63.01,25.79 46.67,-79.44 5.93,-5.68 45.45,-11.09 72.46,-21.91l-36.84 -320.06c-159.79,112.53 -59.54,-41.22 -132.75,191.62 -64.79,-148.3 37.91,-92.2 -203.77,-85.56l78.45 147.03c5.96,9.2 10.74,22.71 17.61,31 49.59,59.9 19.23,33.52 96.7,60.13l-151.35 112.69c93.3,158.37 39.41,143.56 182.66,240.02l82.32 -159.99c98.63,100.77 88.05,53.03 114.7,144.4 2.49,8.6 4.38,28.74 6.12,36.32 2.02,8.81 3.24,28.35 6.67,42.13 124.69,-89.12 48.06,-3.04 94.13,-95.99 4.15,-8.33 1.35,-44.69 -0.04,-59.77 112.34,149.21 44.66,115.64 187.24,146.05 17.37,-164.57 97.72,-70.99 -58.83,-138.71z"/>
    <path class="fil8" d="M15679.38 5583.11c-153.75,100.13 -186.72,116.47 -219.76,281.63l208 41.9c73.67,-76.05 132.58,-163.94 196.55,-259.18 105.62,-157.26 46.43,-192.36 157.7,-161.76l145.34 -394.92 -89.12 0c-133.14,175.11 -335.18,309.91 -398.71,492.33z"/>
    <path class="fil8" d="M17907.26 16532.59l-100.8 467.57c90.14,175.9 63.49,104.9 -14.45,230.62 71.43,-7.82 172.39,34.19 248.51,-9.36l141.27 -240.45c159.99,342.56 -43.39,28.23 37.2,403.84 120.98,-93.97 71.9,-184 103.76,-360.14l-37.35 -129.74c-116.75,67.83 -131.95,129.55 -215.03,-29.93 62.58,206.42 -52.43,270.7 -71.54,300.55 -10.43,-13.22 -26.02,-27.71 -31.08,-39.8l-33.09 -76.12c-4.5,-44.89 126.12,-436.5 108.98,-616.46l-32.22 -75.77c3,233.54 6.75,54.09 -104.16,175.19z"/>
    <path class="fil8" d="M17597.83 14465.92c-63.02,-120.51 -68.35,-66.25 -237.93,-82.09 -125.68,112.41 -112.77,52.2 -168.48,241.92 3.79,2.13 11.57,-1.1 12.48,3.71 0.9,5.14 11.68,3.99 13.03,4.82l155.25 152.6c104.16,-46.07 36.95,-81.1 122.99,-17.57l8.37 165.56c68.86,-50.82 68.78,-18.4 118.65,-104.08 105.46,-181.19 67.4,-223.75 -24.36,-364.87z"/>
    <path class="fil8" d="M4166.86 14775.36l-54.6 -105.23c-200.78,-197.73 -50.98,-198.76 -260.64,-101.39 -143.56,66.68 -67.04,5.17 -278.08,43.15 27.83,223.13 -54.45,61.52 70.67,275.36l61.99 -151.54c295.5,-6.08 303.12,147.32 332.85,214.76 211.04,-44.9 -15.79,6.79 240.85,57.72 70.17,-230.23 61.44,-80.35 -124.8,-127.18 -11.73,-2.92 -89.32,-19.54 -104.32,-21.67 10.5,-117.51 -16.39,2.25 116.08,-83.98z"/>
    <path class="fil8" d="M17276.19 11068.84c56.03,-144.35 0.24,-6.71 72.77,-102.22 55.04,-72.41 -0.71,41.14 73.95,-115.29l-210.56 -59.7 -204.53 48.96c-20.1,57.8 -31.67,-18.13 -32.54,134.48 -0.03,10.42 19.86,133.49 22.16,145.34l-144.87 14.57c97.68,183.6 -38.97,76.6 147.16,196.19 70.63,-161.45 46.27,-175.27 276.46,-262.33z"/>
    <path class="fil8" d="M4713.08 17521.58c57.21,-28.07 138.67,-86.94 169.78,-100.88 131.21,-58.87 43.67,15.75 204.92,-73.48l-126.5 -319.03 -116.99 -25.15c103.25,390.06 15.47,-16.47 -74.59,314.45l-64.4 -42.21c-1.81,-0.67 -10.7,-3.48 -15.16,-6.75l2.73 85.28c-7.58,28.71 124.57,-17.05 -51.89,36.05l72.1 131.72z"/>
    <path class="fil8" d="M17610.07 15447.45c-86.47,11.57 -63.45,-12.63 -63.45,77.43l138.43 57.13c-0.2,66.69 122.71,50.62 262.09,112.21l-3.63 -2.8 144.63 -12.87c-9,-149.01 103.8,8.65 -38.1,-156.2l-278.76 -111.03c-2.68,-10.38 -12.16,-11.76 -21.95,-24.32l-139.26 60.45z"/>
    <path class="fil8" d="M16572.55 12457.1l42.6 -15.16c-24.28,-206.03 -59.07,-158.06 53.58,-325.94l-74.11 -67.88 -179.38 117.43 157.31 291.55z"/>
   </g>
   <g>
    <path class="fil9" d="M14868.15 8741.66l31.66 210.45 -231.61 -260.48 214.36 -222.72c187.63,204.05 97.52,140.32 -14.41,272.75zm703.48 -2251.13c-134.68,60.21 -23.25,-107.68 -106.76,56.26l116.51 61.87c7.31,3.87 -6.71,-23.57 37.71,21.64l-174.28 173.77 -269.64 504.8c-243.65,-174.09 -313.46,-137.52 -529.2,-264.82l116.4 -195.48c93.1,60.88 89.43,71.34 216.06,94.4l106.05 -91.52 -190.59 -158.21 46.59 -128.6c-122.95,-84.97 -29.06,0.98 -82.68,-134.53 -386.74,611.29 -239.23,536.16 -569.67,554.4 -26.14,178.66 -119.52,317.25 -234.02,457.46l-340 -71.07c-35.02,89.43 -106.41,112.17 -106.45,112.17 -6.67,-11.33 -27.95,20.61 -41.1,31.94l118.69 138.16c2.05,5.25 5.64,74.9 32.57,131.28 2.45,-24.68 113.8,-30.6 -54.29,-56.54 -70.56,-10.9 -57.92,1.42 -124.1,25.23 148.11,213.73 189.96,118.1 255.15,111.23 7.42,-0.75 28.39,8.53 33.68,-3.44 5.37,-12.08 23.02,-4.18 34.15,-1.73l149.25 -76.64c181.67,-74.98 225.97,-328.82 361.12,-478.75l510.13 149.69c-74.58,-191.7 -29.73,8.41 -173.84,-163.62 341.93,64.4 320.25,155.13 310.66,540.02 -115.1,-150.55 -122.4,-64.08 -171.13,97.92 126,58.79 34.35,24.32 129.71,-32.65 -60.69,86.98 -162.76,271.21 -208.28,358.86 -32.69,62.98 -44.85,127.3 -89.08,180.88 -68.42,82.96 -29.49,28.51 -48.01,29.1l-154.62 107.83c42.21,86.35 9.4,83.94 78.85,46.2 -112.41,229.08 -80.19,41.73 -67.12,228.92 13.62,195.53 -55.56,105.03 -95.95,317.06 139.1,-112.02 154.86,-48.01 224.75,-164.17 160.58,-266.8 -111.86,-0.44 23.45,-181.83l273.35 310.9c291.39,-434.05 150.39,-624.99 76.2,-802.67 -59.27,-141.98 -41.18,-163.98 60.33,-340.86l148.78 -222.42c116.16,-258.02 -53.62,-179.61 149.21,-486.12 233.03,-352.16 233.46,-487.31 546.02,-960.69 -150.75,-132.9 -92.83,16.71 -99.78,-171.16l-148.3 -38.61 -61.63 91.52c38.93,86.11 -48.65,-13.5 81.57,70.36l77.03 38.26c-141.35,173.14 -31.35,163.34 -173.45,184z"/>
    <path class="fil9" d="M11923.67 7133.72c180.68,83.11 43.2,22.46 257.24,0.95 6.2,-0.64 20.49,-0.72 26.49,-1.39 139.11,-15.75 -44.61,15.28 48.81,-4.62 56.54,-12.04 36.76,14.97 71.38,-37.23l-62.34 141.95c-3.99,9.87 -13.35,49.03 -16.35,41.65 -3.16,-7.86 -9.95,30.05 -16.78,44.3l-27.16 -82.48c-7.9,-9.4 -25.94,-21.01 -34,-28.98l-109.05 -32.54c191.89,210.3 42.52,66.46 -86.39,227.43 67.2,29.34 -74.15,126.59 195.01,9.71 11.61,-5.05 96.54,-93.77 115.53,-114.34l86.7 307.93c-20.09,-83.31 -107.04,74.35 33.25,-40.35l138.03 -71.66c163.51,-14.73 57.14,83.74 83.71,209.54l125.6 -96.62c8.61,59.94 1.93,59.43 20.37,103.88 169.63,64.6 137.49,97.33 314.97,97.45 138.66,-84.02 65.89,-49.28 247.01,-40.67 -2.29,-156.51 -28.67,-91.92 -62.19,-253.52l272.04 -175.79c-59.42,-94.4 -123.58,-209.77 -166.89,-277.96 -3.16,-5.02 -10.74,-15.8 -13.63,-20.53l-30.48 -59.66c-85.48,-127.46 24.64,-71.08 -149.17,-111.11l-120.03 -61.64 -72.1 152.13 -43.31 133.7c-0.04,12.08 -13.54,95.43 -16.07,110.43 -162.36,-301.38 -37.16,-66.17 -278.52,-243.65 -147.08,-40.16 -60.25,-0.08 -204.45,78.69l-157.85 -178.63 10.62 -71.66c-0.64,-4.78 -3.91,-18.56 -5.02,-23.69 -60.29,-279.15 -166.82,-199.79 -222.81,-199.24 9.32,107.05 -7.22,236.04 100.65,226.6 -192.37,108.58 -116.48,91.68 -358.83,96.58 31.82,142.54 -120.94,117.15 141.47,167.73 35.1,147.67 29.42,54.57 -35.46,77.31z"/>
    <path class="fil9" d="M8230.82 7187.22c51.65,-238.64 18.72,118.41 54.69,-99.78 4.02,-24.4 16.78,-30.04 29.22,-48.25l122.51 94.84c-140.32,-2.92 -93.41,76.17 -100.68,136.1 -90.26,-35.25 -64.24,-4.81 -105.74,-82.91zm-71.07 849.81c0,0 -84.14,-63.05 3.44,-134.6 2.76,-2.29 13.42,-10.46 17.01,-12 159.83,-68.63 101.83,25.23 226.09,72.49 73.08,-146.76 -83.31,94.92 4.34,-172.66 74.9,-228.58 72.14,-38.62 5.53,-233.67l128.09 -231.89 91.6 -662.54c-227.59,161.53 -34.04,30.48 -121.45,140.76 -262.45,-7.78 -259.1,-101.23 -421.26,201.25 285.83,6.48 173.1,-130.14 303.55,-6.83 -295.69,78.53 -127.53,44.62 -220,113.48l-127.02 89.11c-196.79,184.23 -238.29,16.98 -382.56,59.23 -190.75,55.91 -62.74,-14.69 -134.88,116.63 149.92,52 143.96,52.32 325.51,27.48 1.74,30.13 -29.18,53.94 71.9,73.88 -167.69,27.72 -236.08,-20.49 -367.71,81.77 89.78,111.31 43.11,72.45 195.05,98.24 -113.88,59.26 -87.86,49.23 -116.48,152.68 304.74,350.5 165.16,-92.94 366.65,214.56l152.6 12.63z"/>
    <path class="fil9" d="M16714.89 16323.48l-8.25 179.53c146.8,26.1 160.81,-111.3 380.94,93.97 -70.76,23.81 -161.45,-27.99 -260.79,-26.45 11.8,12.24 35.69,10.07 38.61,33.36 15.91,125.25 190.12,-27.79 -9.75,122.21 316.46,-56.11 40.43,-17.73 176.53,55.87l-160.22 22.34c118.6,88.33 174.95,65.86 241.52,149.02 -61.16,25.23 -27.25,93.93 -170.57,-88.17l-67.91 126.51 -104.72 20.69c274.1,38.73 57.14,-18.4 183.8,74.11 -10.15,5.68 -28.7,-2.14 -33.2,10.82 -4.23,12.04 -25.67,7.34 -31.28,9.08 -151.61,46.71 29.03,-117.59 -118.45,52.59l-97.09 -245.24c-15.63,15.76 -25.27,21.17 -28.03,44.74l-30.92 78.97c-42.88,153.63 18.72,9.51 -14.53,102.77 1.07,1.39 88.92,12.36 26.77,79.6 139.38,-32.77 165.24,-53.93 274.93,33.92l216.57 -38.65 -22.55 -104.64c193.99,-23.92 100.06,8.37 177.6,-138.47l159.63 8.53c121.93,-88.09 89.59,12.2 329.38,-48.6l-51.33 -173.34 -220.83 -103.41 -105.19 105.03c-145.1,-124.49 -26.69,-123.15 -216.37,-104.67 142.66,-191.14 8.13,-131.36 137.84,-214.08l-35.02 -211.91c-153.04,28.82 -232.8,102.26 -250.49,105.89 -25.39,5.22 -148.22,-32.33 -306.63,-11.92z"/>
    <path class="fil9" d="M4515.7 9788.89c-10.22,397.96 289.62,664.83 84.1,913.54l-469.15 -397.64c-193.7,40.79 -65.42,-81.81 -133.61,123.43 97.92,149.6 7.07,69.49 146.64,118.68l52.64 170.38c15.28,148.46 60.45,133.57 192.84,162.67l32.45 -105.62c106.73,181.79 86.23,92.47 237.1,163.31 75.61,35.49 185.02,136.14 260.44,186.68 -126.43,-175 -180.92,-83.08 -228.22,-284.41 132.9,-209.69 51.01,80.63 203.54,-207.72 93.85,-177.52 -5.84,-131.05 143.05,-232.28l-312.95 -246.9 128.13 -93.18 -37.08 -185.97 178.23 -145.58 -17.21 73.25c-219.73,6.43 -84.62,75.02 -249.42,-87.85l-211.52 75.21z"/>
    <path class="fil9" d="M11177.98 8271.01c-127.49,-195.01 98.87,-310.58 277.61,-289.3l-64.08 415.37 -154.3 -5.48 -59.23 -120.59zm348.33 -850.72l-41.62 472.19 -345.29 -0.28c151.23,-160.38 130.7,-21.95 135.71,-252.57l-57.8 124.05c-8.26,-149.6 40.51,-178.82 70.36,-292.45l238.64 -50.94zm-566.99 -50.54c100.48,104.91 80.11,54.92 204.64,140.01l-123.11 835.92 -241.17 24.56c100.93,70.28 -65.85,-64.13 85.09,19.7 102.82,57.05 2.06,-37.43 100.61,77.15l703.21 84.06 -11.57 -92.51 -156.28 -36.84 83.35 -867.18c26.22,-213.26 71.23,-173.61 -61.24,-296.92 172.35,-131.84 156.83,-154.58 380.82,-123.98l-22.5 -114.54c-222.69,27.79 -58.79,118.25 -203.27,-67.21 -158.88,161.26 -20.17,103.41 -261.42,109.41 193.31,250.77 124.22,90.66 26.73,174.25l33.52 116.59 -278.24 40.67c31.27,-240.42 -47.18,-321.44 147.51,-364.16l-95.82 -163.46c-190.12,130.69 174.2,510.88 -310.86,504.48z"/>
    <path class="fil9" d="M16475.73 8554.98c7.39,9.24 19.43,11.06 23.42,26.65 5.72,22.19 38.93,39.72 49.43,48.53l331.35 163.82c135.08,34.58 153.4,-77.75 405.58,-0.4 -154.74,173.69 -47.46,-109.64 -144.79,182.3 93.11,28.82 66.1,21.79 161.25,20.73 99.82,-17.26 90.66,15.08 68.15,-68.82 29.22,-68.86 28.39,25.15 5.89,-71.59l-40.32 -109.41c201.02,-1.46 136.1,48.73 257.68,-9.91 -125.72,-129.43 -370.21,-200.3 -546.26,-287.87 -88.45,-44.03 -186.33,-95.87 -266.6,-147.63 -195.48,-126 -74.74,-77.08 -178.11,-220.21l-78.65 2.02c148.06,35.45 34.11,-54.21 110.16,115.21 -219.85,-3.24 -175.31,68.07 -186.76,112.97l-8.57 51.8c-0.16,5.96 -0.24,20.02 0.28,25.98 17.61,205.59 102.89,-11.25 36.87,165.83z"/>
    <path class="fil9" d="M17377.27 11621.66l-3.59 60.09 36.84 320.06c-27.01,10.82 -66.53,16.23 -72.46,21.91 -109.68,105.23 -2.21,-66.17 -46.67,79.44 198.13,116.32 85.37,16.03 276.86,4.11l125.29 185.85c128.36,31.94 5.25,-29.53 167.17,87.22l72.93 -142.89c5.49,-7.39 15.36,-17.61 21.08,-24.44 5.21,-6.28 16.55,-14.34 21.64,-20.06l90.3 -168.12 156.75 11.96 -278.36 -36.88c-81.81,-140.48 90.34,-29.33 -145.26,-208.28l8.25 -120.66c-101.32,-41.73 -76.91,-19.82 -162.79,-41.3 -105.46,-26.29 -3.67,28.63 -108.86,-51.64 41.38,-49.44 91.13,-144.2 117.7,-185.77l-78.49 -62.55 -28.43 162.4c-2.57,64.64 -9.56,48.41 20.1,141.94l-190 -12.39z"/>
    <path class="fil9" d="M17836.9 9940.43l88.76 77.47c-201.29,88.96 -42.25,3.91 -71.42,112.45 158.72,-33.25 78.13,-1.66 219.41,-60.25l32.73 190.43c55.87,-132.23 57.25,-76.09 146.17,12.32 32.61,-193.71 -29.77,-61.4 86,-194.19l166.89 53.9 -200.5 253.57 -120.54 -122.09c-7.9,55.63 51.8,90.5 42.01,174.48 -7.97,67.95 -142.22,-28.11 44.07,146.84l-148.62 150.87 93.18 34.79 -46.91 107.12 83.2 45.24c-32.14,-178.78 -42.37,-114.5 109.68,-35.29 8.89,-201.69 -7.18,-45.92 -12.16,-134.96 -5.09,-91.88 -16.78,-22.03 8.77,-115.89 28.82,-105.93 62.89,-93.65 9.43,-174.79l-55.83 -42.37c130.85,-26.81 64.6,20.93 151.66,-99.93 95.99,204.17 -8.73,145.93 74.82,267.74 88.29,-124.73 25.43,-70.48 136.81,-154.66 -123.66,-438.35 167.22,-230.78 -137.4,-352.55l128.72 -122.95c-327.76,-108.47 -100.41,89.62 -271.22,-181.63 -132.19,47.26 -127.85,10.07 -221.42,53.03 132.62,239.31 56.81,-93.78 181.23,181.94 -46.08,1.42 -232.05,-21.6 -272.99,-32.14 -190.63,-49.04 -59.94,8.13 -198.65,-135.98l-45.88 97.48z"/>
    <path class="fil9" d="M10349.84 6412.98c9.8,11.37 23.5,25.62 32.11,31.55 7.81,5.41 22.42,20.41 31.54,25.86l116.13 25.7c-93.31,125.88 -159.24,340.16 -176.54,486.96 239.71,21.4 233.63,-78.69 221.63,-274.97l200.26 -385.72c86.39,6.52 26.89,3.24 93.54,18.09 24.44,5.41 44.18,86.55 85.08,20.57 8.81,-14.22 31.59,8.29 47.62,11.45 -26.81,-107.12 29.93,-55.95 -80.51,-104.28 -198.88,-94.88 -213.25,-165.71 -308.29,-15.75l-5.92 -115.77c-2.88,-9.28 -12.83,-27.56 -15.83,-35.89 -3.12,-8.65 -13.86,-23.3 -20.5,-35.06 -30.32,168.59 -36.83,295.53 -220.32,347.26z"/>
   </g>
   <g>
    <path class="fil10" d="M17300.28 12521.26c105.46,-52.28 -11.26,-80.11 151.61,1.18 -188.49,110.16 -108.73,24.8 -151.61,-1.18zm237.53 40.11l-33.68 -136.33c175.19,-1.31 53.78,-52.75 164.53,68.38l-130.85 67.95zm-714.93 -409.8l199.31 -14.85c172.39,297.52 224.59,473.65 294.35,733.85l183.05 790.55c93.34,73.12 127.1,35.97 55.87,213.01 -17.21,184.16 -25.43,229.49 70.91,347.27l218.98 -388.96 118.93 166.98c120.78,-231.62 231.93,-166.23 339.2,-242.24 116.96,-82.83 -24.95,-48.68 326.14,-267.58 -40,-33.48 -131.68,-95.94 -172.86,-119.04 -196.12,-109.93 56.5,21.4 -231.22,-4.74 -55.87,-5.09 -37.35,-1.07 -136.06,24.2l133.93 -1353.23 -156.75 -11.96 -90.3 168.12c-5.09,5.72 -16.43,13.78 -21.64,20.06 -5.72,6.83 -15.59,17.05 -21.08,24.44l-72.93 142.89c-161.92,-116.75 -38.81,-55.28 -167.17,-87.22 156.55,67.72 76.2,-25.86 58.83,138.71 -142.58,-30.41 -74.9,3.16 -187.24,-146.05 1.39,15.08 4.19,51.44 0.04,59.77 -46.07,92.95 30.56,6.87 -94.13,95.99 -3.43,-13.78 -4.65,-33.32 -6.67,-42.13 -1.74,-7.58 -3.63,-27.72 -6.12,-36.32 -26.65,-91.37 -16.07,-43.63 -114.7,-144.4l-82.32 159.99c-143.25,-96.46 -89.36,-81.65 -182.66,-240.02l151.35 -112.69c-77.47,-26.61 -47.11,-0.23 -96.7,-60.13 -6.87,-8.29 -11.65,-21.8 -17.61,-31l-78.45 -147.03c241.68,-6.64 138.98,-62.74 203.77,85.56 73.21,-232.84 -27.04,-79.09 132.75,-191.62l3.59 -60.09 2.72 -87.14c-129.11,256.76 -58.94,121.8 -160.89,137.44 -377.27,57.96 -160.66,215.15 -107.24,307.89 -174.09,57.45 -9.71,3.48 -89.16,73.76 -100.68,89.08 -139.53,160.74 -199.82,97.96z"/>
    <path class="fil10" d="M8584.56 7335.56l-2.73 233.63c104.95,-50.03 89.04,64.24 151.66,-420.82 -38.69,74.54 71.27,-4.66 133.54,-34.91 -0.48,-238.2 -23.42,-231.57 117.11,-373.71 -67.21,731.67 -108.19,467.57 -152.81,805.94l-83.03 -54.88c-21.2,250.88 30.28,138.55 -106.57,229.56l84.77 48.33 -41.49 296.96c457.77,-275.44 145.22,-555.58 348.68,-909.24l114.42 -50.78c-144.23,-158.44 -76.99,-30.2 -188.53,-300.98l61.24 -70.32 10.93 -431.13c-84.57,109.26 -74.58,215.35 -128.28,365.78 -97.68,273.7 -57.45,124.69 -186.92,321.76 -10.38,-132.08 83.27,-334.35 -22.19,-609.28 -115.33,174.95 -20.05,87.18 -17.76,174.44 0.04,0.47 -43.36,735.51 -92.04,779.65z"/>
    <path class="fil10" d="M16982.79 13841.72l100.8 -70.76 -190.59 -781.94 -129.27 -587.16 -148.58 40.08 -42.6 15.16c-17.97,52.08 137.01,466.1 168.71,581.71 85.41,311.14 157.54,442.34 137.13,766.82l104.4 36.09z"/>
    <path class="fil10" d="M13366.93 9015.32c113.95,75.77 268.21,225.3 391.24,96.74 74.27,-77.59 190.4,-321.04 211.99,-416.95 -143.88,-133.14 -91.48,-145.06 -305.76,-165.83 -123.23,124.45 -244.6,316.3 -297.47,486.04z"/>
    <path class="fil10" d="M14857.8 6430.11c53.62,135.51 -40.27,49.56 82.68,134.53 155.69,-57.65 132.35,-51.41 267.58,20.61 66.65,35.49 110.8,41.38 222.89,111.5l13.86 107.32 174.28 -173.77c-44.42,-45.21 -30.4,-17.77 -37.71,-21.64l-116.51 -61.87c83.51,-163.94 -27.92,3.95 106.76,-56.26 -11.33,-141.16 39.88,-53.27 -77.43,-154.58l-197.46 232.4c-67.43,-193 -66.17,-115.3 53.39,-291.79l-102.31 -93.54 -136.14 256.14c-180.6,7.34 -1.46,-6.72 -138.35,-15.99 -58.39,-3.95 -16.5,-14.77 -115.53,6.94z"/>
    <path class="fil10" d="M10985.38 8467.09c-98.55,-114.58 2.21,-20.1 -100.61,-77.15 -150.94,-83.83 15.84,50.58 -85.09,-19.7l43.28 -274.73 167.1 -62.43 -396.11 -91.17c110.76,354.14 -66.17,304.07 -227.62,513.57l599.05 11.61z"/>
    <path class="fil10" d="M2825.08 9189.8c-111.15,-231.89 -323.49,-137.05 -144.99,-534.37 277.42,-123.59 131.17,-61.16 359.55,-32.3l-183.25 -204.61c-312.55,106.93 -393.38,201.02 -411.82,492.13l380.51 279.15z"/>
    <path class="fil10" d="M15168.42 5908.06l-5.53 145.46c88.84,-107.64 85.92,-87.3 227.79,-67.92l-28.83 136.7 113.24 -111.5 173.02 95.59 148.3 38.61c6.95,187.87 -50.97,38.26 99.78,171.16l-38.3 -319.22c-60.17,-21.48 -102.22,-36.01 -190.27,-90.3l-208 -41.9c33.04,-165.16 66.01,-181.5 219.76,-281.63 -193.15,265.8 -263.95,178.46 -510.96,324.95z"/>
    <path class="fil10" d="M10998.21 7031.02c85.72,-168.64 219.1,-472.15 -72.29,-506.97l-83.2 435.78 155.49 71.19z"/>
    <path class="fil10" d="M12655.35 6960.03c241.36,177.48 116.16,-57.73 278.52,243.65 2.53,-15 16.03,-98.35 16.07,-110.43l43.31 -133.7 -230.5 -115.96 -107.4 116.44z"/>
    <polygon class="fil10" points="13391.05,8515.34 13571.81,8252.34 13458.06,8206.14 13359.23,8301.93 "/>
    <path class="fil10" d="M11124.24 6272.85c-73.99,-108.42 33.96,-64.12 -122.08,-87.77 43.04,139.18 -100.45,141.47 122.08,87.77z"/>
   </g>
   <g>
    <path class="fil11" d="M2825.08 9189.8c50.78,185.42 654.64,757.42 818.07,747.91 166.66,-11.53 224.11,-17.14 247.92,156.16l239.58 210.92 469.15 397.64c205.52,-248.71 -94.32,-515.58 -84.1,-913.54l-160.46 -31.62 -85.05 235.32c-55.75,-46.59 -764.92,-487.51 -78.1,-538.84 72.73,185.5 115.29,264.74 -99.93,314.3l110.71 84.02c15.87,-151.35 79.64,-204.81 232.01,-214.72 -194.7,-128.4 -238.09,-67.28 -237.06,-306.87 -203.19,-174.75 -909.28,-701.15 -1158.18,-707.35 -228.38,-28.86 -82.13,-91.29 -359.55,32.3 -178.5,397.32 33.84,302.48 144.99,534.37z"/>
    <path class="fil11" d="M17082.84 13205.04c106.37,-59.11 182.65,-51.8 253.49,50.78 -60.69,100.48 -126.23,125.83 -260.56,124.09l7.07 -174.87zm-83 -644.93l156.72 43.91c-129.91,92.98 -135.12,119.47 -268.93,55.59 136.97,-199.63 -136.42,87.58 34.94,-69.85 5.22,-4.77 16.15,-16.54 22.43,-20.25 156.36,-92.83 -8.33,-5.45 54.84,-9.4zm-384.69 -118.17l148.58 -40.08 129.27 587.16 190.59 781.94 -100.8 70.76c246.46,4.58 54.76,55.08 266.2,-3.95 218.11,-60.88 180.08,-31.39 250.6,-176.65l-183.05 -790.55c-69.76,-260.2 -121.96,-436.33 -294.35,-733.85l-199.31 14.85 -154.15 -35.57c-112.65,167.88 -77.86,119.91 -53.58,325.94z"/>
    <path class="fil11" d="M10998.21 7031.02l-155.49 -71.19 83.2 -435.78c291.39,34.82 158.01,338.33 72.29,506.97zm-648.37 -618.04l-184.62 833.9c297.07,40.9 372.92,-61.12 405.14,-345.25l14.49 297.99 374.47 170.13c485.06,6.4 120.74,-373.79 310.86,-504.48l8.52 -269.09c-135.39,-143.8 -131.4,-16.42 -199.07,-199.86 -6.95,-83.47 2.09,-41.9 4.89,-48.88 1.46,-3.6 7.78,-17.61 9.52,-21.44 3.35,-7.39 23.33,-39.61 30.2,-53.15 -222.53,53.7 -79.04,51.41 -122.08,-87.77 -228.18,0 -63.65,-20.22 -81.46,83.11 110.44,48.33 53.7,-2.84 80.51,104.28 -16.03,-3.16 -38.81,-25.67 -47.62,-11.45 -40.9,65.98 -60.64,-15.16 -85.08,-20.57 -66.65,-14.85 -7.15,-11.57 -93.54,-18.09l-200.26 385.72c12,196.28 18.08,296.37 -221.63,274.97 17.3,-146.8 83.23,-361.08 176.54,-486.96l-116.13 -25.7c-9.12,-5.45 -23.73,-20.45 -31.54,-25.86 -8.61,-5.93 -22.31,-20.18 -32.11,-31.55z"/>
    <path class="fil11" d="M14940.48 6564.64l-46.59 128.6 190.59 158.21 -106.05 91.52c-126.63,-23.06 -122.96,-33.52 -216.06,-94.4l-116.4 195.48c215.74,127.3 285.55,90.73 529.2,264.82l269.64 -504.8 -13.86 -107.32c-112.09,-70.12 -156.24,-76.01 -222.89,-111.5 -135.23,-72.02 -111.89,-78.26 -267.58,-20.61z"/>
    <path class="fil11" d="M6216.83 9056.07l-143.49 63.53c-126.54,-56.54 126.15,54.57 -82.36,-17.33 -84.69,-29.22 -40.24,15.75 -58,-43.12 72.13,190.91 288.15,338.18 438.43,545.39 98.15,135.27 31.5,102.15 150.67,113.72l-87.07 -257.08 131.53 -48.96c14.29,-124.62 73.28,-297.08 30.32,-380.43l-336.13 156.16 -43.9 -131.88z"/>
    <path class="fil11" d="M17118.85 17215.07c-18.05,136.73 -50.86,212.54 -73.76,325.86 -37.98,188.14 32.77,254.79 -116.08,323.69 103.57,72.17 282.82,105.26 427.53,129.62l29.85 -89.71 -27.95 -133.33c-146.92,-18.6 -159.16,10.89 -304.03,-50.9l30.92 -193.07c197.77,-78.62 150.07,28.27 382.6,-6.64 13.1,-226.6 -19.98,-104.95 -201.37,-198.48l-111.7 -34.31 58.67 -218.23 210.25 -18.95 9.75 -70.13 -159.63 -8.53c-77.54,146.84 16.39,114.55 -177.6,138.47l22.55 104.64z"/>
    <path class="fil11" d="M13196.71 21087.37c-29.1,124.65 108.07,416.52 207.61,526.76 418.21,-113.05 187.43,-724.61 -207.61,-526.76z"/>
    <path class="fil11" d="M17854.24 10130.35c95.98,159.32 168.71,102.34 197.3,251.28 2.01,10.42 -2.06,146.09 12.51,211.71 24.05,108.18 7.74,12.91 57.81,142.89l148.62 -150.87c-186.29,-174.95 -52.04,-78.89 -44.07,-146.84 9.79,-83.98 -49.91,-118.85 -42.01,-174.48l120.54 122.09 200.5 -253.57 -166.89 -53.9c-115.77,132.79 -53.39,0.48 -86,194.19 -88.92,-88.41 -90.3,-144.55 -146.17,-12.32l-32.73 -190.43c-141.28,58.59 -60.69,27 -219.41,60.25z"/>
    <path class="fil11" d="M11287.67 7471.23c-29.85,113.63 -78.62,142.85 -70.36,292.45l57.8 -124.05c-5.01,230.62 15.52,92.19 -135.71,252.57l345.29 0.28 41.62 -472.19 -238.64 50.94z"/>
    <path class="fil11" d="M6694.98 8755.52l314.8 -93.77c-53.77,-164.1 -109.45,-206.55 -76.95,-365.67l-59.62 6.6c-109.89,142.18 -146.84,77.7 -246.97,247.96l68.74 204.88z"/>
    <path class="fil11" d="M11237.21 8391.6l154.3 5.48 64.08 -415.37c-178.74,-21.28 -405.1,94.29 -277.61,289.3l59.23 120.59z"/>
    <path class="fil11" d="M17301.97 8996.61c-124.73,57.17 -85.83,15.36 -60.29,185.89 1.7,-0.63 82.92,-28.23 83.55,-28.23 89.79,2.96 17.57,-12.01 102.74,26.53 -148.07,141.39 -187.79,125.84 -131.4,337.9 90.89,-28.15 86.54,-29.53 184.35,-56.89 7.58,-96.5 -50.23,-491.93 -110.8,-534.02 22.51,83.9 31.67,51.56 -68.15,68.82z"/>
    <path class="fil11" d="M6566.54 9412.22c137.16,166.5 45.68,151.34 146.17,277.53 65.1,-95.75 133.1,-434.96 153.98,-570.31 -328.27,78.85 -89.78,177.8 -300.15,292.78z"/>
    <path class="fil11" d="M14868.15 8741.66c111.93,-132.43 202.04,-68.7 14.41,-272.75l-214.36 222.72 231.61 260.48 -31.66 -210.45z"/>
    <path class="fil11" d="M6417.41 7791.01c30.44,103.13 13.93,324.08 212.66,412.21l84.14 33.05c-20.69,-135.95 -34.91,-169.03 -103.97,-293.65 -101.39,-182.88 -46.7,-143.24 -192.83,-151.61z"/>
    <path class="fil11" d="M3928.85 14245.24l161.06 45.33 61.08 -298.62 -192.92 -44.97c-37,218.63 15.36,111.82 7.74,207.73 -0.4,5.25 -2.37,17.96 -3.32,22.7 -1.89,9.4 -32.85,65.94 -33.64,67.83z"/>
    <path class="fil11" d="M4919.15 11124.32c-75.42,-50.54 -184.83,-151.19 -260.44,-186.68 -150.87,-70.84 -130.37,18.48 -237.1,-163.31l-32.45 105.62c202.47,55.56 17.05,0.99 141.78,169.74l388.21 74.63z"/>
    <path class="fil11" d="M3459.11 13205.04c84.81,97.8 27.92,86.39 218.39,107.12l-5.45 -142.06c-288.9,-70.84 -136.65,-14.3 -212.94,34.94z"/>
    <path class="fil11" d="M3660.4 12362.34c-143.17,-9.09 -76.36,15.35 -103.37,67.75 112.29,106.21 92.51,82.28 240.26,45.96 -12.32,-35.93 69.61,-100.61 -136.89,-113.71z"/>
    <polygon class="fil11" points="4476.45,12605.91 4642.09,12650.49 4742.81,12562.64 4448.46,12501.04 "/>
    <path class="fil11" d="M12075.84 6565.5l162.01 -28.23c-203.58,-179.02 70.95,-115.45 -219.38,-179.61l57.37 207.84z"/>
    <path class="fil11" d="M17537.81 12561.37l130.85 -67.95c-110.75,-121.13 10.66,-69.69 -164.53,-68.38l33.68 136.33z"/>
    <path class="fil11" d="M3391.36 14116.76c100.84,58.08 89.07,79.84 198.6,34.04 -71.7,-135.27 -71.74,-105.07 -198.6,-34.04z"/>
    <path class="fil11" d="M3643.19 14162.37c93.93,85.8 101.47,92.19 206.69,43.67 -95.47,-87.97 -77.3,-92.75 -206.69,-43.67z"/>
    <polygon class="fil11" points="3663.64,13496.19 3669.25,13404.16 3549.37,13368.7 3557.86,13496.83 "/>
    <path class="fil11" d="M4662.78 9603.2c142.93,144.55 112.69,-64.75 105.38,-92.39l-105.38 92.39z"/>
    <path class="fil11" d="M17300.28 12521.26c42.88,25.98 -36.88,111.34 151.61,1.18 -162.87,-81.29 -46.15,-53.46 -151.61,-1.18z"/>
   </g>
   <g>
    <path class="fil12" d="M3757.1 15777.06l608.8 -231.45 175.11 522.69 -660.13 254.67 -123.78 -545.91zm355.16 -1106.93c207.44,-55.55 76.12,-36.96 187.78,31.23 -68.54,95.2 59.62,80.23 -133.18,74 -132.47,86.23 -105.58,-33.53 -116.08,83.98 15,2.13 92.59,18.75 104.32,21.67 186.24,46.83 194.97,-103.05 124.8,127.18 -256.64,-50.93 -29.81,-102.62 -240.85,-57.72 -29.73,-67.44 -37.35,-220.84 -332.85,-214.76l-61.99 151.54c-125.12,-213.84 -42.84,-52.23 -70.67,-275.36 211.04,-37.98 134.52,23.53 278.08,-43.15 209.66,-97.37 59.86,-96.34 260.64,101.39zm-554.79 -143.21c-146.96,72.81 -88.37,65.55 -214.52,4.15 33.01,-31.9 29.1,-243.03 214.52,-4.15zm774.59 -37.78c-114.94,59.26 27.6,63.8 -205.79,25.07l36.13 -147.83c250.76,48.21 121.89,18.48 169.66,122.76zm-688.87 -326.77c129.39,-49.08 111.22,-44.3 206.69,43.67 -105.22,48.52 -112.76,42.13 -206.69,-43.67zm775.11 1.18c-171.13,57.37 -167.06,16.82 -218.79,-92.35 35.94,-21.76 -42.28,-113.75 154.11,-41.77 116.71,42.8 45.29,7.66 64.68,134.12zm-1026.94 -46.79c126.86,-71.03 126.9,-101.23 198.6,34.04 -109.53,45.8 -97.76,24.04 -198.6,-34.04zm759.63 -124.81l-61.08 298.62 -161.06 -45.33c0.79,-1.89 31.75,-58.43 33.64,-67.83 0.95,-4.74 2.92,-17.45 3.32,-22.7 7.62,-95.91 -44.74,10.9 -7.74,-207.73l192.92 44.97zm-528.89 -10.85c-107.43,70.55 -84.81,73.48 -210.61,-0.4 21.33,-26.18 -46.55,-122.08 124.02,-101.75 145.07,17.3 60.45,26.42 86.59,102.15zm-886.65 157.18c-115.09,123.94 -56.38,481.31 -42.21,662.82l310.9 1.38 82.72 -153.63c20.45,87.42 -36.64,88.92 35.57,218.46 689.35,43.87 141.32,-97.6 538.21,78.89 220.12,97.84 407.31,80.08 577.13,241.37 -109.84,49.55 -378.25,106.01 -405.18,240.65 188.5,213.81 310.9,-234.22 497.06,40.12l-579.94 235.36c-64.04,-210.92 -2.48,-192.17 -126.03,-335.22 -77.15,214.95 211.64,1699.47 395.71,1815.31l64 -158.37 -206.58 -633.59 694.76 -218.51 211.04 569.72c54.1,-253.49 -356.85,-1578.14 -318.16,-2213.87 14.33,-235.72 75.18,-468.75 63.49,-697.64 -143.92,-78.89 -331.15,-52.83 -524.03,-174.79 -25.74,154.26 -85.2,214.28 -121.29,286.81l8.09 114.26 -186.44 9.95 -42.41 -140.12c87.7,-66.89 -126.07,-106.33 239.12,-16.98 -57.49,-201.73 0.04,-270.39 -95.12,-261.58 124.49,-7.11 127.41,24.4 139.77,-103.21l-214.63 -41.42 -67.36 -8.26 -105.78 0.64 -8.49 -128.13c-80.54,208.28 -52.16,84.69 -110.55,143.53 -1.54,-17.22 1.66,-37.12 2.01,-51.85 0.32,-13.66 2.09,-32.18 2.17,-48.17l-36.32 -209.58c126.11,-180.01 -38.46,-74.43 190.19,-125.71l-55.71 -146.73c-94.56,62.59 -81.53,-133.14 -74.9,94.57 13.23,-7.43 69.57,27.2 -9.48,-45.73 -138.9,-128.08 102.38,-62.54 -39.99,-14.8l-75.62 475.7c-122.08,73.12 -126.3,7.38 -190.7,122.44l70.36 42.72c62.93,62.11 70.67,80.27 129.15,159.04 -193.95,212.74 33.01,247.53 -145.1,941.42 -1.11,-7.78 -0.83,-19.98 -1.07,-23.57l-35.14 -244.21 -187.08 141.39c-24.44,-188.69 109.3,4.46 -58.2,-382.44 -58.94,1.66 44.46,-81.46 -145.02,96.42l-42.92 -154.86z"/>
    <path class="fil12" d="M10460.99 7292.13c44.14,270.23 38.74,206.14 -171.71,303.12l-77.23 556.6c-40.36,167.85 -11.02,65.7 -60.02,130.34l-96.34 -1.66c-57.96,-106.69 -6.55,-215.9 19.19,-359.23l-102.26 237.46c-131.6,-293.52 86.35,-374.86 168.16,-608.53 38.34,-109.45 15.04,-78.13 82.4,-207.17l237.81 -50.93zm-295.77 -45.25c-115.61,404.47 74.58,127.89 -167.89,424.85 -148.22,181.5 -33.8,338.85 -216.17,434.75 -197.93,104.12 -97.29,-0.23 -121.34,-19.78 -178.38,-144.9 132.87,-44.62 -98.55,-107.24 -37.82,86.28 63.89,86.04 -288.74,195.29 -143.45,44.46 -319.11,94.88 -460.54,153 -106.02,151.78 -211.8,141.99 -406.69,179.49l-238.68 -270.14c227.78,24.36 213.61,119.83 545.63,85.32 -209.9,-229.8 -26.61,102.58 -150.79,-356.62 -96.42,142.46 1.3,123.23 -98.99,261.78l-56.18 -264.66c-124.26,-47.26 -66.26,-141.12 -226.09,-72.49 -3.59,1.54 -14.25,9.71 -17.01,12 -87.58,71.55 -3.44,134.6 -3.44,134.6l-225.45 124.49c-85.72,-97.96 -63.69,-74.38 -210.37,-148.93 -122.64,-62.34 -148.7,-55 -207.45,-106.88 -220.6,127.53 -144.47,-24.88 -168.12,202.98 -175.43,-37.74 -254.04,-53.54 -419.76,74.51l-15.16 -59.9 -40.23 179.38 59.62 -6.6c-32.5,159.12 23.18,201.57 76.95,365.67 2.65,7.62 -5.13,12.71 -5.88,23.53 -0.79,11.05 -6.32,19.78 -7.23,23.77 -1.65,7.26 -16.3,39.68 -16.07,50.5l93.11 160.22c35.18,-159.75 -49.48,-94.32 107.08,-105.1 -35.34,-193.67 -81.46,-236.31 8.64,-442.22 -83.94,-82.64 -101.98,-74.15 -114.03,-167.42 154.51,-90.37 217.72,-116.47 385.01,-31.46 26.14,94.76 83.51,82.99 -66.13,116.39 173.53,67.52 79,281.53 137.52,134.13 2.53,-6.39 12.24,14.93 20.21,21.17l156.12 -51.81 -134.48 -151.02 248.95 -86.55 -36.84 120.42 232.28 65.07c-182.93,103.92 -150.51,106.85 -398.11,197.34 -152.53,55.72 -294.24,134.17 -462.32,181.55l65.9 89.39 -4.5 -14.65 -9.79 194.5c229.12,-110.36 541.64,-354.49 500.85,123.23 -153.4,63.73 -246.62,41.81 -373.56,137.84 -53.34,40.35 1.66,-49.24 -104.04,110.44l-158.68 120.62c553.44,-175.23 -13.23,-63.33 581.51,-274.77 368.86,-131.13 31.75,-49.28 345.84,-336.64 22.83,-20.89 13.27,-3.87 71.08,-64.52 13.3,-13.97 47.45,-59.3 60.76,-74.94 172.7,-9.87 -47.81,-9.83 132.79,83.08l-26.42 -250.96c80.78,52.04 19.47,74.5 417.58,-25.04 175.11,-43.74 207.37,-91.28 414.27,-148.73l495.8 -196.55c48.4,-28.59 122.79,-79.33 265.65,-25 -27.13,81.42 -38.78,129.99 -74.67,238.01l435.98 74.04 150.87 -746.33c132.27,-94.88 112.29,80.43 149.49,-118.57 7.89,-42.29 12.08,-252.26 23.88,-334.59l441.12 89.63 -374.47 -170.13 -14.49 -297.99c-32.22,284.13 -108.07,386.15 -405.14,345.25z"/>
    <path class="fil12" d="M3566.47 12530.1l213.65 40.59 -16.86 223.72 -233.31 -26.38 36.52 -237.93zm612.79 -56.06c156.12,-81.34 189.56,-42.92 235.8,97.8 -220.44,101.08 -218.94,-80 -235.8,-97.8zm-622.23 -43.95c27.01,-52.4 -39.8,-76.84 103.37,-67.75 206.5,13.1 124.57,77.78 136.89,113.71 -147.75,36.32 -127.97,60.25 -240.26,-45.96zm1165.96 -0.55l-210.84 -21.52 15.87 -207.37 216.18 -21.88 -21.21 250.77zm-680.46 -205l154.3 -29.06c-70.99,270.58 -74.9,-100.61 -99.38,249.97 -4.15,59.46 25.98,3.71 -6.79,92.51 -208.36,43.75 -111.03,56.82 -261.5,-50.93 95.23,-150.44 7.66,-92.32 236.5,-131.84 -1.5,-16.66 -3.23,-60.73 -4.26,-50.03l-18.87 -80.62zm561.3 -465.83l216.53 17.13 -9 283.38 -227.79 -60.93 20.26 -239.58zm-413.59 218.58c-126.47,66.05 -170.18,82.16 -251.24,-47.42 38.93,-30.4 -80.03,-122.48 123.03,-71.43 76.88,19.35 90.93,63.93 128.21,118.85zm108.97 -246.58c226.32,-29.57 238.8,-11.88 232.21,208.48l-231.66 -42.05 -0.55 -166.43zm-953.61 -450.71c-49.91,329.18 67.32,-90.22 108.7,192.8 142.69,160.78 84.65,380.51 56.5,593.64 -24.96,188.82 -40.67,410.79 -98.2,591.83l-16.86 197.77c141.59,57.61 100.57,-16.3 145.42,74.15l70.44 -75.81c176.41,99.03 20.18,-45.84 107.83,181l185.81 -191.74c-121.41,-83.62 -79.6,-59.81 -56.82,-247.13l190.63 25.35 23.53 184.75 71.94 18.83 10.94 -169.07 242.47 30.6c140.72,21.09 117.59,54.33 88.52,-81.06l-27.99 -104.87 294.35 61.6 118.22 36.48c162.83,-326.61 284.48,-1032.42 139.85,-1251.84 -283.14,148.11 37.83,386.71 -665.26,182.46 -73.96,38.61 -146.29,-5.73 -139.07,167.61l5.29 130.41c-151.73,-18.71 -171.43,-28.5 -268.6,-138.27 115.45,-93.26 195.28,-46.67 324.55,-69.65 -88.8,-64.28 -5.45,-27.2 -124.61,-56.26 -13.38,-3.28 -53.7,-6.4 -63.61,-5.85 -87.41,4.82 -34.51,-11.76 -46.9,48.96 -224.82,49.52 -11.69,-26.02 -117.35,92 -8.29,9.32 16.35,177.64 -37.94,59.98 -3.32,-7.23 -8.49,23.02 -17.3,30.87l-4.58 198.21 -232.64 -39.72c-4.58,-177.52 -43.71,-192.96 93.42,-240.3l-34.03 -102.34 292.53 -57.25c-142.85,-336.56 1.66,-50.98 -119.87,-136.66l-77.63 -15.51c-181.38,19.26 -28.9,45.96 -211.98,-4.03 30.91,-139.1 23.76,-57.88 -13.03,-205.24 -114.35,158.49 7.34,153.44 -196.67,93.3z"/>
    <path class="fil12" d="M16064.83 8494.25l150.35 93.23c-139.58,128 -162,55.47 -177.95,230.03 245.55,1.1 309.39,-336.21 494.65,11.17l294.79 118.02c-1.07,138.35 25.07,-7.46 -52.91,151.3 194.97,-140.99 166.46,142.86 112.53,221.47 -146.29,213.01 -289.5,22.58 -160.7,277.89 116.4,-83.91 99.06,-139.07 261.22,-173.89 211.68,453 -225.65,204.84 -152.64,527.58l229.08 -168.2 114.19 368.54c-181.51,106.81 -176.06,48.57 -176.96,215.86 147.39,-45.8 29.61,-51.29 215.54,-85.24l-2.06 104.47c21.48,125.28 93.86,19.15 6.01,173.22 -20.81,36.52 -65.43,68.23 -98.63,97.64 115.88,44.66 18.91,29.14 160.54,-46.35l51.96 151.42c-15.6,-7.46 -256.65,-139.78 -121.49,29.22l210.56 59.7c-74.66,156.43 -18.91,42.88 -73.95,115.29 -72.53,95.51 -16.74,-42.13 -72.77,102.22l135.04 2.96 98.98 -340.35c-1.81,-6.35 -53.73,-40.51 -89.11,-67.79l62.11 -257.04c115.68,21.79 108.5,100.17 284,65.03l-58.31 -87.14 -126.27 -35.18c-6.68,-159.79 -35.89,-296.33 -47.07,-432 -21.08,-255.54 4.94,-173.84 102.42,-351.44l-113.24 -11.1c-125.71,382.05 -213.61,177.44 -217.24,176.73 49.24,-223.36 67.52,-64.28 213.14,-232.76 153.79,-177.83 -189.13,17.38 124.88,-242.31l-161.56 -84.06 146.28 -85.09c-183.52,-65.19 -233.46,6.4 -20.45,-209.62 9.52,13.98 19.35,30.8 25.59,43.83l69.45 189.96c13.23,-326.06 -10.23,-247.84 86.19,-288.55l-11.37 279.19 41.22 182.49c85.17,-217.75 36.84,-231.49 53.38,-437.48 50.43,148.38 -21.95,117.78 57.22,255.03 95.11,-130.89 45.68,-27.36 39.05,-155.61 -6.56,-127.85 -12.52,-133.61 -61.8,-219.17 -215.03,-33.84 -85.76,32.41 -315.35,9.51 -121.58,58.64 -56.66,8.45 -257.68,9.91l40.32 109.41c22.5,96.74 23.33,2.73 -5.89,71.59 60.57,42.09 118.38,437.52 110.8,534.02 -97.81,27.36 -93.46,28.74 -184.35,56.89 -56.39,-212.06 -16.67,-196.51 131.4,-337.9 -85.17,-38.54 -12.95,-23.57 -102.74,-26.53 -0.63,0 -81.85,27.6 -83.55,28.23 -25.54,-170.53 -64.44,-128.72 60.29,-185.89 -95.15,1.06 -68.14,8.09 -161.25,-20.73 97.33,-291.94 -9.95,-8.61 144.79,-182.3 -252.18,-77.35 -270.5,34.98 -405.58,0.4l-331.35 -163.82c-10.5,-8.81 -43.71,-26.34 -49.43,-48.53 -3.99,-15.59 -16.03,-17.41 -23.42,-26.65 -73.2,34.43 63.18,103.33 -152.88,-52.39 -88.44,-63.77 -112.61,-85.61 -190.03,-159.4 -0.56,15.16 -16.63,65.42 -19.79,73.91l-48.2 77.15z"/>
    <path class="fil12" d="M13213.18 8787.03l-136.85 42.09c14.49,-237.66 11.84,-108.19 88.8,-146.25l48.05 104.16zm-604.93 -221.15c-137.92,-93.46 64.24,-522.93 120.26,-675.29l368.63 147.78 -29.78 571.02 -323.13 -25.31c62.11,-155.96 102.54,-150.59 1.1,-299.13 -135.86,213.61 61.01,200.86 -137.08,280.93zm-388.33 -29.14c-18.2,-322.74 108.23,-546.22 106.57,-819.57l170.17 68.82c28.43,208.87 20.02,293.8 -15.75,498.01 -44.77,255.62 -27.92,263.04 -260.99,252.74zm-296.25 -1403.02c-223.99,-30.6 -208.47,-7.86 -380.82,123.98 132.47,123.31 87.46,83.66 61.24,296.92 13.23,-196.24 12.68,-79.33 52.44,-129.71l486.2 214.4c186.52,89.83 2.8,400.48 -60.73,479.14 -45.13,55.87 -117.66,-33.76 -86.86,195.28 27.91,207.73 43.43,-16.54 88.01,163.27 -132,65.7 -266.24,33.76 -406.13,-18.36l11.57 92.51c439.02,-26.33 660.72,237.85 1125.6,162.16 200.98,164.21 -75.21,129.75 293.05,199.28l105.94 -125.56 177.87 -271.69c-195.09,-11.53 -87.53,-38.1 -242.15,65.34 -21.84,-170.09 -7.31,-269 -11.25,-438.58 -5.37,-230.19 -49.36,-140.84 -48.96,-333.8 -177.48,-0.12 -145.34,-32.85 -314.97,-97.45 -18.44,-44.45 -11.76,-43.94 -20.37,-103.88l-125.6 96.62c-26.57,-125.8 79.8,-224.27 -83.71,-209.54l-138.03 71.66c-140.29,114.7 -53.34,-42.96 -33.25,40.35l-86.7 -307.93c-18.99,20.57 -103.92,109.29 -115.53,114.34 -269.16,116.88 -127.81,19.63 -195.01,-9.71 128.91,-160.97 278.28,-17.13 86.39,-227.43l109.05 32.54c8.06,7.97 26.1,19.58 34,28.98l27.16 82.48c6.83,-14.25 13.62,-52.16 16.78,-44.3 3,7.38 12.36,-31.78 16.35,-41.65l62.34 -141.95c-34.62,52.2 -14.84,25.19 -71.38,37.23 -93.42,19.9 90.3,-11.13 -48.81,4.62 -6,0.67 -20.29,0.75 -26.49,1.39 -214.04,21.51 -76.56,82.16 -257.24,-0.95z"/>
    <path class="fil12" d="M17676.32 18098.2l-68.31 -41.38c133.97,-97.72 123.59,-286.97 163.27,-463.42 68.15,-302.76 51.8,-186.88 245.43,-271.02l23.81 -100.96c-76.12,43.55 -177.08,1.54 -248.51,9.36 77.94,-125.72 104.59,-54.72 14.45,-230.62l-61.56 34.7 23.26 102.94c-155.96,32.89 -61.48,71.07 -247.01,-28.55l-20.53 41.85c-0.28,-3.63 -4.03,7.5 -6.04,11.22 -1.19,-0.24 -108.03,-32.78 -108.9,-33.17l38.1 -78.53 -210.25 18.95 -58.67 218.23 111.7 34.31c34.07,-19.31 246.97,-61.2 268.72,48.68 71.55,-225.14 72.85,-147.43 151.82,-140.44l-7.9 224.78c-150.98,55.43 45.96,-72.53 -53.69,247.05l-116.84 410.36c-122.52,-145.86 -67.99,-28.71 -122.28,-208.01l-29.85 89.71c-144.71,-24.36 -323.96,-57.45 -427.53,-129.62 -72.49,18.67 -27.13,-5.29 -92.83,-12.68 -171.44,-19.27 -180.72,25.27 -375.96,-88.32 95.71,-224.39 16.62,-125.88 318.75,-163.66 -58.67,117.26 -54.57,15.67 -15.48,109.33 65.39,-94.57 141.51,-125.09 216.93,-180.76 -5.21,-3.32 -14.65,-7.27 -16.47,-8.45 -1.77,-1.15 -13.46,-7.78 -15.67,-9.36l-222.06 -142.97c-3.12,-0.55 -14.49,1.11 -17.65,0.83 -3.71,-0.32 -16.54,1.89 -20.37,1.7l-47.27 -2.88c-108.14,-1.23 -22.03,-133.97 -109.01,106.72l68.66 -333.92c33.25,-93.26 -28.35,50.86 14.53,-102.77l30.92 -78.97c2.76,-23.57 12.4,-28.98 28.03,-44.74l97.09 245.24c147.48,-170.18 -33.16,-5.88 118.45,-52.59 5.61,-1.74 27.05,2.96 31.28,-9.08 4.5,-12.96 23.05,-5.14 33.2,-10.82 -126.66,-92.51 90.3,-35.38 -183.8,-74.11l104.72 -20.69 -48.33 -118.89c-156.71,135.23 -71.27,57.49 -160.15,-6.08l-14.25 -13.39c78.53,-147.86 7.46,-128.71 130.57,-296.01 -1.3,16.78 -13.15,144.95 -13.03,151.35 3.67,158.96 -29.22,-5.06 26.38,72.84l235.99 0.48c-136.1,-73.6 139.93,-111.98 -176.53,-55.87 199.87,-150 25.66,3.04 9.75,-122.21 -2.92,-23.29 -26.81,-21.12 -38.61,-33.36 99.34,-1.54 190.03,50.26 260.79,26.45 -220.13,-205.27 -234.14,-67.87 -380.94,-93.97l8.25 -179.53 -1.54 18.36c-98.79,287.76 -463.11,1321.76 -450.67,1548.2 378.57,8.37 1000.52,118.81 1273.2,333.33l140.44 -125.17z"/>
    <path class="fil12" d="M15105.17 10264.2l-48.8 -190.47c-3.99,-8.69 -14.1,-23.18 -17.61,-30.05 -3.52,-6.83 -14.38,-18.32 -18.84,-28.94 248.32,330.76 110.72,-127.45 231.06,324.56 113.4,-127.93 100.25,-83.19 253.61,-111.27l53.26 239.47c24.84,-5.64 40.51,-26.85 46.12,-17.41 50.26,84.73 -11.33,-28.94 217.95,-97.92l259.96 -187.04 -97.33 -149.28 -287.12 214.24 -28.04 -43.79c-71.11,-76.96 11.02,-46.51 -303.27,-86.98l129.86 -94.17c-26.22,-24.96 -94.13,-82.49 -100.68,-87.18l-97.25 -85.68c-70.28,-162.32 59.74,55.98 -23.77,-82.92l-105.46 -81.38c176.96,-78.81 312.31,-71.34 294.19,-280.93 -135.51,-66.17 -118.13,11.46 -297.59,116.48 -64.87,48.57 -87.77,68.86 -209.54,42.17 -49.59,-10.86 -140.56,-71.46 -207.33,-106.57l6.12 -152.01 -44.38 79.13c-212.66,-38.34 18.12,5.84 -195.92,-91.92l-117.66 234.73c-148.14,-88.6 -91.6,-46.55 -127.69,-178.39 -96.34,133.38 -76.96,76.32 -271.1,62.11 199.32,44.02 126.98,78.3 305.8,154.97 503.11,215.78 281.84,333.49 801.45,716.44z"/>
    <path class="fil12" d="M16982.79 13841.72c-207.25,173.37 44.77,235.32 -48.57,505.87 152.05,211.04 151.22,81.29 43.04,630.24 -48.76,247.37 -85.44,433.61 -115.61,690.26 163.82,-116.8 73.2,-137.09 190.63,-252.11l-38.06 -71.07c60.6,-64.08 -47.82,56.3 64.99,-45.68 155.48,-140.6 14.33,-122.6 156.35,-270.82 119.68,-101.2 128.33,-43.08 160.86,-52.2 146.05,-40.94 32.77,-72.53 171.24,-23.06 39.64,154.74 -31.51,220.52 24.76,330.44 22.62,-231.77 61.28,-529.44 173.49,-730.37l342.01 91.64 11.29 112.37 43.87 -128.08 127.18 189.52c90.77,-45.92 -37.12,-76.84 133.93,-12.24 105.1,67.36 21.28,19.07 73.83,-1.98l-142.26 -273.34c-269.16,94.17 -31.11,98.04 -757.93,-65.19 91.76,141.12 129.82,183.68 24.36,364.87 -49.87,85.68 -49.79,53.26 -118.65,104.08l-8.37 -165.56c-86.04,-63.53 -18.83,-28.5 -122.99,17.57l-155.25 -152.6c-1.35,-0.83 -12.13,0.32 -13.03,-4.82 -0.91,-4.81 -8.69,-1.58 -12.48,-3.71 55.71,-189.72 42.8,-129.51 168.48,-241.92 -81.69,-52.43 -67.24,16.07 -52.91,-85.99l224.27 -57.45c-81.5,-154.38 -14.37,-6.16 -14.22,-143.8 -393.14,129.23 154.27,34.51 -165.47,181.62 -160.27,-56.85 -167.38,-108.7 -183.13,-289.49 140.52,-103.45 211.52,-109.53 387.02,-114.59 71.23,-177.04 37.47,-139.89 -55.87,-213.01 -70.52,145.26 -32.49,115.77 -250.6,176.65 -211.44,59.03 -19.74,8.53 -266.2,3.95z"/>
    <path class="fil12" d="M12075.84 6565.5l-57.37 -207.84c290.33,64.16 15.8,0.59 219.38,179.61l-162.01 28.23zm-996.21 -169.18c67.67,183.44 63.68,56.06 199.07,199.86l-8.52 269.09 95.82 163.46 97.21 206.9c97.49,-83.59 166.58,76.52 -26.73,-174.25 241.25,-6 102.54,51.85 261.42,-109.41 144.48,185.46 -19.42,95 203.27,67.21l22.5 114.54c64.88,-22.74 70.56,70.36 35.46,-77.31 -262.41,-50.58 -109.65,-25.19 -141.47,-167.73 242.35,-4.9 166.46,12 358.83,-96.58 -107.87,9.44 -91.33,-119.55 -100.65,-226.6 55.99,-0.55 162.52,-79.91 222.81,199.24 1.11,5.13 4.38,18.91 5.02,23.69l-10.62 71.66 176.53 -156.51c-83.23,23.14 -51.21,-110.67 -131.72,-211.4 -51.68,-64.67 -85.92,-50.38 -154.03,-190.78l-66.92 -218.43c-102.03,108.94 107.83,28.39 -128.92,285.23 -186.24,202 -272.4,-14.72 -199.39,288.87 94.76,-40.63 98.55,-113.12 226.87,-109.1l-314.64 436.81 -404.4 -213.56c77.79,-393.07 -12.32,-98.71 -58.08,-450.79 -30.36,-233.94 -3.59,-213.18 -186.44,-395.31 -179.22,41.26 19.86,34.82 -130.89,48.24 -207.88,18.56 66.37,-1.89 -78.81,-32.41 -56.34,-11.85 -256.25,37.75 -160.62,146.21 105.54,119.71 -48.8,-106.45 311.29,-20.3 203.62,48.69 162.12,128.56 168.52,301.46l-81.77 28z"/>
    <path class="fil12" d="M9040.64 7153.66c25.74,273.19 -72.14,497.06 -48.69,791.33 504.02,-91.8 110.87,-163.26 381.14,-406.68 57.65,165.4 -49.35,28.27 -94.05,302.37l541.4 -225.53c-192.64,-43.63 -24.83,63.72 -159.75,-7.59 102.5,-62.62 159.6,-59.46 190.87,-165.59 -111.78,-13.5 -278.72,72.45 -372.02,138.11 1.46,-119.67 51.37,-174.63 120.66,-302.01 -90.49,-83.51 -55.35,-45.25 -128.71,-147.91 -270.11,-28.03 -64.32,-42.84 -282.91,-109.6l42.13 221.58c-30.64,59.38 -32.57,40.2 -85.12,84.93 -0.79,-9.71 -34.24,-129.19 -35.46,-131.56 -85.44,-165.6 164.61,71.23 -69.49,-41.85z"/>
    <path class="fil12" d="M4143.68 10546.9c-139.57,-49.19 -48.72,30.92 -146.64,-118.68 68.19,-205.24 -60.09,-82.64 133.61,-123.43l-239.58 -210.92c8.21,194.38 -63.77,141.19 -181.16,285.23 48.81,328.62 149.65,80.35 217.92,393.06 -14.85,-6.12 -34.59,-32.65 -43.36,-20.93 -49.87,66.69 -30.16,-13.34 -121.73,-60.17 -220.55,-112.88 -77.74,-91.8 -230.11,-83.98 81.97,296.88 95.71,40.03 165.64,292.18l174.36 -17.18c86.51,-123.82 47.14,-163.14 271.05,-335.18z"/>
    <path class="fil12" d="M1990.39 8160.62l0 16.93c221.98,254.4 -138.9,412.26 279.55,596.05l-48.02 -351.09c289.62,-53.06 39.92,-20.61 157.15,-97.17 102.97,-67.32 -34.47,78.77 168.71,-72.45 1.74,9.04 4.55,14.88 5.14,27.09l14.29 73.99c0.63,3.08 2.76,14.73 4.7,21.95l199.91 4.82c-173.34,-216.97 -326.89,-337.71 -605.57,-152.29l-175.86 -67.83z"/>
    <path class="fil12" d="M6073.34 9119.6l143.49 -63.53c-49.83,-237.18 -29.7,-129.03 54.29,-301.22 -190.71,-53.74 -165.8,-49.36 -348.41,-31.79l130.42 153.32c-381.38,-202.36 -198.09,66.37 -183.33,137.21 269.4,-76.4 -100.76,-113.16 261.74,-106.89 -136.57,176.85 -61.12,-4.1 -58.2,212.9z"/>
    <path class="fil12" d="M17052.28 15415.98c-22.03,252.94 -74.74,122.84 -23.69,349.43l227.35 61.76c73.2,-151.98 119.55,-61.91 -91.92,-147.91l213.09 -58.16c-126.46,-109.84 -52.51,1.19 -112.45,-143.64l-212.38 -61.48z"/>
    <polygon class="fil12" points="15736.95,9358.79 15875.3,9489.41 16233.26,9230 16121.13,9107.83 "/>
    <path class="fil12" d="M15517.34 10703.42l159.63 220.71 85.09 -24.24c109.1,-72.45 126.19,93.06 59.82,-134.72 41.34,10.5 22.66,25.47 -13.82,-13.26 -47.14,-50.11 -57.05,-71 -104.12,-117.27l-186.6 68.78z"/>
    <path class="fil12" d="M16264.1 9962.62c165.99,-144.23 106.73,-112.76 308.92,-223.6l-48.37 -128.32c-141.9,85.33 -387.89,172.03 -260.55,351.92z"/>
    <path class="fil12" d="M17082.84 13205.04l-7.07 174.87c134.33,1.74 199.87,-23.61 260.56,-124.09 -70.84,-102.58 -147.12,-109.89 -253.49,-50.78z"/>
    <path class="fil12" d="M16531.88 8828.68c-144.67,21.76 -176.69,51.85 -231.22,177.56 175.86,63.37 119.88,34.87 272.76,-95.59l-41.54 -81.97z"/>
    <path class="fil12" d="M17053.74 10515.48c-4.15,29.81 67.87,75.77 56.46,-9.91 -11.45,-86.12 -41.65,-96.78 -56.46,9.91z"/>
   </g>
   <polygon class="fil13" points="9973.01,21158.8 10205.02,21191.96 10461.27,20977.17 10192.38,20938.56 "/>
  </g>
 </g>
</svg>
